G04 #@! TF.GenerationSoftware,KiCad,Pcbnew,(2017-09-19 revision dddaa7e69)-makepkg*
G04 #@! TF.CreationDate,2017-11-22T19:31:19+10:30*
G04 #@! TF.ProjectId,din_isolated_SPI,64696E5F69736F6C617465645F535049,rev?*
G04 #@! TF.SameCoordinates,Original*
G04 #@! TF.FileFunction,Copper,L1,Top,Signal*
G04 #@! TF.FilePolarity,Positive*
%FSLAX46Y46*%
G04 Gerber Fmt 4.6, Leading zero omitted, Abs format (unit mm)*
G04 Created by KiCad (PCBNEW (2017-09-19 revision dddaa7e69)-makepkg) date 11/22/17 19:31:19*
%MOMM*%
%LPD*%
G01*
G04 APERTURE LIST*
%ADD10R,0.600000X1.500000*%
%ADD11R,0.600000X0.500000*%
%ADD12R,0.400000X0.600000*%
%ADD13R,0.600000X0.400000*%
%ADD14C,1.500000*%
%ADD15R,1.500000X1.500000*%
%ADD16C,1.800000*%
%ADD17C,0.800000*%
%ADD18C,0.250000*%
%ADD19C,0.500000*%
%ADD20C,0.254000*%
G04 APERTURE END LIST*
D10*
X137160000Y-81186000D03*
X135890000Y-81186000D03*
X134620000Y-81186000D03*
X133350000Y-81186000D03*
X132080000Y-81186000D03*
X130810000Y-81186000D03*
X129540000Y-81186000D03*
X128270000Y-81186000D03*
X128270000Y-75786000D03*
X129540000Y-75786000D03*
X130810000Y-75786000D03*
X132080000Y-75786000D03*
X133350000Y-75786000D03*
X134620000Y-75786000D03*
X135890000Y-75786000D03*
X137160000Y-75786000D03*
D11*
X137182000Y-73787000D03*
X138282000Y-73787000D03*
X138218000Y-83312000D03*
X137118000Y-83312000D03*
D12*
X125736000Y-65468500D03*
X124836000Y-65468500D03*
X124836000Y-68558800D03*
X125736000Y-68558800D03*
X125736000Y-70104000D03*
X124836000Y-70104000D03*
X140404000Y-66675000D03*
X139504000Y-66675000D03*
X139504000Y-68453000D03*
X140404000Y-68453000D03*
D13*
X135890000Y-84068500D03*
X135890000Y-84968500D03*
X134620000Y-84968500D03*
X134620000Y-84068500D03*
X133350000Y-84068500D03*
X133350000Y-84968500D03*
X132080000Y-84968500D03*
X132080000Y-84068500D03*
X130810000Y-84068500D03*
X130810000Y-84968500D03*
X129540000Y-84968500D03*
X129540000Y-84068500D03*
D12*
X124836000Y-67013700D03*
X125736000Y-67013700D03*
D14*
X123732000Y-89789000D03*
X125732000Y-89789000D03*
X127732000Y-89789000D03*
X129732000Y-89789000D03*
X131732000Y-89789000D03*
X133732000Y-89789000D03*
X135732000Y-89789000D03*
X137732000Y-89789000D03*
X139732000Y-89789000D03*
D15*
X141732000Y-89789000D03*
D16*
X144018000Y-59436000D03*
X144018000Y-61976000D03*
X144018000Y-64516000D03*
X144018000Y-67056000D03*
X144018000Y-69596000D03*
X144018000Y-72136000D03*
X144018000Y-74676000D03*
X144018000Y-77216000D03*
X121158000Y-77216000D03*
X121158000Y-74676000D03*
X121158000Y-72136000D03*
X121158000Y-69596000D03*
X121158000Y-67056000D03*
X121158000Y-64516000D03*
X121158000Y-61976000D03*
X121158000Y-59436000D03*
D17*
X130810000Y-85777000D03*
X138006500Y-68666400D03*
X130944100Y-74122700D03*
X138389500Y-81560900D03*
X132956300Y-86227200D03*
X146499000Y-55586000D03*
X143999000Y-55586000D03*
X141499000Y-55586000D03*
X138999000Y-55586000D03*
X136499000Y-55586000D03*
X133999000Y-55586000D03*
X131499000Y-55586000D03*
X128999000Y-55586000D03*
X126499000Y-55586000D03*
X123999000Y-55586000D03*
X121499000Y-55586000D03*
X118999000Y-55586000D03*
X146499000Y-53086000D03*
X143999000Y-53086000D03*
X141499000Y-53086000D03*
X138999000Y-53086000D03*
X136499000Y-53086000D03*
X133999000Y-53086000D03*
X131499000Y-53086000D03*
X128999000Y-53086000D03*
X126499000Y-53086000D03*
X123999000Y-53086000D03*
X121499000Y-53086000D03*
X118999000Y-53086000D03*
X128270000Y-74102900D03*
X138176000Y-85705010D03*
X122301000Y-85899000D03*
X122301000Y-84649000D03*
X122301000Y-83399000D03*
X122301000Y-82149000D03*
X122301000Y-80899000D03*
X138176000Y-84455010D03*
X138466900Y-76388700D03*
D18*
X140960300Y-69078300D02*
X140404000Y-69078300D01*
X144018000Y-72136000D02*
X140960300Y-69078300D01*
X140404000Y-68453000D02*
X140404000Y-69078300D01*
X141097000Y-66675000D02*
X140404000Y-66675000D01*
X144018000Y-69596000D02*
X141097000Y-66675000D01*
X124310700Y-68983300D02*
X124310700Y-68558800D01*
X121158000Y-72136000D02*
X124310700Y-68983300D01*
X124836000Y-68558800D02*
X124310700Y-68558800D01*
X123740300Y-67013700D02*
X124836000Y-67013700D01*
X121158000Y-69596000D02*
X123740300Y-67013700D01*
X122723200Y-67056000D02*
X124310700Y-65468500D01*
X121158000Y-67056000D02*
X122723200Y-67056000D01*
X124836000Y-65468500D02*
X124310700Y-65468500D01*
X129540000Y-75786000D02*
X129540000Y-77089000D01*
X127576700Y-67013700D02*
X125736000Y-67013700D01*
X129540000Y-77089000D02*
X135245400Y-77089000D01*
X135245400Y-77089000D02*
X135245400Y-74682400D01*
X135245400Y-74682400D02*
X127576700Y-67013700D01*
X131732000Y-89789000D02*
X135245400Y-86275600D01*
X135255000Y-80010000D02*
X130165300Y-80010000D01*
X135245400Y-86275600D02*
X135245400Y-80019600D01*
X130165300Y-84968500D02*
X129540000Y-84968500D01*
X135245400Y-80019600D02*
X135255000Y-80010000D01*
X130165300Y-80010000D02*
X130165300Y-84968500D01*
X129540000Y-84068500D02*
X129540000Y-81186000D01*
X130810000Y-84068500D02*
X130810000Y-81186000D01*
X130810000Y-84968500D02*
X130810000Y-85777000D01*
X132080000Y-84068500D02*
X132080000Y-81186000D01*
X133350000Y-84068500D02*
X133350000Y-81186000D01*
X132080000Y-84968500D02*
X132080000Y-85615500D01*
X127906500Y-89789000D02*
X132080000Y-85615500D01*
X127732000Y-89789000D02*
X127906500Y-89789000D01*
X134620000Y-84968500D02*
X134620000Y-85589300D01*
X133256800Y-86952500D02*
X134620000Y-85589300D01*
X132568500Y-86952500D02*
X133256800Y-86952500D01*
X129732000Y-89789000D02*
X132568500Y-86952500D01*
X134620000Y-84068500D02*
X134620000Y-81186000D01*
X135890000Y-84068500D02*
X135890000Y-81186000D01*
X135890000Y-87631000D02*
X133732000Y-89789000D01*
X135890000Y-84968500D02*
X135890000Y-87631000D01*
X138219900Y-68453000D02*
X138006500Y-68666400D01*
X139504000Y-68453000D02*
X138219900Y-68453000D01*
X130810000Y-74256800D02*
X130944100Y-74122700D01*
X130810000Y-75786000D02*
X130810000Y-74256800D01*
X139504000Y-66675000D02*
X138978700Y-66675000D01*
X132080000Y-75786000D02*
X132080000Y-74200600D01*
X137107800Y-64804100D02*
X138978700Y-66675000D01*
X123377400Y-64804100D02*
X137107800Y-64804100D01*
X122395500Y-65786000D02*
X123377400Y-64804100D01*
X120627900Y-65786000D02*
X122395500Y-65786000D01*
X119624500Y-66789400D02*
X120627900Y-65786000D01*
X119624500Y-77840800D02*
X119624500Y-66789400D01*
X120536000Y-78752300D02*
X119624500Y-77840800D01*
X121785300Y-78752300D02*
X120536000Y-78752300D01*
X127464000Y-73073600D02*
X121785300Y-78752300D01*
X130953000Y-73073600D02*
X127464000Y-73073600D01*
X132080000Y-74200600D02*
X130953000Y-73073600D01*
X125736000Y-70104000D02*
X128743300Y-70104000D01*
X133350000Y-75786000D02*
X133350000Y-74710700D01*
X133350000Y-74710700D02*
X128743300Y-70104000D01*
X134620000Y-75786000D02*
X134620000Y-74710700D01*
X128468100Y-68558800D02*
X125736000Y-68558800D01*
X134620000Y-74710700D02*
X128468100Y-68558800D01*
X125736000Y-65468500D02*
X126751700Y-65468500D01*
X135890000Y-75786000D02*
X135890000Y-74606800D01*
X135890000Y-74606800D02*
X126751700Y-65468500D01*
D19*
X137118000Y-82728300D02*
X137118000Y-83312000D01*
X137160000Y-82686300D02*
X137118000Y-82728300D01*
X137160000Y-81186000D02*
X137160000Y-81553300D01*
X137160000Y-81553300D02*
X137160000Y-82686300D01*
X137167600Y-81560900D02*
X137160000Y-81553300D01*
X138389500Y-81560900D02*
X137167600Y-81560900D01*
D18*
X124836000Y-70998000D02*
X124836000Y-70104000D01*
X121158000Y-74676000D02*
X124836000Y-70998000D01*
X132956300Y-85887500D02*
X133350000Y-85493800D01*
X132956300Y-86227200D02*
X132956300Y-85887500D01*
X133350000Y-84968500D02*
X133350000Y-85493800D01*
D19*
X138282000Y-73787000D02*
X139332300Y-73787000D01*
X140221300Y-74676000D02*
X139332300Y-73787000D01*
X144018000Y-74676000D02*
X140221300Y-74676000D01*
X128270000Y-75786000D02*
X128270000Y-74102900D01*
X138218000Y-83312000D02*
X138218000Y-84413010D01*
X138218000Y-84413010D02*
X138176000Y-84455010D01*
X125732000Y-85224300D02*
X128270000Y-82686300D01*
X125732000Y-89789000D02*
X125732000Y-85224300D01*
X128270000Y-81186000D02*
X128270000Y-82686300D01*
X138466900Y-76388700D02*
X140904700Y-76388700D01*
X140904700Y-76388700D02*
X142494000Y-77978000D01*
X142494000Y-77978000D02*
X142494000Y-89027000D01*
X142494000Y-89027000D02*
X141732000Y-89789000D01*
X137182000Y-73787000D02*
X137182000Y-74787300D01*
X137160000Y-74809300D02*
X137160000Y-75786000D01*
X137182000Y-74787300D02*
X137160000Y-74809300D01*
X137864200Y-75786000D02*
X138466900Y-76388700D01*
X137160000Y-75786000D02*
X137864200Y-75786000D01*
D20*
G36*
X129909280Y-73915923D02*
X129908921Y-74327671D01*
X129942504Y-74408949D01*
X129840000Y-74388560D01*
X129240000Y-74388560D01*
X128992235Y-74437843D01*
X128913028Y-74490768D01*
X128696310Y-74401000D01*
X128555750Y-74401000D01*
X128397000Y-74559750D01*
X128397000Y-75659000D01*
X128417000Y-75659000D01*
X128417000Y-75913000D01*
X128397000Y-75913000D01*
X128397000Y-75933000D01*
X128143000Y-75933000D01*
X128143000Y-75913000D01*
X127493750Y-75913000D01*
X127335000Y-76071750D01*
X127335000Y-76662309D01*
X127375465Y-76760000D01*
X127000000Y-76760000D01*
X126728295Y-76814046D01*
X126497954Y-76967954D01*
X126344046Y-77198295D01*
X126290000Y-77470000D01*
X124142402Y-77470000D01*
X126702711Y-74909691D01*
X127335000Y-74909691D01*
X127335000Y-75500250D01*
X127493750Y-75659000D01*
X128143000Y-75659000D01*
X128143000Y-74559750D01*
X127984250Y-74401000D01*
X127843690Y-74401000D01*
X127610301Y-74497673D01*
X127431673Y-74676302D01*
X127335000Y-74909691D01*
X126702711Y-74909691D01*
X127778802Y-73833600D01*
X129943463Y-73833600D01*
X129909280Y-73915923D01*
X129909280Y-73915923D01*
G37*
X129909280Y-73915923D02*
X129908921Y-74327671D01*
X129942504Y-74408949D01*
X129840000Y-74388560D01*
X129240000Y-74388560D01*
X128992235Y-74437843D01*
X128913028Y-74490768D01*
X128696310Y-74401000D01*
X128555750Y-74401000D01*
X128397000Y-74559750D01*
X128397000Y-75659000D01*
X128417000Y-75659000D01*
X128417000Y-75913000D01*
X128397000Y-75913000D01*
X128397000Y-75933000D01*
X128143000Y-75933000D01*
X128143000Y-75913000D01*
X127493750Y-75913000D01*
X127335000Y-76071750D01*
X127335000Y-76662309D01*
X127375465Y-76760000D01*
X127000000Y-76760000D01*
X126728295Y-76814046D01*
X126497954Y-76967954D01*
X126344046Y-77198295D01*
X126290000Y-77470000D01*
X124142402Y-77470000D01*
X126702711Y-74909691D01*
X127335000Y-74909691D01*
X127335000Y-75500250D01*
X127493750Y-75659000D01*
X128143000Y-75659000D01*
X128143000Y-74559750D01*
X127984250Y-74401000D01*
X127843690Y-74401000D01*
X127610301Y-74497673D01*
X127431673Y-74676302D01*
X127335000Y-74909691D01*
X126702711Y-74909691D01*
X127778802Y-73833600D01*
X129943463Y-73833600D01*
X129909280Y-73915923D01*
G36*
X147880000Y-77470000D02*
X145552779Y-77470000D01*
X145553265Y-76912009D01*
X145320068Y-76347629D01*
X144888643Y-75915449D01*
X144867806Y-75906797D01*
X144918554Y-75756159D01*
X144018000Y-74855605D01*
X143117446Y-75756159D01*
X143168035Y-75906327D01*
X143149629Y-75913932D01*
X142717449Y-76345357D01*
X142540082Y-76772503D01*
X141530490Y-75762910D01*
X141520386Y-75756159D01*
X141243375Y-75571067D01*
X141187184Y-75559890D01*
X140904700Y-75503699D01*
X140904695Y-75503700D01*
X139034485Y-75503700D01*
X138690748Y-75360969D01*
X138489990Y-75160210D01*
X138438752Y-75125974D01*
X138202875Y-74968367D01*
X138146684Y-74957190D01*
X138089501Y-74945815D01*
X138062486Y-74809998D01*
X138067001Y-74787300D01*
X138067000Y-74787295D01*
X138067000Y-74601250D01*
X138155000Y-74513250D01*
X138155000Y-73912000D01*
X138409000Y-73912000D01*
X138409000Y-74513250D01*
X138567750Y-74672000D01*
X138708309Y-74672000D01*
X138941698Y-74575327D01*
X139081689Y-74435336D01*
X142471542Y-74435336D01*
X142497161Y-75045460D01*
X142681357Y-75490148D01*
X142937841Y-75576554D01*
X143838395Y-74676000D01*
X144197605Y-74676000D01*
X145098159Y-75576554D01*
X145354643Y-75490148D01*
X145564458Y-74916664D01*
X145538839Y-74306540D01*
X145354643Y-73861852D01*
X145098159Y-73775446D01*
X144197605Y-74676000D01*
X143838395Y-74676000D01*
X142937841Y-73775446D01*
X142681357Y-73861852D01*
X142471542Y-74435336D01*
X139081689Y-74435336D01*
X139120327Y-74396699D01*
X139217000Y-74163310D01*
X139217000Y-74070750D01*
X139058250Y-73912000D01*
X138409000Y-73912000D01*
X138155000Y-73912000D01*
X138135000Y-73912000D01*
X138135000Y-73662000D01*
X138155000Y-73662000D01*
X138155000Y-73060750D01*
X138409000Y-73060750D01*
X138409000Y-73662000D01*
X139058250Y-73662000D01*
X139217000Y-73503250D01*
X139217000Y-73410690D01*
X139120327Y-73177301D01*
X138941698Y-72998673D01*
X138708309Y-72902000D01*
X138567750Y-72902000D01*
X138409000Y-73060750D01*
X138155000Y-73060750D01*
X137996250Y-72902000D01*
X137855691Y-72902000D01*
X137743916Y-72948299D01*
X137729765Y-72938843D01*
X137482000Y-72889560D01*
X136882000Y-72889560D01*
X136634235Y-72938843D01*
X136424191Y-73079191D01*
X136283843Y-73289235D01*
X136234560Y-73537000D01*
X136234560Y-73876558D01*
X127922102Y-65564100D01*
X136792998Y-65564100D01*
X138441299Y-67212401D01*
X138687861Y-67377148D01*
X138827568Y-67404938D01*
X138846191Y-67432809D01*
X139042531Y-67564000D01*
X138849470Y-67693000D01*
X138361193Y-67693000D01*
X138213277Y-67631580D01*
X137801529Y-67631221D01*
X137420985Y-67788458D01*
X137129581Y-68079354D01*
X136971680Y-68459623D01*
X136971321Y-68871371D01*
X137128558Y-69251915D01*
X137419454Y-69543319D01*
X137799723Y-69701220D01*
X138211471Y-69701579D01*
X138592015Y-69544342D01*
X138883419Y-69253446D01*
X138889192Y-69239542D01*
X139056235Y-69351157D01*
X139304000Y-69400440D01*
X139704000Y-69400440D01*
X139720565Y-69397145D01*
X139866599Y-69615701D01*
X140113161Y-69780448D01*
X140404000Y-69838300D01*
X140645498Y-69838300D01*
X142528234Y-71721036D01*
X142483267Y-71829330D01*
X142482735Y-72439991D01*
X142715932Y-73004371D01*
X143147357Y-73436551D01*
X143168194Y-73445203D01*
X143117446Y-73595841D01*
X144018000Y-74496395D01*
X144918554Y-73595841D01*
X144867965Y-73445673D01*
X144886371Y-73438068D01*
X145318551Y-73006643D01*
X145552733Y-72442670D01*
X145553265Y-71832009D01*
X145320068Y-71267629D01*
X144918818Y-70865677D01*
X145318551Y-70466643D01*
X145552733Y-69902670D01*
X145553265Y-69292009D01*
X145320068Y-68727629D01*
X144918818Y-68325677D01*
X145318551Y-67926643D01*
X145552733Y-67362670D01*
X145553265Y-66752009D01*
X145320068Y-66187629D01*
X144918818Y-65785677D01*
X145318551Y-65386643D01*
X145552733Y-64822670D01*
X145553265Y-64212009D01*
X145320068Y-63647629D01*
X144918818Y-63245677D01*
X145318551Y-62846643D01*
X145552733Y-62282670D01*
X145553265Y-61672009D01*
X145320068Y-61107629D01*
X144918818Y-60705677D01*
X145318551Y-60306643D01*
X145552733Y-59742670D01*
X145553265Y-59132009D01*
X145320068Y-58567629D01*
X144888643Y-58135449D01*
X144324670Y-57901267D01*
X143714009Y-57900735D01*
X143149629Y-58133932D01*
X142717449Y-58565357D01*
X142483267Y-59129330D01*
X142482735Y-59739991D01*
X142715932Y-60304371D01*
X143117182Y-60706323D01*
X142717449Y-61105357D01*
X142483267Y-61669330D01*
X142482735Y-62279991D01*
X142715932Y-62844371D01*
X143117182Y-63246323D01*
X142717449Y-63645357D01*
X142483267Y-64209330D01*
X142482735Y-64819991D01*
X142715932Y-65384371D01*
X143117182Y-65786323D01*
X142717449Y-66185357D01*
X142483267Y-66749330D01*
X142483061Y-66986259D01*
X141634401Y-66137599D01*
X141387839Y-65972852D01*
X141097000Y-65915000D01*
X141058530Y-65915000D01*
X140851765Y-65776843D01*
X140604000Y-65727560D01*
X140204000Y-65727560D01*
X139956235Y-65776843D01*
X139954000Y-65778336D01*
X139951765Y-65776843D01*
X139704000Y-65727560D01*
X139304000Y-65727560D01*
X139138902Y-65760400D01*
X137645201Y-64266699D01*
X137398639Y-64101952D01*
X137107800Y-64044100D01*
X123377400Y-64044100D01*
X123086560Y-64101952D01*
X122839999Y-64266699D01*
X122693089Y-64413609D01*
X122693265Y-64212009D01*
X122460068Y-63647629D01*
X122058818Y-63245677D01*
X122458551Y-62846643D01*
X122692733Y-62282670D01*
X122693265Y-61672009D01*
X122460068Y-61107629D01*
X122058818Y-60705677D01*
X122458551Y-60306643D01*
X122692733Y-59742670D01*
X122693265Y-59132009D01*
X122460068Y-58567629D01*
X122028643Y-58135449D01*
X121464670Y-57901267D01*
X120854009Y-57900735D01*
X120289629Y-58133932D01*
X119857449Y-58565357D01*
X119623267Y-59129330D01*
X119622735Y-59739991D01*
X119855932Y-60304371D01*
X120257182Y-60706323D01*
X119857449Y-61105357D01*
X119623267Y-61669330D01*
X119622735Y-62279991D01*
X119855932Y-62844371D01*
X120257182Y-63246323D01*
X119857449Y-63645357D01*
X119623267Y-64209330D01*
X119622735Y-64819991D01*
X119855932Y-65384371D01*
X119905286Y-65433812D01*
X119087099Y-66251999D01*
X118922352Y-66498561D01*
X118864500Y-66789400D01*
X118864500Y-77470000D01*
X117729000Y-77470000D01*
X117729000Y-52324000D01*
X147880000Y-52324000D01*
X147880000Y-77470000D01*
X147880000Y-77470000D01*
G37*
X147880000Y-77470000D02*
X145552779Y-77470000D01*
X145553265Y-76912009D01*
X145320068Y-76347629D01*
X144888643Y-75915449D01*
X144867806Y-75906797D01*
X144918554Y-75756159D01*
X144018000Y-74855605D01*
X143117446Y-75756159D01*
X143168035Y-75906327D01*
X143149629Y-75913932D01*
X142717449Y-76345357D01*
X142540082Y-76772503D01*
X141530490Y-75762910D01*
X141520386Y-75756159D01*
X141243375Y-75571067D01*
X141187184Y-75559890D01*
X140904700Y-75503699D01*
X140904695Y-75503700D01*
X139034485Y-75503700D01*
X138690748Y-75360969D01*
X138489990Y-75160210D01*
X138438752Y-75125974D01*
X138202875Y-74968367D01*
X138146684Y-74957190D01*
X138089501Y-74945815D01*
X138062486Y-74809998D01*
X138067001Y-74787300D01*
X138067000Y-74787295D01*
X138067000Y-74601250D01*
X138155000Y-74513250D01*
X138155000Y-73912000D01*
X138409000Y-73912000D01*
X138409000Y-74513250D01*
X138567750Y-74672000D01*
X138708309Y-74672000D01*
X138941698Y-74575327D01*
X139081689Y-74435336D01*
X142471542Y-74435336D01*
X142497161Y-75045460D01*
X142681357Y-75490148D01*
X142937841Y-75576554D01*
X143838395Y-74676000D01*
X144197605Y-74676000D01*
X145098159Y-75576554D01*
X145354643Y-75490148D01*
X145564458Y-74916664D01*
X145538839Y-74306540D01*
X145354643Y-73861852D01*
X145098159Y-73775446D01*
X144197605Y-74676000D01*
X143838395Y-74676000D01*
X142937841Y-73775446D01*
X142681357Y-73861852D01*
X142471542Y-74435336D01*
X139081689Y-74435336D01*
X139120327Y-74396699D01*
X139217000Y-74163310D01*
X139217000Y-74070750D01*
X139058250Y-73912000D01*
X138409000Y-73912000D01*
X138155000Y-73912000D01*
X138135000Y-73912000D01*
X138135000Y-73662000D01*
X138155000Y-73662000D01*
X138155000Y-73060750D01*
X138409000Y-73060750D01*
X138409000Y-73662000D01*
X139058250Y-73662000D01*
X139217000Y-73503250D01*
X139217000Y-73410690D01*
X139120327Y-73177301D01*
X138941698Y-72998673D01*
X138708309Y-72902000D01*
X138567750Y-72902000D01*
X138409000Y-73060750D01*
X138155000Y-73060750D01*
X137996250Y-72902000D01*
X137855691Y-72902000D01*
X137743916Y-72948299D01*
X137729765Y-72938843D01*
X137482000Y-72889560D01*
X136882000Y-72889560D01*
X136634235Y-72938843D01*
X136424191Y-73079191D01*
X136283843Y-73289235D01*
X136234560Y-73537000D01*
X136234560Y-73876558D01*
X127922102Y-65564100D01*
X136792998Y-65564100D01*
X138441299Y-67212401D01*
X138687861Y-67377148D01*
X138827568Y-67404938D01*
X138846191Y-67432809D01*
X139042531Y-67564000D01*
X138849470Y-67693000D01*
X138361193Y-67693000D01*
X138213277Y-67631580D01*
X137801529Y-67631221D01*
X137420985Y-67788458D01*
X137129581Y-68079354D01*
X136971680Y-68459623D01*
X136971321Y-68871371D01*
X137128558Y-69251915D01*
X137419454Y-69543319D01*
X137799723Y-69701220D01*
X138211471Y-69701579D01*
X138592015Y-69544342D01*
X138883419Y-69253446D01*
X138889192Y-69239542D01*
X139056235Y-69351157D01*
X139304000Y-69400440D01*
X139704000Y-69400440D01*
X139720565Y-69397145D01*
X139866599Y-69615701D01*
X140113161Y-69780448D01*
X140404000Y-69838300D01*
X140645498Y-69838300D01*
X142528234Y-71721036D01*
X142483267Y-71829330D01*
X142482735Y-72439991D01*
X142715932Y-73004371D01*
X143147357Y-73436551D01*
X143168194Y-73445203D01*
X143117446Y-73595841D01*
X144018000Y-74496395D01*
X144918554Y-73595841D01*
X144867965Y-73445673D01*
X144886371Y-73438068D01*
X145318551Y-73006643D01*
X145552733Y-72442670D01*
X145553265Y-71832009D01*
X145320068Y-71267629D01*
X144918818Y-70865677D01*
X145318551Y-70466643D01*
X145552733Y-69902670D01*
X145553265Y-69292009D01*
X145320068Y-68727629D01*
X144918818Y-68325677D01*
X145318551Y-67926643D01*
X145552733Y-67362670D01*
X145553265Y-66752009D01*
X145320068Y-66187629D01*
X144918818Y-65785677D01*
X145318551Y-65386643D01*
X145552733Y-64822670D01*
X145553265Y-64212009D01*
X145320068Y-63647629D01*
X144918818Y-63245677D01*
X145318551Y-62846643D01*
X145552733Y-62282670D01*
X145553265Y-61672009D01*
X145320068Y-61107629D01*
X144918818Y-60705677D01*
X145318551Y-60306643D01*
X145552733Y-59742670D01*
X145553265Y-59132009D01*
X145320068Y-58567629D01*
X144888643Y-58135449D01*
X144324670Y-57901267D01*
X143714009Y-57900735D01*
X143149629Y-58133932D01*
X142717449Y-58565357D01*
X142483267Y-59129330D01*
X142482735Y-59739991D01*
X142715932Y-60304371D01*
X143117182Y-60706323D01*
X142717449Y-61105357D01*
X142483267Y-61669330D01*
X142482735Y-62279991D01*
X142715932Y-62844371D01*
X143117182Y-63246323D01*
X142717449Y-63645357D01*
X142483267Y-64209330D01*
X142482735Y-64819991D01*
X142715932Y-65384371D01*
X143117182Y-65786323D01*
X142717449Y-66185357D01*
X142483267Y-66749330D01*
X142483061Y-66986259D01*
X141634401Y-66137599D01*
X141387839Y-65972852D01*
X141097000Y-65915000D01*
X141058530Y-65915000D01*
X140851765Y-65776843D01*
X140604000Y-65727560D01*
X140204000Y-65727560D01*
X139956235Y-65776843D01*
X139954000Y-65778336D01*
X139951765Y-65776843D01*
X139704000Y-65727560D01*
X139304000Y-65727560D01*
X139138902Y-65760400D01*
X137645201Y-64266699D01*
X137398639Y-64101952D01*
X137107800Y-64044100D01*
X123377400Y-64044100D01*
X123086560Y-64101952D01*
X122839999Y-64266699D01*
X122693089Y-64413609D01*
X122693265Y-64212009D01*
X122460068Y-63647629D01*
X122058818Y-63245677D01*
X122458551Y-62846643D01*
X122692733Y-62282670D01*
X122693265Y-61672009D01*
X122460068Y-61107629D01*
X122058818Y-60705677D01*
X122458551Y-60306643D01*
X122692733Y-59742670D01*
X122693265Y-59132009D01*
X122460068Y-58567629D01*
X122028643Y-58135449D01*
X121464670Y-57901267D01*
X120854009Y-57900735D01*
X120289629Y-58133932D01*
X119857449Y-58565357D01*
X119623267Y-59129330D01*
X119622735Y-59739991D01*
X119855932Y-60304371D01*
X120257182Y-60706323D01*
X119857449Y-61105357D01*
X119623267Y-61669330D01*
X119622735Y-62279991D01*
X119855932Y-62844371D01*
X120257182Y-63246323D01*
X119857449Y-63645357D01*
X119623267Y-64209330D01*
X119622735Y-64819991D01*
X119855932Y-65384371D01*
X119905286Y-65433812D01*
X119087099Y-66251999D01*
X118922352Y-66498561D01*
X118864500Y-66789400D01*
X118864500Y-77470000D01*
X117729000Y-77470000D01*
X117729000Y-52324000D01*
X147880000Y-52324000D01*
X147880000Y-77470000D01*
G36*
X127335000Y-80309691D02*
X127335000Y-80900250D01*
X127493750Y-81059000D01*
X128143000Y-81059000D01*
X128143000Y-81039000D01*
X128397000Y-81039000D01*
X128397000Y-81059000D01*
X128417000Y-81059000D01*
X128417000Y-81313000D01*
X128397000Y-81313000D01*
X128397000Y-82412250D01*
X128555750Y-82571000D01*
X128696310Y-82571000D01*
X128780000Y-82536334D01*
X128780000Y-83413970D01*
X128641843Y-83620735D01*
X128592560Y-83868500D01*
X128592560Y-84268500D01*
X128641843Y-84516265D01*
X128643336Y-84518500D01*
X128641843Y-84520735D01*
X128592560Y-84768500D01*
X128592560Y-85168500D01*
X128641843Y-85416265D01*
X128782191Y-85626309D01*
X128992235Y-85766657D01*
X129240000Y-85815940D01*
X129774966Y-85815940D01*
X129774821Y-85981971D01*
X129932058Y-86362515D01*
X130094978Y-86525720D01*
X129752698Y-86868000D01*
X121539000Y-86868000D01*
X121539000Y-81471750D01*
X127335000Y-81471750D01*
X127335000Y-82062309D01*
X127431673Y-82295698D01*
X127610301Y-82474327D01*
X127843690Y-82571000D01*
X127984250Y-82571000D01*
X128143000Y-82412250D01*
X128143000Y-81313000D01*
X127493750Y-81313000D01*
X127335000Y-81471750D01*
X121539000Y-81471750D01*
X121539000Y-80264000D01*
X127353926Y-80264000D01*
X127335000Y-80309691D01*
X127335000Y-80309691D01*
G37*
X127335000Y-80309691D02*
X127335000Y-80900250D01*
X127493750Y-81059000D01*
X128143000Y-81059000D01*
X128143000Y-81039000D01*
X128397000Y-81039000D01*
X128397000Y-81059000D01*
X128417000Y-81059000D01*
X128417000Y-81313000D01*
X128397000Y-81313000D01*
X128397000Y-82412250D01*
X128555750Y-82571000D01*
X128696310Y-82571000D01*
X128780000Y-82536334D01*
X128780000Y-83413970D01*
X128641843Y-83620735D01*
X128592560Y-83868500D01*
X128592560Y-84268500D01*
X128641843Y-84516265D01*
X128643336Y-84518500D01*
X128641843Y-84520735D01*
X128592560Y-84768500D01*
X128592560Y-85168500D01*
X128641843Y-85416265D01*
X128782191Y-85626309D01*
X128992235Y-85766657D01*
X129240000Y-85815940D01*
X129774966Y-85815940D01*
X129774821Y-85981971D01*
X129932058Y-86362515D01*
X130094978Y-86525720D01*
X129752698Y-86868000D01*
X121539000Y-86868000D01*
X121539000Y-81471750D01*
X127335000Y-81471750D01*
X127335000Y-82062309D01*
X127431673Y-82295698D01*
X127610301Y-82474327D01*
X127843690Y-82571000D01*
X127984250Y-82571000D01*
X128143000Y-82412250D01*
X128143000Y-81313000D01*
X127493750Y-81313000D01*
X127335000Y-81471750D01*
X121539000Y-81471750D01*
X121539000Y-80264000D01*
X127353926Y-80264000D01*
X127335000Y-80309691D01*
G36*
X138345000Y-83187000D02*
X138365000Y-83187000D01*
X138365000Y-83437000D01*
X138345000Y-83437000D01*
X138345000Y-84038250D01*
X138503750Y-84197000D01*
X138644309Y-84197000D01*
X138877698Y-84100327D01*
X139056327Y-83921699D01*
X139065000Y-83900761D01*
X139065000Y-86868000D01*
X136650000Y-86868000D01*
X136650000Y-85623030D01*
X136788157Y-85416265D01*
X136837440Y-85168500D01*
X136837440Y-84768500D01*
X136788157Y-84520735D01*
X136786664Y-84518500D01*
X136788157Y-84516265D01*
X136837440Y-84268500D01*
X136837440Y-84209440D01*
X137418000Y-84209440D01*
X137665765Y-84160157D01*
X137679916Y-84150701D01*
X137791691Y-84197000D01*
X137932250Y-84197000D01*
X138091000Y-84038250D01*
X138091000Y-83437000D01*
X138071000Y-83437000D01*
X138071000Y-83187000D01*
X138091000Y-83187000D01*
X138091000Y-83165000D01*
X138345000Y-83165000D01*
X138345000Y-83187000D01*
X138345000Y-83187000D01*
G37*
X138345000Y-83187000D02*
X138365000Y-83187000D01*
X138365000Y-83437000D01*
X138345000Y-83437000D01*
X138345000Y-84038250D01*
X138503750Y-84197000D01*
X138644309Y-84197000D01*
X138877698Y-84100327D01*
X139056327Y-83921699D01*
X139065000Y-83900761D01*
X139065000Y-86868000D01*
X136650000Y-86868000D01*
X136650000Y-85623030D01*
X136788157Y-85416265D01*
X136837440Y-85168500D01*
X136837440Y-84768500D01*
X136788157Y-84520735D01*
X136786664Y-84518500D01*
X136788157Y-84516265D01*
X136837440Y-84268500D01*
X136837440Y-84209440D01*
X137418000Y-84209440D01*
X137665765Y-84160157D01*
X137679916Y-84150701D01*
X137791691Y-84197000D01*
X137932250Y-84197000D01*
X138091000Y-84038250D01*
X138091000Y-83437000D01*
X138071000Y-83437000D01*
X138071000Y-83187000D01*
X138091000Y-83187000D01*
X138091000Y-83165000D01*
X138345000Y-83165000D01*
X138345000Y-83187000D01*
M02*
