M48
INCH,TZ
T1C0.016
T2C0.031
T3C0.040
%
G90
G05
T1
X46850Y-20900
X46850Y-21884
X47834Y-20900
X47834Y-21884
X48150Y-31850
X48150Y-32342
X48150Y-32834
X48150Y-33326
X48150Y-33819
X48819Y-20900
X48819Y-21884
X49803Y-20900
X49803Y-21884
X50500Y-29174
X50787Y-20900
X50787Y-21884
X51500Y-33770
X51553Y-29182
X51771Y-20900
X51771Y-21884
X52345Y-33948
X52756Y-20900
X52756Y-21884
X53740Y-20900
X53740Y-21884
X54333Y-27034
X54400Y-33250
X54400Y-33742
X54484Y-32111
X54515Y-30074
X54724Y-20900
X54724Y-21884
X55708Y-20900
X55708Y-21884
X56693Y-20900
X56693Y-21884
X57677Y-20900
X57677Y-21884
T2
X48713Y-35350
X49501Y-35350
X50288Y-35350
X51076Y-35350
X51863Y-35350
X52650Y-35350
X53438Y-35350
X54225Y-35350
X55013Y-35350
X55800Y-35350
T3
X47700Y-23400
X47700Y-24400
X47700Y-25400
X47700Y-26400
X47700Y-27400
X47700Y-28400
X47700Y-29400
X47700Y-30400
X56700Y-23400
X56700Y-24400
X56700Y-25400
X56700Y-26400
X56700Y-27400
X56700Y-28400
X56700Y-29400
X56700Y-30400
T0
M30
