G04 #@! TF.GenerationSoftware,KiCad,Pcbnew,(2017-09-19 revision dddaa7e69)-makepkg*
G04 #@! TF.CreationDate,2017-11-22T21:12:14+10:30*
G04 #@! TF.ProjectId,din_isolated_SPI,64696E5F69736F6C617465645F535049,rev?*
G04 #@! TF.SameCoordinates,Original*
G04 #@! TF.FileFunction,Copper,L2,Bot,Signal*
G04 #@! TF.FilePolarity,Positive*
%FSLAX46Y46*%
G04 Gerber Fmt 4.6, Leading zero omitted, Abs format (unit mm)*
G04 Created by KiCad (PCBNEW (2017-09-19 revision dddaa7e69)-makepkg) date 11/22/17 21:12:14*
%MOMM*%
%LPD*%
G01*
G04 APERTURE LIST*
%ADD10C,1.500000*%
%ADD11R,1.500000X1.500000*%
%ADD12C,1.800000*%
%ADD13C,0.800000*%
%ADD14C,0.250000*%
%ADD15C,0.500000*%
%ADD16C,0.254000*%
G04 APERTURE END LIST*
D10*
X123732000Y-89789000D03*
X125732000Y-89789000D03*
X127732000Y-89789000D03*
X129732000Y-89789000D03*
X131732000Y-89789000D03*
X133732000Y-89789000D03*
X135732000Y-89789000D03*
X137732000Y-89789000D03*
X139732000Y-89789000D03*
D11*
X141732000Y-89789000D03*
D12*
X144018000Y-59436000D03*
X144018000Y-61976000D03*
X144018000Y-64516000D03*
X144018000Y-67056000D03*
X144018000Y-69596000D03*
X144018000Y-72136000D03*
X144018000Y-74676000D03*
X144018000Y-77216000D03*
X121158000Y-77216000D03*
X121158000Y-74676000D03*
X121158000Y-72136000D03*
X121158000Y-69596000D03*
X121158000Y-67056000D03*
X121158000Y-64516000D03*
X121158000Y-61976000D03*
X121158000Y-59436000D03*
D13*
X130810000Y-85777000D03*
X138006500Y-68666400D03*
X130944100Y-74122700D03*
X138389500Y-81560900D03*
X132956300Y-86227200D03*
X146499000Y-55586000D03*
X143999000Y-55586000D03*
X141499000Y-55586000D03*
X138999000Y-55586000D03*
X136499000Y-55586000D03*
X133999000Y-55586000D03*
X131499000Y-55586000D03*
X128999000Y-55586000D03*
X126499000Y-55586000D03*
X123999000Y-55586000D03*
X121499000Y-55586000D03*
X118999000Y-55586000D03*
X146499000Y-53086000D03*
X143999000Y-53086000D03*
X141499000Y-53086000D03*
X138999000Y-53086000D03*
X136499000Y-53086000D03*
X133999000Y-53086000D03*
X131499000Y-53086000D03*
X128999000Y-53086000D03*
X126499000Y-53086000D03*
X123999000Y-53086000D03*
X121499000Y-53086000D03*
X118999000Y-53086000D03*
X128270000Y-74102900D03*
X138176000Y-85705010D03*
X122301000Y-85899000D03*
X122301000Y-84649000D03*
X122301000Y-83399000D03*
X122301000Y-82149000D03*
X122301000Y-80899000D03*
X138176000Y-84455010D03*
X138466900Y-76388700D03*
D14*
X131085100Y-85501900D02*
X130810000Y-85777000D01*
X133444900Y-85501900D02*
X131085100Y-85501900D01*
X137732000Y-89789000D02*
X133444900Y-85501900D01*
X132550200Y-74122700D02*
X130944100Y-74122700D01*
X138006500Y-68666400D02*
X132550200Y-74122700D01*
D15*
X131823800Y-81560900D02*
X138389500Y-81560900D01*
X123732000Y-89652700D02*
X131823800Y-81560900D01*
X123732000Y-89789000D02*
X123732000Y-89652700D01*
D14*
X132956300Y-87013300D02*
X132956300Y-86227200D01*
X135732000Y-89789000D02*
X132956300Y-87013300D01*
D15*
X139732000Y-88728340D02*
X139732000Y-89789000D01*
X141232001Y-88288999D02*
X140171341Y-88288999D01*
X140171341Y-88288999D02*
X139732000Y-88728340D01*
X139732000Y-75220900D02*
X142367000Y-77855900D01*
X142367000Y-77855900D02*
X142367000Y-87154000D01*
X142367000Y-87154000D02*
X141232001Y-88288999D01*
X140276900Y-74676000D02*
X139732000Y-75220900D01*
X144018000Y-74676000D02*
X140276900Y-74676000D01*
X132117700Y-75220900D02*
X139732000Y-75220900D01*
X132016300Y-75322300D02*
X132117700Y-75220900D01*
X129489400Y-75322300D02*
X132016300Y-75322300D01*
X128270000Y-74102900D02*
X129489400Y-75322300D01*
X130442390Y-84455010D02*
X137610315Y-84455010D01*
X130442390Y-84455010D02*
X138176000Y-84455010D01*
X125732000Y-89165400D02*
X130442390Y-84455010D01*
X125732000Y-89789000D02*
X125732000Y-89165400D01*
X121985300Y-76388700D02*
X138466900Y-76388700D01*
X121158000Y-77216000D02*
X121985300Y-76388700D01*
D16*
G36*
X139065000Y-80772589D02*
X138976546Y-80683981D01*
X138596277Y-80526080D01*
X138184529Y-80525721D01*
X137821067Y-80675900D01*
X131823800Y-80675900D01*
X131485125Y-80743267D01*
X131198010Y-80935110D01*
X131198008Y-80935113D01*
X125265120Y-86868000D01*
X121539000Y-86868000D01*
X121539000Y-80264000D01*
X139065000Y-80264000D01*
X139065000Y-80772589D01*
X139065000Y-80772589D01*
G37*
X139065000Y-80772589D02*
X138976546Y-80683981D01*
X138596277Y-80526080D01*
X138184529Y-80525721D01*
X137821067Y-80675900D01*
X131823800Y-80675900D01*
X131485125Y-80743267D01*
X131198010Y-80935110D01*
X131198008Y-80935113D01*
X125265120Y-86868000D01*
X121539000Y-86868000D01*
X121539000Y-80264000D01*
X139065000Y-80264000D01*
X139065000Y-80772589D01*
G36*
X139065000Y-86868000D02*
X135885802Y-86868000D01*
X133982301Y-84964499D01*
X133735739Y-84799752D01*
X133444900Y-84741900D01*
X131085100Y-84741900D01*
X131038450Y-84751179D01*
X131016777Y-84742180D01*
X130605029Y-84741821D01*
X130224485Y-84899058D01*
X129933081Y-85189954D01*
X129775180Y-85570223D01*
X129774821Y-85981971D01*
X129932058Y-86362515D01*
X130222954Y-86653919D01*
X130603223Y-86811820D01*
X131014971Y-86812179D01*
X131395515Y-86654942D01*
X131686919Y-86364046D01*
X131729334Y-86261900D01*
X131921269Y-86261900D01*
X131921121Y-86432171D01*
X132078358Y-86812715D01*
X132133547Y-86868000D01*
X127768280Y-86868000D01*
X132190379Y-82445900D01*
X137821915Y-82445900D01*
X138182723Y-82595720D01*
X138594471Y-82596079D01*
X138975015Y-82438842D01*
X139065000Y-82349014D01*
X139065000Y-86868000D01*
X139065000Y-86868000D01*
G37*
X139065000Y-86868000D02*
X135885802Y-86868000D01*
X133982301Y-84964499D01*
X133735739Y-84799752D01*
X133444900Y-84741900D01*
X131085100Y-84741900D01*
X131038450Y-84751179D01*
X131016777Y-84742180D01*
X130605029Y-84741821D01*
X130224485Y-84899058D01*
X129933081Y-85189954D01*
X129775180Y-85570223D01*
X129774821Y-85981971D01*
X129932058Y-86362515D01*
X130222954Y-86653919D01*
X130603223Y-86811820D01*
X131014971Y-86812179D01*
X131395515Y-86654942D01*
X131686919Y-86364046D01*
X131729334Y-86261900D01*
X131921269Y-86261900D01*
X131921121Y-86432171D01*
X132078358Y-86812715D01*
X132133547Y-86868000D01*
X127768280Y-86868000D01*
X132190379Y-82445900D01*
X137821915Y-82445900D01*
X138182723Y-82595720D01*
X138594471Y-82596079D01*
X138975015Y-82438842D01*
X139065000Y-82349014D01*
X139065000Y-86868000D01*
G36*
X147880000Y-77470000D02*
X145552779Y-77470000D01*
X145553265Y-76912009D01*
X145320068Y-76347629D01*
X144888643Y-75915449D01*
X144867806Y-75906797D01*
X144918554Y-75756159D01*
X144018000Y-74855605D01*
X143117446Y-75756159D01*
X143168035Y-75906327D01*
X143149629Y-75913932D01*
X142717449Y-76345357D01*
X142483267Y-76909330D01*
X142482779Y-77470000D01*
X139140000Y-77470000D01*
X139091740Y-77227385D01*
X139343819Y-76975746D01*
X139501720Y-76595477D01*
X139502079Y-76183729D01*
X139344842Y-75803185D01*
X139053946Y-75511781D01*
X138673677Y-75353880D01*
X138261929Y-75353521D01*
X137898467Y-75503700D01*
X122476382Y-75503700D01*
X122692733Y-74982670D01*
X122693265Y-74372009D01*
X122674945Y-74327671D01*
X129908921Y-74327671D01*
X130066158Y-74708215D01*
X130357054Y-74999619D01*
X130737323Y-75157520D01*
X131149071Y-75157879D01*
X131529615Y-75000642D01*
X131647763Y-74882700D01*
X132550200Y-74882700D01*
X132841039Y-74824848D01*
X133087601Y-74660101D01*
X133312366Y-74435336D01*
X142471542Y-74435336D01*
X142497161Y-75045460D01*
X142681357Y-75490148D01*
X142937841Y-75576554D01*
X143838395Y-74676000D01*
X144197605Y-74676000D01*
X145098159Y-75576554D01*
X145354643Y-75490148D01*
X145564458Y-74916664D01*
X145538839Y-74306540D01*
X145354643Y-73861852D01*
X145098159Y-73775446D01*
X144197605Y-74676000D01*
X143838395Y-74676000D01*
X142937841Y-73775446D01*
X142681357Y-73861852D01*
X142471542Y-74435336D01*
X133312366Y-74435336D01*
X138046267Y-69701435D01*
X138211471Y-69701579D01*
X138592015Y-69544342D01*
X138883419Y-69253446D01*
X139041320Y-68873177D01*
X139041679Y-68461429D01*
X138884442Y-68080885D01*
X138593546Y-67789481D01*
X138213277Y-67631580D01*
X137801529Y-67631221D01*
X137420985Y-67788458D01*
X137129581Y-68079354D01*
X136971680Y-68459623D01*
X136971534Y-68626564D01*
X132235398Y-73362700D01*
X131647861Y-73362700D01*
X131531146Y-73245781D01*
X131150877Y-73087880D01*
X130739129Y-73087521D01*
X130358585Y-73244758D01*
X130067181Y-73535654D01*
X129909280Y-73915923D01*
X129908921Y-74327671D01*
X122674945Y-74327671D01*
X122460068Y-73807629D01*
X122058818Y-73405677D01*
X122458551Y-73006643D01*
X122692733Y-72442670D01*
X122693265Y-71832009D01*
X122460068Y-71267629D01*
X122058818Y-70865677D01*
X122458551Y-70466643D01*
X122692733Y-69902670D01*
X122693265Y-69292009D01*
X122460068Y-68727629D01*
X122058818Y-68325677D01*
X122458551Y-67926643D01*
X122692733Y-67362670D01*
X122693265Y-66752009D01*
X122460068Y-66187629D01*
X122058818Y-65785677D01*
X122458551Y-65386643D01*
X122692733Y-64822670D01*
X122693265Y-64212009D01*
X122460068Y-63647629D01*
X122058818Y-63245677D01*
X122458551Y-62846643D01*
X122692733Y-62282670D01*
X122693265Y-61672009D01*
X122460068Y-61107629D01*
X122058818Y-60705677D01*
X122458551Y-60306643D01*
X122692733Y-59742670D01*
X122692735Y-59739991D01*
X142482735Y-59739991D01*
X142715932Y-60304371D01*
X143117182Y-60706323D01*
X142717449Y-61105357D01*
X142483267Y-61669330D01*
X142482735Y-62279991D01*
X142715932Y-62844371D01*
X143117182Y-63246323D01*
X142717449Y-63645357D01*
X142483267Y-64209330D01*
X142482735Y-64819991D01*
X142715932Y-65384371D01*
X143117182Y-65786323D01*
X142717449Y-66185357D01*
X142483267Y-66749330D01*
X142482735Y-67359991D01*
X142715932Y-67924371D01*
X143117182Y-68326323D01*
X142717449Y-68725357D01*
X142483267Y-69289330D01*
X142482735Y-69899991D01*
X142715932Y-70464371D01*
X143117182Y-70866323D01*
X142717449Y-71265357D01*
X142483267Y-71829330D01*
X142482735Y-72439991D01*
X142715932Y-73004371D01*
X143147357Y-73436551D01*
X143168194Y-73445203D01*
X143117446Y-73595841D01*
X144018000Y-74496395D01*
X144918554Y-73595841D01*
X144867965Y-73445673D01*
X144886371Y-73438068D01*
X145318551Y-73006643D01*
X145552733Y-72442670D01*
X145553265Y-71832009D01*
X145320068Y-71267629D01*
X144918818Y-70865677D01*
X145318551Y-70466643D01*
X145552733Y-69902670D01*
X145553265Y-69292009D01*
X145320068Y-68727629D01*
X144918818Y-68325677D01*
X145318551Y-67926643D01*
X145552733Y-67362670D01*
X145553265Y-66752009D01*
X145320068Y-66187629D01*
X144918818Y-65785677D01*
X145318551Y-65386643D01*
X145552733Y-64822670D01*
X145553265Y-64212009D01*
X145320068Y-63647629D01*
X144918818Y-63245677D01*
X145318551Y-62846643D01*
X145552733Y-62282670D01*
X145553265Y-61672009D01*
X145320068Y-61107629D01*
X144918818Y-60705677D01*
X145318551Y-60306643D01*
X145552733Y-59742670D01*
X145553265Y-59132009D01*
X145320068Y-58567629D01*
X144888643Y-58135449D01*
X144324670Y-57901267D01*
X143714009Y-57900735D01*
X143149629Y-58133932D01*
X142717449Y-58565357D01*
X142483267Y-59129330D01*
X142482735Y-59739991D01*
X122692735Y-59739991D01*
X122693265Y-59132009D01*
X122460068Y-58567629D01*
X122028643Y-58135449D01*
X121464670Y-57901267D01*
X120854009Y-57900735D01*
X120289629Y-58133932D01*
X119857449Y-58565357D01*
X119623267Y-59129330D01*
X119622735Y-59739991D01*
X119855932Y-60304371D01*
X120257182Y-60706323D01*
X119857449Y-61105357D01*
X119623267Y-61669330D01*
X119622735Y-62279991D01*
X119855932Y-62844371D01*
X120257182Y-63246323D01*
X119857449Y-63645357D01*
X119623267Y-64209330D01*
X119622735Y-64819991D01*
X119855932Y-65384371D01*
X120257182Y-65786323D01*
X119857449Y-66185357D01*
X119623267Y-66749330D01*
X119622735Y-67359991D01*
X119855932Y-67924371D01*
X120257182Y-68326323D01*
X119857449Y-68725357D01*
X119623267Y-69289330D01*
X119622735Y-69899991D01*
X119855932Y-70464371D01*
X120257182Y-70866323D01*
X119857449Y-71265357D01*
X119623267Y-71829330D01*
X119622735Y-72439991D01*
X119855932Y-73004371D01*
X120257182Y-73406323D01*
X119857449Y-73805357D01*
X119623267Y-74369330D01*
X119622735Y-74979991D01*
X119855932Y-75544371D01*
X120257182Y-75946323D01*
X119857449Y-76345357D01*
X119623267Y-76909330D01*
X119622779Y-77470000D01*
X117729000Y-77470000D01*
X117729000Y-52324000D01*
X147880000Y-52324000D01*
X147880000Y-77470000D01*
X147880000Y-77470000D01*
G37*
X147880000Y-77470000D02*
X145552779Y-77470000D01*
X145553265Y-76912009D01*
X145320068Y-76347629D01*
X144888643Y-75915449D01*
X144867806Y-75906797D01*
X144918554Y-75756159D01*
X144018000Y-74855605D01*
X143117446Y-75756159D01*
X143168035Y-75906327D01*
X143149629Y-75913932D01*
X142717449Y-76345357D01*
X142483267Y-76909330D01*
X142482779Y-77470000D01*
X139140000Y-77470000D01*
X139091740Y-77227385D01*
X139343819Y-76975746D01*
X139501720Y-76595477D01*
X139502079Y-76183729D01*
X139344842Y-75803185D01*
X139053946Y-75511781D01*
X138673677Y-75353880D01*
X138261929Y-75353521D01*
X137898467Y-75503700D01*
X122476382Y-75503700D01*
X122692733Y-74982670D01*
X122693265Y-74372009D01*
X122674945Y-74327671D01*
X129908921Y-74327671D01*
X130066158Y-74708215D01*
X130357054Y-74999619D01*
X130737323Y-75157520D01*
X131149071Y-75157879D01*
X131529615Y-75000642D01*
X131647763Y-74882700D01*
X132550200Y-74882700D01*
X132841039Y-74824848D01*
X133087601Y-74660101D01*
X133312366Y-74435336D01*
X142471542Y-74435336D01*
X142497161Y-75045460D01*
X142681357Y-75490148D01*
X142937841Y-75576554D01*
X143838395Y-74676000D01*
X144197605Y-74676000D01*
X145098159Y-75576554D01*
X145354643Y-75490148D01*
X145564458Y-74916664D01*
X145538839Y-74306540D01*
X145354643Y-73861852D01*
X145098159Y-73775446D01*
X144197605Y-74676000D01*
X143838395Y-74676000D01*
X142937841Y-73775446D01*
X142681357Y-73861852D01*
X142471542Y-74435336D01*
X133312366Y-74435336D01*
X138046267Y-69701435D01*
X138211471Y-69701579D01*
X138592015Y-69544342D01*
X138883419Y-69253446D01*
X139041320Y-68873177D01*
X139041679Y-68461429D01*
X138884442Y-68080885D01*
X138593546Y-67789481D01*
X138213277Y-67631580D01*
X137801529Y-67631221D01*
X137420985Y-67788458D01*
X137129581Y-68079354D01*
X136971680Y-68459623D01*
X136971534Y-68626564D01*
X132235398Y-73362700D01*
X131647861Y-73362700D01*
X131531146Y-73245781D01*
X131150877Y-73087880D01*
X130739129Y-73087521D01*
X130358585Y-73244758D01*
X130067181Y-73535654D01*
X129909280Y-73915923D01*
X129908921Y-74327671D01*
X122674945Y-74327671D01*
X122460068Y-73807629D01*
X122058818Y-73405677D01*
X122458551Y-73006643D01*
X122692733Y-72442670D01*
X122693265Y-71832009D01*
X122460068Y-71267629D01*
X122058818Y-70865677D01*
X122458551Y-70466643D01*
X122692733Y-69902670D01*
X122693265Y-69292009D01*
X122460068Y-68727629D01*
X122058818Y-68325677D01*
X122458551Y-67926643D01*
X122692733Y-67362670D01*
X122693265Y-66752009D01*
X122460068Y-66187629D01*
X122058818Y-65785677D01*
X122458551Y-65386643D01*
X122692733Y-64822670D01*
X122693265Y-64212009D01*
X122460068Y-63647629D01*
X122058818Y-63245677D01*
X122458551Y-62846643D01*
X122692733Y-62282670D01*
X122693265Y-61672009D01*
X122460068Y-61107629D01*
X122058818Y-60705677D01*
X122458551Y-60306643D01*
X122692733Y-59742670D01*
X122692735Y-59739991D01*
X142482735Y-59739991D01*
X142715932Y-60304371D01*
X143117182Y-60706323D01*
X142717449Y-61105357D01*
X142483267Y-61669330D01*
X142482735Y-62279991D01*
X142715932Y-62844371D01*
X143117182Y-63246323D01*
X142717449Y-63645357D01*
X142483267Y-64209330D01*
X142482735Y-64819991D01*
X142715932Y-65384371D01*
X143117182Y-65786323D01*
X142717449Y-66185357D01*
X142483267Y-66749330D01*
X142482735Y-67359991D01*
X142715932Y-67924371D01*
X143117182Y-68326323D01*
X142717449Y-68725357D01*
X142483267Y-69289330D01*
X142482735Y-69899991D01*
X142715932Y-70464371D01*
X143117182Y-70866323D01*
X142717449Y-71265357D01*
X142483267Y-71829330D01*
X142482735Y-72439991D01*
X142715932Y-73004371D01*
X143147357Y-73436551D01*
X143168194Y-73445203D01*
X143117446Y-73595841D01*
X144018000Y-74496395D01*
X144918554Y-73595841D01*
X144867965Y-73445673D01*
X144886371Y-73438068D01*
X145318551Y-73006643D01*
X145552733Y-72442670D01*
X145553265Y-71832009D01*
X145320068Y-71267629D01*
X144918818Y-70865677D01*
X145318551Y-70466643D01*
X145552733Y-69902670D01*
X145553265Y-69292009D01*
X145320068Y-68727629D01*
X144918818Y-68325677D01*
X145318551Y-67926643D01*
X145552733Y-67362670D01*
X145553265Y-66752009D01*
X145320068Y-66187629D01*
X144918818Y-65785677D01*
X145318551Y-65386643D01*
X145552733Y-64822670D01*
X145553265Y-64212009D01*
X145320068Y-63647629D01*
X144918818Y-63245677D01*
X145318551Y-62846643D01*
X145552733Y-62282670D01*
X145553265Y-61672009D01*
X145320068Y-61107629D01*
X144918818Y-60705677D01*
X145318551Y-60306643D01*
X145552733Y-59742670D01*
X145553265Y-59132009D01*
X145320068Y-58567629D01*
X144888643Y-58135449D01*
X144324670Y-57901267D01*
X143714009Y-57900735D01*
X143149629Y-58133932D01*
X142717449Y-58565357D01*
X142483267Y-59129330D01*
X142482735Y-59739991D01*
X122692735Y-59739991D01*
X122693265Y-59132009D01*
X122460068Y-58567629D01*
X122028643Y-58135449D01*
X121464670Y-57901267D01*
X120854009Y-57900735D01*
X120289629Y-58133932D01*
X119857449Y-58565357D01*
X119623267Y-59129330D01*
X119622735Y-59739991D01*
X119855932Y-60304371D01*
X120257182Y-60706323D01*
X119857449Y-61105357D01*
X119623267Y-61669330D01*
X119622735Y-62279991D01*
X119855932Y-62844371D01*
X120257182Y-63246323D01*
X119857449Y-63645357D01*
X119623267Y-64209330D01*
X119622735Y-64819991D01*
X119855932Y-65384371D01*
X120257182Y-65786323D01*
X119857449Y-66185357D01*
X119623267Y-66749330D01*
X119622735Y-67359991D01*
X119855932Y-67924371D01*
X120257182Y-68326323D01*
X119857449Y-68725357D01*
X119623267Y-69289330D01*
X119622735Y-69899991D01*
X119855932Y-70464371D01*
X120257182Y-70866323D01*
X119857449Y-71265357D01*
X119623267Y-71829330D01*
X119622735Y-72439991D01*
X119855932Y-73004371D01*
X120257182Y-73406323D01*
X119857449Y-73805357D01*
X119623267Y-74369330D01*
X119622735Y-74979991D01*
X119855932Y-75544371D01*
X120257182Y-75946323D01*
X119857449Y-76345357D01*
X119623267Y-76909330D01*
X119622779Y-77470000D01*
X117729000Y-77470000D01*
X117729000Y-52324000D01*
X147880000Y-52324000D01*
X147880000Y-77470000D01*
M02*
