G04 #@! TF.GenerationSoftware,KiCad,Pcbnew,(2017-09-19 revision dddaa7e69)-makepkg*
G04 #@! TF.CreationDate,2017-11-22T19:31:19+10:30*
G04 #@! TF.ProjectId,din_isolated_SPI,64696E5F69736F6C617465645F535049,rev?*
G04 #@! TF.SameCoordinates,Original*
G04 #@! TF.FileFunction,Soldermask,Top*
G04 #@! TF.FilePolarity,Negative*
%FSLAX46Y46*%
G04 Gerber Fmt 4.6, Leading zero omitted, Abs format (unit mm)*
G04 Created by KiCad (PCBNEW (2017-09-19 revision dddaa7e69)-makepkg) date 11/22/17 19:31:19*
%MOMM*%
%LPD*%
G01*
G04 APERTURE LIST*
%ADD10R,1.000000X1.900000*%
%ADD11R,1.000000X0.900000*%
%ADD12R,0.800000X1.000000*%
%ADD13R,1.000000X0.800000*%
%ADD14C,1.900000*%
%ADD15R,1.900000X1.900000*%
%ADD16C,2.200000*%
G04 APERTURE END LIST*
D10*
X137160000Y-81186000D03*
X135890000Y-81186000D03*
X134620000Y-81186000D03*
X133350000Y-81186000D03*
X132080000Y-81186000D03*
X130810000Y-81186000D03*
X129540000Y-81186000D03*
X128270000Y-81186000D03*
X128270000Y-75786000D03*
X129540000Y-75786000D03*
X130810000Y-75786000D03*
X132080000Y-75786000D03*
X133350000Y-75786000D03*
X134620000Y-75786000D03*
X135890000Y-75786000D03*
X137160000Y-75786000D03*
D11*
X137182000Y-73787000D03*
X138282000Y-73787000D03*
X138218000Y-83312000D03*
X137118000Y-83312000D03*
D12*
X125736000Y-65468500D03*
X124836000Y-65468500D03*
X124836000Y-68558800D03*
X125736000Y-68558800D03*
X125736000Y-70104000D03*
X124836000Y-70104000D03*
X140404000Y-66675000D03*
X139504000Y-66675000D03*
X139504000Y-68453000D03*
X140404000Y-68453000D03*
D13*
X135890000Y-84068500D03*
X135890000Y-84968500D03*
X134620000Y-84968500D03*
X134620000Y-84068500D03*
X133350000Y-84068500D03*
X133350000Y-84968500D03*
X132080000Y-84968500D03*
X132080000Y-84068500D03*
X130810000Y-84068500D03*
X130810000Y-84968500D03*
X129540000Y-84968500D03*
X129540000Y-84068500D03*
D12*
X124836000Y-67013700D03*
X125736000Y-67013700D03*
D14*
X123732000Y-89789000D03*
X125732000Y-89789000D03*
X127732000Y-89789000D03*
X129732000Y-89789000D03*
X131732000Y-89789000D03*
X133732000Y-89789000D03*
X135732000Y-89789000D03*
X137732000Y-89789000D03*
X139732000Y-89789000D03*
D15*
X141732000Y-89789000D03*
D16*
X144018000Y-59436000D03*
X144018000Y-61976000D03*
X144018000Y-64516000D03*
X144018000Y-67056000D03*
X144018000Y-69596000D03*
X144018000Y-72136000D03*
X144018000Y-74676000D03*
X144018000Y-77216000D03*
X121158000Y-77216000D03*
X121158000Y-74676000D03*
X121158000Y-72136000D03*
X121158000Y-69596000D03*
X121158000Y-67056000D03*
X121158000Y-64516000D03*
X121158000Y-61976000D03*
X121158000Y-59436000D03*
M02*
