G04 #@! TF.GenerationSoftware,KiCad,Pcbnew,(2017-09-19 revision dddaa7e69)-makepkg*
G04 #@! TF.CreationDate,2017-11-22T21:12:14+10:30*
G04 #@! TF.ProjectId,din_isolated_SPI,64696E5F69736F6C617465645F535049,rev?*
G04 #@! TF.SameCoordinates,Original*
G04 #@! TF.FileFunction,Legend,Top*
G04 #@! TF.FilePolarity,Positive*
%FSLAX46Y46*%
G04 Gerber Fmt 4.6, Leading zero omitted, Abs format (unit mm)*
G04 Created by KiCad (PCBNEW (2017-09-19 revision dddaa7e69)-makepkg) date 11/22/17 21:12:14*
%MOMM*%
%LPD*%
G01*
G04 APERTURE LIST*
%ADD10C,0.200000*%
%ADD11C,0.150000*%
%ADD12C,0.120000*%
%ADD13C,0.125000*%
G04 APERTURE END LIST*
D10*
X138997961Y-76394039D02*
G75*
G03X138997961Y-76394039I-567961J0D01*
G01*
X117467832Y-58655873D02*
X118113332Y-58655873D01*
X117960951Y-59853777D02*
X117694285Y-59472825D01*
X117503808Y-59853777D02*
X117503808Y-59053777D01*
X117808570Y-59053777D01*
X117884761Y-59091873D01*
X117922856Y-59129968D01*
X117960951Y-59206158D01*
X117960951Y-59320444D01*
X117922856Y-59396634D01*
X117884761Y-59434730D01*
X117808570Y-59472825D01*
X117503808Y-59472825D01*
X118113332Y-58655873D02*
X118875237Y-58655873D01*
X118265713Y-59815682D02*
X118379999Y-59853777D01*
X118570475Y-59853777D01*
X118646666Y-59815682D01*
X118684761Y-59777587D01*
X118722856Y-59701396D01*
X118722856Y-59625206D01*
X118684761Y-59549015D01*
X118646666Y-59510920D01*
X118570475Y-59472825D01*
X118418094Y-59434730D01*
X118341904Y-59396634D01*
X118303808Y-59358539D01*
X118265713Y-59282349D01*
X118265713Y-59206158D01*
X118303808Y-59129968D01*
X118341904Y-59091873D01*
X118418094Y-59053777D01*
X118608570Y-59053777D01*
X118722856Y-59091873D01*
X118875237Y-58655873D02*
X119484761Y-58655873D01*
X118951427Y-59053777D02*
X119408570Y-59053777D01*
X119179999Y-59853777D02*
X119179999Y-59053777D01*
X117808570Y-67473777D02*
X117808570Y-66673777D01*
X117999047Y-66673777D01*
X118113332Y-66711873D01*
X118189523Y-66788063D01*
X118227618Y-66864253D01*
X118265713Y-67016634D01*
X118265713Y-67130920D01*
X118227618Y-67283301D01*
X118189523Y-67359492D01*
X118113332Y-67435682D01*
X117999047Y-67473777D01*
X117808570Y-67473777D01*
X118989523Y-66673777D02*
X118608570Y-66673777D01*
X118570475Y-67054730D01*
X118608570Y-67016634D01*
X118684761Y-66978539D01*
X118875237Y-66978539D01*
X118951427Y-67016634D01*
X118989523Y-67054730D01*
X119027618Y-67130920D01*
X119027618Y-67321396D01*
X118989523Y-67397587D01*
X118951427Y-67435682D01*
X118875237Y-67473777D01*
X118684761Y-67473777D01*
X118608570Y-67435682D01*
X118570475Y-67397587D01*
X117808570Y-70013777D02*
X117808570Y-69213777D01*
X117999047Y-69213777D01*
X118113332Y-69251873D01*
X118189523Y-69328063D01*
X118227618Y-69404253D01*
X118265713Y-69556634D01*
X118265713Y-69670920D01*
X118227618Y-69823301D01*
X118189523Y-69899492D01*
X118113332Y-69975682D01*
X117999047Y-70013777D01*
X117808570Y-70013777D01*
X118951427Y-69213777D02*
X118799047Y-69213777D01*
X118722856Y-69251873D01*
X118684761Y-69289968D01*
X118608570Y-69404253D01*
X118570475Y-69556634D01*
X118570475Y-69861396D01*
X118608570Y-69937587D01*
X118646666Y-69975682D01*
X118722856Y-70013777D01*
X118875237Y-70013777D01*
X118951427Y-69975682D01*
X118989523Y-69937587D01*
X119027618Y-69861396D01*
X119027618Y-69670920D01*
X118989523Y-69594730D01*
X118951427Y-69556634D01*
X118875237Y-69518539D01*
X118722856Y-69518539D01*
X118646666Y-69556634D01*
X118608570Y-69594730D01*
X118570475Y-69670920D01*
X117827618Y-62165206D02*
X118208570Y-62165206D01*
X117751427Y-62393777D02*
X118018094Y-61593777D01*
X118284761Y-62393777D01*
X118703808Y-61593777D02*
X118779999Y-61593777D01*
X118856189Y-61631873D01*
X118894285Y-61669968D01*
X118932380Y-61746158D01*
X118970475Y-61898539D01*
X118970475Y-62089015D01*
X118932380Y-62241396D01*
X118894285Y-62317587D01*
X118856189Y-62355682D01*
X118779999Y-62393777D01*
X118703808Y-62393777D01*
X118627618Y-62355682D01*
X118589523Y-62317587D01*
X118551427Y-62241396D01*
X118513332Y-62089015D01*
X118513332Y-61898539D01*
X118551427Y-61746158D01*
X118589523Y-61669968D01*
X118627618Y-61631873D01*
X118703808Y-61593777D01*
X117808570Y-64933777D02*
X117808570Y-64133777D01*
X117999047Y-64133777D01*
X118113332Y-64171873D01*
X118189523Y-64248063D01*
X118227618Y-64324253D01*
X118265713Y-64476634D01*
X118265713Y-64590920D01*
X118227618Y-64743301D01*
X118189523Y-64819492D01*
X118113332Y-64895682D01*
X117999047Y-64933777D01*
X117808570Y-64933777D01*
X118760951Y-64133777D02*
X118837142Y-64133777D01*
X118913332Y-64171873D01*
X118951427Y-64209968D01*
X118989523Y-64286158D01*
X119027618Y-64438539D01*
X119027618Y-64629015D01*
X118989523Y-64781396D01*
X118951427Y-64857587D01*
X118913332Y-64895682D01*
X118837142Y-64933777D01*
X118760951Y-64933777D01*
X118684761Y-64895682D01*
X118646666Y-64857587D01*
X118608570Y-64781396D01*
X118570475Y-64629015D01*
X118570475Y-64438539D01*
X118608570Y-64286158D01*
X118646666Y-64209968D01*
X118684761Y-64171873D01*
X118760951Y-64133777D01*
X117808570Y-72553777D02*
X117808570Y-71753777D01*
X117999047Y-71753777D01*
X118113332Y-71791873D01*
X118189523Y-71868063D01*
X118227618Y-71944253D01*
X118265713Y-72096634D01*
X118265713Y-72210920D01*
X118227618Y-72363301D01*
X118189523Y-72439492D01*
X118113332Y-72515682D01*
X117999047Y-72553777D01*
X117808570Y-72553777D01*
X118532380Y-71753777D02*
X119065713Y-71753777D01*
X118722856Y-72553777D01*
X118989523Y-74369968D02*
X118989523Y-75169968D01*
X118799047Y-75169968D01*
X118684761Y-75131873D01*
X118608570Y-75055682D01*
X118570475Y-74979492D01*
X118532380Y-74827111D01*
X118532380Y-74712825D01*
X118570475Y-74560444D01*
X118608570Y-74484253D01*
X118684761Y-74408063D01*
X118799047Y-74369968D01*
X118989523Y-74369968D01*
X118075237Y-74827111D02*
X118151427Y-74865206D01*
X118189523Y-74903301D01*
X118227618Y-74979492D01*
X118227618Y-75017587D01*
X118189523Y-75093777D01*
X118151427Y-75131873D01*
X118075237Y-75169968D01*
X117922856Y-75169968D01*
X117846666Y-75131873D01*
X117808570Y-75093777D01*
X117770475Y-75017587D01*
X117770475Y-74979492D01*
X117808570Y-74903301D01*
X117846666Y-74865206D01*
X117922856Y-74827111D01*
X118075237Y-74827111D01*
X118151427Y-74789015D01*
X118189523Y-74750920D01*
X118227618Y-74674730D01*
X118227618Y-74522349D01*
X118189523Y-74446158D01*
X118151427Y-74408063D01*
X118075237Y-74369968D01*
X117922856Y-74369968D01*
X117846666Y-74408063D01*
X117808570Y-74446158D01*
X117770475Y-74522349D01*
X117770475Y-74674730D01*
X117808570Y-74750920D01*
X117846666Y-74789015D01*
X117922856Y-74827111D01*
X117408570Y-76833777D02*
X117903808Y-76833777D01*
X117637142Y-77138539D01*
X117751427Y-77138539D01*
X117827618Y-77176634D01*
X117865713Y-77214730D01*
X117903808Y-77290920D01*
X117903808Y-77481396D01*
X117865713Y-77557587D01*
X117827618Y-77595682D01*
X117751427Y-77633777D01*
X117522856Y-77633777D01*
X117446666Y-77595682D01*
X117408570Y-77557587D01*
X118132380Y-76833777D02*
X118399047Y-77633777D01*
X118665713Y-76833777D01*
X118856189Y-76833777D02*
X119351427Y-76833777D01*
X119084761Y-77138539D01*
X119199047Y-77138539D01*
X119275237Y-77176634D01*
X119313332Y-77214730D01*
X119351427Y-77290920D01*
X119351427Y-77481396D01*
X119313332Y-77557587D01*
X119275237Y-77595682D01*
X119199047Y-77633777D01*
X118970475Y-77633777D01*
X118894285Y-77595682D01*
X118856189Y-77557587D01*
X146202476Y-59251904D02*
X146659619Y-59251904D01*
X146431047Y-60051904D02*
X146431047Y-59251904D01*
X146850095Y-59251904D02*
X147383428Y-60051904D01*
X147383428Y-59251904D02*
X146850095Y-60051904D01*
X146678666Y-62591904D02*
X146412000Y-62210952D01*
X146221523Y-62591904D02*
X146221523Y-61791904D01*
X146526285Y-61791904D01*
X146602476Y-61830000D01*
X146640571Y-61868095D01*
X146678666Y-61944285D01*
X146678666Y-62058571D01*
X146640571Y-62134761D01*
X146602476Y-62172857D01*
X146526285Y-62210952D01*
X146221523Y-62210952D01*
X146945333Y-61791904D02*
X147478666Y-62591904D01*
X147478666Y-61791904D02*
X146945333Y-62591904D01*
X146221523Y-65131904D02*
X146221523Y-64331904D01*
X146412000Y-64331904D01*
X146526285Y-64370000D01*
X146602476Y-64446190D01*
X146640571Y-64522380D01*
X146678666Y-64674761D01*
X146678666Y-64789047D01*
X146640571Y-64941428D01*
X146602476Y-65017619D01*
X146526285Y-65093809D01*
X146412000Y-65131904D01*
X146221523Y-65131904D01*
X147440571Y-65131904D02*
X146983428Y-65131904D01*
X147212000Y-65131904D02*
X147212000Y-64331904D01*
X147135809Y-64446190D01*
X147059619Y-64522380D01*
X146983428Y-64560476D01*
X146221523Y-67671904D02*
X146221523Y-66871904D01*
X146412000Y-66871904D01*
X146526285Y-66910000D01*
X146602476Y-66986190D01*
X146640571Y-67062380D01*
X146678666Y-67214761D01*
X146678666Y-67329047D01*
X146640571Y-67481428D01*
X146602476Y-67557619D01*
X146526285Y-67633809D01*
X146412000Y-67671904D01*
X146221523Y-67671904D01*
X146983428Y-66948095D02*
X147021523Y-66910000D01*
X147097714Y-66871904D01*
X147288190Y-66871904D01*
X147364380Y-66910000D01*
X147402476Y-66948095D01*
X147440571Y-67024285D01*
X147440571Y-67100476D01*
X147402476Y-67214761D01*
X146945333Y-67671904D01*
X147440571Y-67671904D01*
X146221523Y-70211904D02*
X146221523Y-69411904D01*
X146412000Y-69411904D01*
X146526285Y-69450000D01*
X146602476Y-69526190D01*
X146640571Y-69602380D01*
X146678666Y-69754761D01*
X146678666Y-69869047D01*
X146640571Y-70021428D01*
X146602476Y-70097619D01*
X146526285Y-70173809D01*
X146412000Y-70211904D01*
X146221523Y-70211904D01*
X146945333Y-69411904D02*
X147440571Y-69411904D01*
X147173904Y-69716666D01*
X147288190Y-69716666D01*
X147364380Y-69754761D01*
X147402476Y-69792857D01*
X147440571Y-69869047D01*
X147440571Y-70059523D01*
X147402476Y-70135714D01*
X147364380Y-70173809D01*
X147288190Y-70211904D01*
X147059619Y-70211904D01*
X146983428Y-70173809D01*
X146945333Y-70135714D01*
X146221523Y-72751904D02*
X146221523Y-71951904D01*
X146412000Y-71951904D01*
X146526285Y-71990000D01*
X146602476Y-72066190D01*
X146640571Y-72142380D01*
X146678666Y-72294761D01*
X146678666Y-72409047D01*
X146640571Y-72561428D01*
X146602476Y-72637619D01*
X146526285Y-72713809D01*
X146412000Y-72751904D01*
X146221523Y-72751904D01*
X147364380Y-72218571D02*
X147364380Y-72751904D01*
X147173904Y-71913809D02*
X146983428Y-72485238D01*
X147478666Y-72485238D01*
X146659619Y-74491904D02*
X146278666Y-74491904D01*
X146240571Y-74872857D01*
X146278666Y-74834761D01*
X146354857Y-74796666D01*
X146545333Y-74796666D01*
X146621523Y-74834761D01*
X146659619Y-74872857D01*
X146697714Y-74949047D01*
X146697714Y-75139523D01*
X146659619Y-75215714D01*
X146621523Y-75253809D01*
X146545333Y-75291904D01*
X146354857Y-75291904D01*
X146278666Y-75253809D01*
X146240571Y-75215714D01*
X146926285Y-74491904D02*
X147192952Y-75291904D01*
X147459619Y-74491904D01*
X146659619Y-77031904D02*
X146278666Y-77031904D01*
X146240571Y-77412857D01*
X146278666Y-77374761D01*
X146354857Y-77336666D01*
X146545333Y-77336666D01*
X146621523Y-77374761D01*
X146659619Y-77412857D01*
X146697714Y-77489047D01*
X146697714Y-77679523D01*
X146659619Y-77755714D01*
X146621523Y-77793809D01*
X146545333Y-77831904D01*
X146354857Y-77831904D01*
X146278666Y-77793809D01*
X146240571Y-77755714D01*
X146926285Y-77031904D02*
X147192952Y-77831904D01*
X147459619Y-77031904D01*
D11*
X137765000Y-76411000D02*
X137765000Y-75036000D01*
X127640000Y-76411000D02*
X127640000Y-80561000D01*
X137790000Y-76411000D02*
X137790000Y-80561000D01*
X127640000Y-76411000D02*
X127745000Y-76411000D01*
X127640000Y-80561000D02*
X127745000Y-80561000D01*
X137790000Y-80561000D02*
X137685000Y-80561000D01*
X137790000Y-76411000D02*
X137765000Y-76411000D01*
D12*
X137982000Y-73317000D02*
X137482000Y-73317000D01*
X137482000Y-74257000D02*
X137982000Y-74257000D01*
X137418000Y-83782000D02*
X137918000Y-83782000D01*
X137918000Y-82842000D02*
X137418000Y-82842000D01*
X125036000Y-65998500D02*
X125536000Y-65998500D01*
X125536000Y-64938500D02*
X125036000Y-64938500D01*
X125536000Y-68028800D02*
X125036000Y-68028800D01*
X125036000Y-69088800D02*
X125536000Y-69088800D01*
X125036000Y-70634000D02*
X125536000Y-70634000D01*
X125536000Y-69574000D02*
X125036000Y-69574000D01*
X139704000Y-67205000D02*
X140204000Y-67205000D01*
X140204000Y-66145000D02*
X139704000Y-66145000D01*
X140204000Y-67923000D02*
X139704000Y-67923000D01*
X139704000Y-68983000D02*
X140204000Y-68983000D01*
X136420000Y-84768500D02*
X136420000Y-84268500D01*
X135360000Y-84268500D02*
X135360000Y-84768500D01*
X134090000Y-84268500D02*
X134090000Y-84768500D01*
X135150000Y-84768500D02*
X135150000Y-84268500D01*
X133880000Y-84768500D02*
X133880000Y-84268500D01*
X132820000Y-84268500D02*
X132820000Y-84768500D01*
X131550000Y-84268500D02*
X131550000Y-84768500D01*
X132610000Y-84768500D02*
X132610000Y-84268500D01*
X131340000Y-84768500D02*
X131340000Y-84268500D01*
X130280000Y-84268500D02*
X130280000Y-84768500D01*
X129010000Y-84268500D02*
X129010000Y-84768500D01*
X130070000Y-84768500D02*
X130070000Y-84268500D01*
X125536000Y-66483700D02*
X125036000Y-66483700D01*
X125036000Y-67543700D02*
X125536000Y-67543700D01*
X121982000Y-89389000D02*
X121982000Y-87489000D01*
X122382000Y-89389000D02*
X121982000Y-89389000D01*
X122382000Y-89789000D02*
X122382000Y-89389000D01*
X121982000Y-89789000D02*
X122382000Y-89789000D01*
X121982000Y-91039000D02*
X121982000Y-89789000D01*
X132732000Y-91039000D02*
X121982000Y-91039000D01*
X143482000Y-89389000D02*
X143482000Y-87489000D01*
X143082000Y-89389000D02*
X143482000Y-89389000D01*
X143082000Y-89789000D02*
X143082000Y-89389000D01*
X143482000Y-89789000D02*
X143082000Y-89789000D01*
X143482000Y-91039000D02*
X143482000Y-89789000D01*
X132732000Y-91039000D02*
X143482000Y-91039000D01*
X121582000Y-88989000D02*
X121982000Y-88989000D01*
X143882000Y-88989000D02*
X143482000Y-88989000D01*
X144132000Y-91689000D02*
X144132000Y-88939000D01*
X141382000Y-91689000D02*
X144132000Y-91689000D01*
X121582000Y-91439000D02*
X143882000Y-91439000D01*
X121582000Y-87489000D02*
X121582000Y-91439000D01*
X143882000Y-87489000D02*
X121582000Y-87489000D01*
X143882000Y-91439000D02*
X143882000Y-87489000D01*
D11*
X138938000Y-73406000D02*
X138938000Y-59436000D01*
X138938000Y-59436000D02*
X126238000Y-59436000D01*
X126238000Y-59436000D02*
X126238000Y-73406000D01*
X126238000Y-73406000D02*
X138938000Y-73406000D01*
X141478000Y-74676000D02*
X123698000Y-74676000D01*
X123698000Y-74676000D02*
X123698000Y-51816000D01*
X123698000Y-51816000D02*
X141478000Y-51816000D01*
X141478000Y-51816000D02*
X141478000Y-74676000D01*
X138898380Y-79247904D02*
X139707904Y-79247904D01*
X139803142Y-79200285D01*
X139850761Y-79152666D01*
X139898380Y-79057428D01*
X139898380Y-78866952D01*
X139850761Y-78771714D01*
X139803142Y-78724095D01*
X139707904Y-78676476D01*
X138898380Y-78676476D01*
X139898380Y-77676476D02*
X139898380Y-78247904D01*
X139898380Y-77962190D02*
X138898380Y-77962190D01*
X139041238Y-78057428D01*
X139136476Y-78152666D01*
X139184095Y-78247904D01*
D13*
X137648666Y-72695571D02*
X137624857Y-72719380D01*
X137553428Y-72743190D01*
X137505809Y-72743190D01*
X137434380Y-72719380D01*
X137386761Y-72671761D01*
X137362952Y-72624142D01*
X137339142Y-72528904D01*
X137339142Y-72457476D01*
X137362952Y-72362238D01*
X137386761Y-72314619D01*
X137434380Y-72267000D01*
X137505809Y-72243190D01*
X137553428Y-72243190D01*
X137624857Y-72267000D01*
X137648666Y-72290809D01*
X137839142Y-72290809D02*
X137862952Y-72267000D01*
X137910571Y-72243190D01*
X138029619Y-72243190D01*
X138077238Y-72267000D01*
X138101047Y-72290809D01*
X138124857Y-72338428D01*
X138124857Y-72386047D01*
X138101047Y-72457476D01*
X137815333Y-72743190D01*
X138124857Y-72743190D01*
X139362666Y-83617571D02*
X139338857Y-83641380D01*
X139267428Y-83665190D01*
X139219809Y-83665190D01*
X139148380Y-83641380D01*
X139100761Y-83593761D01*
X139076952Y-83546142D01*
X139053142Y-83450904D01*
X139053142Y-83379476D01*
X139076952Y-83284238D01*
X139100761Y-83236619D01*
X139148380Y-83189000D01*
X139219809Y-83165190D01*
X139267428Y-83165190D01*
X139338857Y-83189000D01*
X139362666Y-83212809D01*
X139838857Y-83665190D02*
X139553142Y-83665190D01*
X139696000Y-83665190D02*
X139696000Y-83165190D01*
X139648380Y-83236619D01*
X139600761Y-83284238D01*
X139553142Y-83308047D01*
X126790166Y-65631190D02*
X126623500Y-65393095D01*
X126504452Y-65631190D02*
X126504452Y-65131190D01*
X126694928Y-65131190D01*
X126742547Y-65155000D01*
X126766357Y-65178809D01*
X126790166Y-65226428D01*
X126790166Y-65297857D01*
X126766357Y-65345476D01*
X126742547Y-65369285D01*
X126694928Y-65393095D01*
X126504452Y-65393095D01*
X127266357Y-65631190D02*
X126980642Y-65631190D01*
X127123500Y-65631190D02*
X127123500Y-65131190D01*
X127075880Y-65202619D01*
X127028261Y-65250238D01*
X126980642Y-65274047D01*
X126790166Y-68763822D02*
X126623500Y-68525727D01*
X126504452Y-68763822D02*
X126504452Y-68263822D01*
X126694928Y-68263822D01*
X126742547Y-68287632D01*
X126766357Y-68311441D01*
X126790166Y-68359060D01*
X126790166Y-68430489D01*
X126766357Y-68478108D01*
X126742547Y-68501917D01*
X126694928Y-68525727D01*
X126504452Y-68525727D01*
X126980642Y-68311441D02*
X127004452Y-68287632D01*
X127052071Y-68263822D01*
X127171119Y-68263822D01*
X127218738Y-68287632D01*
X127242547Y-68311441D01*
X127266357Y-68359060D01*
X127266357Y-68406679D01*
X127242547Y-68478108D01*
X126956833Y-68763822D01*
X127266357Y-68763822D01*
X126790166Y-70330188D02*
X126623500Y-70092093D01*
X126504452Y-70330188D02*
X126504452Y-69830188D01*
X126694928Y-69830188D01*
X126742547Y-69853998D01*
X126766357Y-69877807D01*
X126790166Y-69925426D01*
X126790166Y-69996855D01*
X126766357Y-70044474D01*
X126742547Y-70068283D01*
X126694928Y-70092093D01*
X126504452Y-70092093D01*
X126956833Y-69830188D02*
X127266357Y-69830188D01*
X127099690Y-70020664D01*
X127171119Y-70020664D01*
X127218738Y-70044474D01*
X127242547Y-70068283D01*
X127266357Y-70115902D01*
X127266357Y-70234950D01*
X127242547Y-70282569D01*
X127218738Y-70306378D01*
X127171119Y-70330188D01*
X127028261Y-70330188D01*
X126980642Y-70306378D01*
X126956833Y-70282569D01*
X138219666Y-66901190D02*
X138053000Y-66663095D01*
X137933952Y-66901190D02*
X137933952Y-66401190D01*
X138124428Y-66401190D01*
X138172047Y-66425000D01*
X138195857Y-66448809D01*
X138219666Y-66496428D01*
X138219666Y-66567857D01*
X138195857Y-66615476D01*
X138172047Y-66639285D01*
X138124428Y-66663095D01*
X137933952Y-66663095D01*
X138648238Y-66567857D02*
X138648238Y-66901190D01*
X138529190Y-66377380D02*
X138410142Y-66734523D01*
X138719666Y-66734523D01*
X138219666Y-68679190D02*
X138053000Y-68441095D01*
X137933952Y-68679190D02*
X137933952Y-68179190D01*
X138124428Y-68179190D01*
X138172047Y-68203000D01*
X138195857Y-68226809D01*
X138219666Y-68274428D01*
X138219666Y-68345857D01*
X138195857Y-68393476D01*
X138172047Y-68417285D01*
X138124428Y-68441095D01*
X137933952Y-68441095D01*
X138672047Y-68179190D02*
X138433952Y-68179190D01*
X138410142Y-68417285D01*
X138433952Y-68393476D01*
X138481571Y-68369666D01*
X138600619Y-68369666D01*
X138648238Y-68393476D01*
X138672047Y-68417285D01*
X138695857Y-68464904D01*
X138695857Y-68583952D01*
X138672047Y-68631571D01*
X138648238Y-68655380D01*
X138600619Y-68679190D01*
X138481571Y-68679190D01*
X138433952Y-68655380D01*
X138410142Y-68631571D01*
X136116190Y-86189333D02*
X135878095Y-86356000D01*
X136116190Y-86475047D02*
X135616190Y-86475047D01*
X135616190Y-86284571D01*
X135640000Y-86236952D01*
X135663809Y-86213142D01*
X135711428Y-86189333D01*
X135782857Y-86189333D01*
X135830476Y-86213142D01*
X135854285Y-86236952D01*
X135878095Y-86284571D01*
X135878095Y-86475047D01*
X135616190Y-86022666D02*
X135616190Y-85689333D01*
X136116190Y-85903619D01*
X134846190Y-86189333D02*
X134608095Y-86356000D01*
X134846190Y-86475047D02*
X134346190Y-86475047D01*
X134346190Y-86284571D01*
X134370000Y-86236952D01*
X134393809Y-86213142D01*
X134441428Y-86189333D01*
X134512857Y-86189333D01*
X134560476Y-86213142D01*
X134584285Y-86236952D01*
X134608095Y-86284571D01*
X134608095Y-86475047D01*
X134560476Y-85903619D02*
X134536666Y-85951238D01*
X134512857Y-85975047D01*
X134465238Y-85998857D01*
X134441428Y-85998857D01*
X134393809Y-85975047D01*
X134370000Y-85951238D01*
X134346190Y-85903619D01*
X134346190Y-85808380D01*
X134370000Y-85760761D01*
X134393809Y-85736952D01*
X134441428Y-85713142D01*
X134465238Y-85713142D01*
X134512857Y-85736952D01*
X134536666Y-85760761D01*
X134560476Y-85808380D01*
X134560476Y-85903619D01*
X134584285Y-85951238D01*
X134608095Y-85975047D01*
X134655714Y-85998857D01*
X134750952Y-85998857D01*
X134798571Y-85975047D01*
X134822380Y-85951238D01*
X134846190Y-85903619D01*
X134846190Y-85808380D01*
X134822380Y-85760761D01*
X134798571Y-85736952D01*
X134750952Y-85713142D01*
X134655714Y-85713142D01*
X134608095Y-85736952D01*
X134584285Y-85760761D01*
X134560476Y-85808380D01*
X133576190Y-86189333D02*
X133338095Y-86356000D01*
X133576190Y-86475047D02*
X133076190Y-86475047D01*
X133076190Y-86284571D01*
X133100000Y-86236952D01*
X133123809Y-86213142D01*
X133171428Y-86189333D01*
X133242857Y-86189333D01*
X133290476Y-86213142D01*
X133314285Y-86236952D01*
X133338095Y-86284571D01*
X133338095Y-86475047D01*
X133576190Y-85951238D02*
X133576190Y-85856000D01*
X133552380Y-85808380D01*
X133528571Y-85784571D01*
X133457142Y-85736952D01*
X133361904Y-85713142D01*
X133171428Y-85713142D01*
X133123809Y-85736952D01*
X133100000Y-85760761D01*
X133076190Y-85808380D01*
X133076190Y-85903619D01*
X133100000Y-85951238D01*
X133123809Y-85975047D01*
X133171428Y-85998857D01*
X133290476Y-85998857D01*
X133338095Y-85975047D01*
X133361904Y-85951238D01*
X133385714Y-85903619D01*
X133385714Y-85808380D01*
X133361904Y-85760761D01*
X133338095Y-85736952D01*
X133290476Y-85713142D01*
X132306190Y-86554428D02*
X132068095Y-86721095D01*
X132306190Y-86840142D02*
X131806190Y-86840142D01*
X131806190Y-86649666D01*
X131830000Y-86602047D01*
X131853809Y-86578238D01*
X131901428Y-86554428D01*
X131972857Y-86554428D01*
X132020476Y-86578238D01*
X132044285Y-86602047D01*
X132068095Y-86649666D01*
X132068095Y-86840142D01*
X132306190Y-86078238D02*
X132306190Y-86363952D01*
X132306190Y-86221095D02*
X131806190Y-86221095D01*
X131877619Y-86268714D01*
X131925238Y-86316333D01*
X131949047Y-86363952D01*
X131806190Y-85768714D02*
X131806190Y-85721095D01*
X131830000Y-85673476D01*
X131853809Y-85649666D01*
X131901428Y-85625857D01*
X131996666Y-85602047D01*
X132115714Y-85602047D01*
X132210952Y-85625857D01*
X132258571Y-85649666D01*
X132282380Y-85673476D01*
X132306190Y-85721095D01*
X132306190Y-85768714D01*
X132282380Y-85816333D01*
X132258571Y-85840142D01*
X132210952Y-85863952D01*
X132115714Y-85887761D01*
X131996666Y-85887761D01*
X131901428Y-85863952D01*
X131853809Y-85840142D01*
X131830000Y-85816333D01*
X131806190Y-85768714D01*
X130972690Y-86617928D02*
X130734595Y-86784595D01*
X130972690Y-86903642D02*
X130472690Y-86903642D01*
X130472690Y-86713166D01*
X130496500Y-86665547D01*
X130520309Y-86641738D01*
X130567928Y-86617928D01*
X130639357Y-86617928D01*
X130686976Y-86641738D01*
X130710785Y-86665547D01*
X130734595Y-86713166D01*
X130734595Y-86903642D01*
X130972690Y-86141738D02*
X130972690Y-86427452D01*
X130972690Y-86284595D02*
X130472690Y-86284595D01*
X130544119Y-86332214D01*
X130591738Y-86379833D01*
X130615547Y-86427452D01*
X130972690Y-85665547D02*
X130972690Y-85951261D01*
X130972690Y-85808404D02*
X130472690Y-85808404D01*
X130544119Y-85856023D01*
X130591738Y-85903642D01*
X130615547Y-85951261D01*
X129639190Y-86617928D02*
X129401095Y-86784595D01*
X129639190Y-86903642D02*
X129139190Y-86903642D01*
X129139190Y-86713166D01*
X129163000Y-86665547D01*
X129186809Y-86641738D01*
X129234428Y-86617928D01*
X129305857Y-86617928D01*
X129353476Y-86641738D01*
X129377285Y-86665547D01*
X129401095Y-86713166D01*
X129401095Y-86903642D01*
X129639190Y-86141738D02*
X129639190Y-86427452D01*
X129639190Y-86284595D02*
X129139190Y-86284595D01*
X129210619Y-86332214D01*
X129258238Y-86379833D01*
X129282047Y-86427452D01*
X129186809Y-85951261D02*
X129163000Y-85927452D01*
X129139190Y-85879833D01*
X129139190Y-85760785D01*
X129163000Y-85713166D01*
X129186809Y-85689357D01*
X129234428Y-85665547D01*
X129282047Y-85665547D01*
X129353476Y-85689357D01*
X129639190Y-85975071D01*
X129639190Y-85665547D01*
X126790166Y-67197556D02*
X126623500Y-66959461D01*
X126504452Y-67197556D02*
X126504452Y-66697556D01*
X126694928Y-66697556D01*
X126742547Y-66721366D01*
X126766357Y-66745175D01*
X126790166Y-66792794D01*
X126790166Y-66864223D01*
X126766357Y-66911842D01*
X126742547Y-66935651D01*
X126694928Y-66959461D01*
X126504452Y-66959461D01*
X127218738Y-66697556D02*
X127123500Y-66697556D01*
X127075880Y-66721366D01*
X127052071Y-66745175D01*
X127004452Y-66816604D01*
X126980642Y-66911842D01*
X126980642Y-67102318D01*
X127004452Y-67149937D01*
X127028261Y-67173746D01*
X127075880Y-67197556D01*
X127171119Y-67197556D01*
X127218738Y-67173746D01*
X127242547Y-67149937D01*
X127266357Y-67102318D01*
X127266357Y-66983270D01*
X127242547Y-66935651D01*
X127218738Y-66911842D01*
X127171119Y-66888032D01*
X127075880Y-66888032D01*
X127028261Y-66911842D01*
X127004452Y-66935651D01*
X126980642Y-66983270D01*
X145565833Y-88689690D02*
X145565833Y-89046833D01*
X145542023Y-89118261D01*
X145494404Y-89165880D01*
X145422976Y-89189690D01*
X145375357Y-89189690D01*
X146065833Y-89189690D02*
X145780119Y-89189690D01*
X145922976Y-89189690D02*
X145922976Y-88689690D01*
X145875357Y-88761119D01*
X145827738Y-88808738D01*
X145780119Y-88832547D01*
X132334047Y-69253690D02*
X132334047Y-69658452D01*
X132357857Y-69706071D01*
X132381666Y-69729880D01*
X132429285Y-69753690D01*
X132524523Y-69753690D01*
X132572142Y-69729880D01*
X132595952Y-69706071D01*
X132619761Y-69658452D01*
X132619761Y-69253690D01*
X133072142Y-69420357D02*
X133072142Y-69753690D01*
X132953095Y-69229880D02*
X132834047Y-69587023D01*
X133143571Y-69587023D01*
D11*
X125730857Y-52713142D02*
X126445142Y-55713142D01*
X127016571Y-53570285D01*
X127588000Y-55713142D01*
X128302285Y-52713142D01*
X130588000Y-55570285D02*
X130302285Y-55713142D01*
X129730857Y-55713142D01*
X129445142Y-55570285D01*
X129302285Y-55284571D01*
X129302285Y-54141714D01*
X129445142Y-53856000D01*
X129730857Y-53713142D01*
X130302285Y-53713142D01*
X130588000Y-53856000D01*
X130730857Y-54141714D01*
X130730857Y-54427428D01*
X129302285Y-54713142D01*
X132016571Y-55713142D02*
X132016571Y-52713142D01*
X133016571Y-54856000D01*
X134016571Y-52713142D01*
X134016571Y-55713142D01*
X135873714Y-55713142D02*
X135588000Y-55570285D01*
X135445142Y-55427428D01*
X135302285Y-55141714D01*
X135302285Y-54284571D01*
X135445142Y-53998857D01*
X135588000Y-53856000D01*
X135873714Y-53713142D01*
X136302285Y-53713142D01*
X136588000Y-53856000D01*
X136730857Y-53998857D01*
X136873714Y-54284571D01*
X136873714Y-55141714D01*
X136730857Y-55427428D01*
X136588000Y-55570285D01*
X136302285Y-55713142D01*
X135873714Y-55713142D01*
X138016571Y-55570285D02*
X138302285Y-55713142D01*
X138873714Y-55713142D01*
X139159428Y-55570285D01*
X139302285Y-55284571D01*
X139302285Y-55141714D01*
X139159428Y-54856000D01*
X138873714Y-54713142D01*
X138445142Y-54713142D01*
X138159428Y-54570285D01*
X138016571Y-54284571D01*
X138016571Y-54141714D01*
X138159428Y-53856000D01*
X138445142Y-53713142D01*
X138873714Y-53713142D01*
X139159428Y-53856000D01*
M02*
