M48
INCH,TZ
T1C0.016
T2C0.031
T3C0.040
%
G90
G05
T1
X46800Y-21050
X46800Y-22050
X46800Y-23050
X46800Y-24050
X46800Y-25050
X46800Y-26050
X46800Y-27050
X46800Y-28050
X46800Y-29050
X46800Y-30050
X47800Y-21050
X48800Y-21050
X48800Y-30050
X49271Y-33735
X49300Y-32100
X49300Y-33050
X49800Y-21050
X50300Y-26550
X50300Y-28050
X50800Y-27000
X50800Y-21050
X50800Y-26050
X50800Y-28050
X51300Y-26550
X51541Y-34410
X51750Y-21050
X51808Y-27080
X52250Y-34400
X52300Y-27550
X52300Y-28550
X52800Y-28050
X52800Y-21050
X52950Y-34400
X53600Y-34400
X53800Y-21050
X54000Y-32250
X54181Y-33578
X54800Y-21050
X55450Y-29700
X55800Y-21050
X56800Y-21050
X57800Y-21050
X57800Y-22050
X57800Y-23050
X57800Y-24050
X57800Y-25050
X57800Y-26050
X57800Y-27050
X57800Y-28050
X57800Y-29050
X57800Y-30050
T2
X48713Y-35350
X49501Y-35350
X50288Y-35350
X51076Y-35350
X51863Y-35350
X52650Y-35350
X53438Y-35350
X54225Y-35350
X55013Y-35350
X55800Y-35350
T3
X47700Y-23400
X47700Y-24400
X47700Y-25400
X47700Y-26400
X47700Y-27400
X47700Y-28400
X47700Y-29400
X47700Y-30400
X56700Y-23400
X56700Y-24400
X56700Y-25400
X56700Y-26400
X56700Y-27400
X56700Y-28400
X56700Y-29400
X56700Y-30400
T0
M30
