G04 #@! TF.GenerationSoftware,KiCad,Pcbnew,(2017-09-19 revision dddaa7e69)-makepkg*
G04 #@! TF.CreationDate,2017-12-24T07:49:48+10:30*
G04 #@! TF.ProjectId,din_isolated_SPI,64696E5F69736F6C617465645F535049,rev?*
G04 #@! TF.SameCoordinates,Original*
G04 #@! TF.FileFunction,Copper,L2,Bot,Signal*
G04 #@! TF.FilePolarity,Positive*
%FSLAX46Y46*%
G04 Gerber Fmt 4.6, Leading zero omitted, Abs format (unit mm)*
G04 Created by KiCad (PCBNEW (2017-09-19 revision dddaa7e69)-makepkg) date 12/24/17 07:49:48*
%MOMM*%
%LPD*%
G01*
G04 APERTURE LIST*
%ADD10C,1.500000*%
%ADD11R,1.500000X1.500000*%
%ADD12C,1.800000*%
%ADD13C,0.800000*%
%ADD14C,0.250000*%
%ADD15C,0.500000*%
%ADD16C,0.254000*%
G04 APERTURE END LIST*
D10*
X123732000Y-89789000D03*
X125732000Y-89789000D03*
X127732000Y-89789000D03*
X129732000Y-89789000D03*
X131732000Y-89789000D03*
X133732000Y-89789000D03*
X135732000Y-89789000D03*
X137732000Y-89789000D03*
X139732000Y-89789000D03*
D11*
X141732000Y-89789000D03*
D12*
X144018000Y-59436000D03*
X144018000Y-61976000D03*
X144018000Y-64516000D03*
X144018000Y-67056000D03*
X144018000Y-69596000D03*
X144018000Y-72136000D03*
X144018000Y-74676000D03*
X144018000Y-77216000D03*
X121158000Y-77216000D03*
X121158000Y-74676000D03*
X121158000Y-72136000D03*
X121158000Y-69596000D03*
X121158000Y-67056000D03*
X121158000Y-64516000D03*
X121158000Y-61976000D03*
X121158000Y-59436000D03*
D13*
X127762000Y-67437000D03*
X127762000Y-71246988D03*
X130914712Y-87401978D03*
X132715000Y-87376000D03*
X136144000Y-87376000D03*
X130302008Y-67437000D03*
X131591054Y-68782715D03*
X129032000Y-71247004D03*
X132842000Y-72517004D03*
X129031996Y-68580000D03*
X134111990Y-71247000D03*
X129032000Y-66166998D03*
X132842000Y-69977000D03*
X137160000Y-81914966D03*
X134493000Y-87376000D03*
X123952000Y-76327000D03*
X118872000Y-61087000D03*
X118872000Y-58547000D03*
X118872000Y-56007000D03*
X118872000Y-63627000D03*
X118872000Y-66167000D03*
X118872000Y-68707000D03*
X118872000Y-71247000D03*
X118872000Y-73787000D03*
X118872000Y-76327000D03*
X146812000Y-76327000D03*
X146812000Y-73787000D03*
X146812000Y-71247000D03*
X146812000Y-68707000D03*
X146812000Y-66167000D03*
X146812000Y-63627000D03*
X146812000Y-61087000D03*
X146812000Y-58547000D03*
X146812000Y-56007000D03*
X146812000Y-53467000D03*
X144272000Y-53467000D03*
X141732000Y-53467000D03*
X139192000Y-53467000D03*
X136652000Y-53467000D03*
X134112000Y-53467000D03*
X131445000Y-53467000D03*
X129032000Y-53467000D03*
X126492000Y-53467000D03*
X123952000Y-53467000D03*
X121412000Y-53467000D03*
X118872000Y-53467000D03*
X125147774Y-85686206D03*
X137621004Y-85288635D03*
X125222000Y-83947000D03*
X125222000Y-81534000D03*
X140843000Y-75438000D03*
D14*
X127762000Y-70681303D02*
X127762000Y-67437000D01*
X127762000Y-71246988D02*
X127762000Y-70681303D01*
X130349027Y-87401978D02*
X130914712Y-87401978D01*
X130119022Y-87401978D02*
X130349027Y-87401978D01*
X127732000Y-89789000D02*
X130119022Y-87401978D01*
X132149315Y-87376000D02*
X132715000Y-87376000D01*
X132145000Y-87376000D02*
X132149315Y-87376000D01*
X129732000Y-89789000D02*
X132145000Y-87376000D01*
X135744001Y-86976001D02*
X136144000Y-87376000D01*
X135468999Y-86700999D02*
X135744001Y-86976001D01*
X134041999Y-86700999D02*
X135468999Y-86700999D01*
X133732000Y-87010998D02*
X134041999Y-86700999D01*
X133732000Y-89789000D02*
X133732000Y-87010998D01*
X131591054Y-68782715D02*
X130302008Y-67493669D01*
X130302008Y-67493669D02*
X130302008Y-67437000D01*
X129431999Y-71647003D02*
X129032000Y-71247004D01*
X130302000Y-72517004D02*
X129431999Y-71647003D01*
X132842000Y-72517004D02*
X130302000Y-72517004D01*
X131698996Y-71247000D02*
X129431995Y-68979999D01*
X129431995Y-68979999D02*
X129031996Y-68580000D01*
X134111990Y-71247000D02*
X131698996Y-71247000D01*
X132842000Y-69977000D02*
X132842000Y-66945998D01*
X132842000Y-66945998D02*
X132063000Y-66166998D01*
X129597685Y-66166998D02*
X129032000Y-66166998D01*
X132063000Y-66166998D02*
X129597685Y-66166998D01*
D15*
X136594315Y-81914966D02*
X137160000Y-81914966D01*
X123732000Y-89789000D02*
X123732000Y-88728340D01*
X130545374Y-81914966D02*
X136594315Y-81914966D01*
X123732000Y-88728340D02*
X130545374Y-81914966D01*
D14*
X134892999Y-87775999D02*
X134493000Y-87376000D01*
X135732000Y-88615000D02*
X134892999Y-87775999D01*
X135732000Y-89789000D02*
X135732000Y-88615000D01*
D15*
X118872000Y-77372002D02*
X120365999Y-78866001D01*
X120365999Y-78866001D02*
X121950001Y-78866001D01*
X121950001Y-78866001D02*
X122808001Y-78008001D01*
X118872000Y-76327000D02*
X118872000Y-77372002D01*
X122808001Y-78008001D02*
X122808001Y-76882230D01*
X122808001Y-76882230D02*
X123363231Y-76327000D01*
X123363231Y-76327000D02*
X123952000Y-76327000D01*
X118872000Y-73787000D02*
X118872000Y-76327000D01*
X118872000Y-71247000D02*
X118872000Y-73787000D01*
X140443001Y-75038001D02*
X140843000Y-75438000D01*
X123238001Y-75038001D02*
X140443001Y-75038001D01*
X121158000Y-77118002D02*
X123238001Y-75038001D01*
X121158000Y-77216000D02*
X121158000Y-77118002D01*
X142240000Y-76835000D02*
X140843000Y-75438000D01*
X142240000Y-88031000D02*
X142240000Y-76835000D01*
X141732000Y-89789000D02*
X141732000Y-88539000D01*
X141732000Y-88539000D02*
X142240000Y-88031000D01*
D16*
G36*
X139065000Y-86868000D02*
X137053970Y-86868000D01*
X137021942Y-86790485D01*
X136731046Y-86499081D01*
X136350777Y-86341180D01*
X136183836Y-86341034D01*
X136006400Y-86163598D01*
X135759838Y-85998851D01*
X135468999Y-85940999D01*
X134041999Y-85940999D01*
X133751160Y-85998851D01*
X133504598Y-86163598D01*
X133208117Y-86460079D01*
X132921777Y-86341180D01*
X132510029Y-86340821D01*
X132129485Y-86498058D01*
X131978076Y-86649204D01*
X131854160Y-86673852D01*
X131731865Y-86755567D01*
X131501758Y-86525059D01*
X131121489Y-86367158D01*
X130709741Y-86366799D01*
X130329197Y-86524036D01*
X130211049Y-86641978D01*
X130119022Y-86641978D01*
X129828183Y-86699830D01*
X129581621Y-86864577D01*
X129578198Y-86868000D01*
X126843920Y-86868000D01*
X130911953Y-82799966D01*
X136592415Y-82799966D01*
X136953223Y-82949786D01*
X137364971Y-82950145D01*
X137745515Y-82792908D01*
X138036919Y-82502012D01*
X138194820Y-82121743D01*
X138195179Y-81709995D01*
X138037942Y-81329451D01*
X137747046Y-81038047D01*
X137366777Y-80880146D01*
X136955029Y-80879787D01*
X136591567Y-81029966D01*
X130545379Y-81029966D01*
X130545374Y-81029965D01*
X130262890Y-81086156D01*
X130206699Y-81097333D01*
X129919584Y-81289176D01*
X129919582Y-81289179D01*
X124340760Y-86868000D01*
X121539000Y-86868000D01*
X121539000Y-80264000D01*
X139065000Y-80264000D01*
X139065000Y-86868000D01*
X139065000Y-86868000D01*
G37*
X139065000Y-86868000D02*
X137053970Y-86868000D01*
X137021942Y-86790485D01*
X136731046Y-86499081D01*
X136350777Y-86341180D01*
X136183836Y-86341034D01*
X136006400Y-86163598D01*
X135759838Y-85998851D01*
X135468999Y-85940999D01*
X134041999Y-85940999D01*
X133751160Y-85998851D01*
X133504598Y-86163598D01*
X133208117Y-86460079D01*
X132921777Y-86341180D01*
X132510029Y-86340821D01*
X132129485Y-86498058D01*
X131978076Y-86649204D01*
X131854160Y-86673852D01*
X131731865Y-86755567D01*
X131501758Y-86525059D01*
X131121489Y-86367158D01*
X130709741Y-86366799D01*
X130329197Y-86524036D01*
X130211049Y-86641978D01*
X130119022Y-86641978D01*
X129828183Y-86699830D01*
X129581621Y-86864577D01*
X129578198Y-86868000D01*
X126843920Y-86868000D01*
X130911953Y-82799966D01*
X136592415Y-82799966D01*
X136953223Y-82949786D01*
X137364971Y-82950145D01*
X137745515Y-82792908D01*
X138036919Y-82502012D01*
X138194820Y-82121743D01*
X138195179Y-81709995D01*
X138037942Y-81329451D01*
X137747046Y-81038047D01*
X137366777Y-80880146D01*
X136955029Y-80879787D01*
X136591567Y-81029966D01*
X130545379Y-81029966D01*
X130545374Y-81029965D01*
X130262890Y-81086156D01*
X130206699Y-81097333D01*
X129919584Y-81289176D01*
X129919582Y-81289179D01*
X124340760Y-86868000D01*
X121539000Y-86868000D01*
X121539000Y-80264000D01*
X139065000Y-80264000D01*
X139065000Y-86868000D01*
G36*
X147880000Y-77470000D02*
X145552779Y-77470000D01*
X145553265Y-76912009D01*
X145320068Y-76347629D01*
X144888643Y-75915449D01*
X144867806Y-75906797D01*
X144918554Y-75756159D01*
X144018000Y-74855605D01*
X143117446Y-75756159D01*
X143168035Y-75906327D01*
X143149629Y-75913932D01*
X142859817Y-76203238D01*
X141870131Y-75213551D01*
X141720942Y-74852485D01*
X141430046Y-74561081D01*
X141127218Y-74435336D01*
X142471542Y-74435336D01*
X142497161Y-75045460D01*
X142681357Y-75490148D01*
X142937841Y-75576554D01*
X143838395Y-74676000D01*
X144197605Y-74676000D01*
X145098159Y-75576554D01*
X145354643Y-75490148D01*
X145564458Y-74916664D01*
X145538839Y-74306540D01*
X145354643Y-73861852D01*
X145098159Y-73775446D01*
X144197605Y-74676000D01*
X143838395Y-74676000D01*
X142937841Y-73775446D01*
X142681357Y-73861852D01*
X142471542Y-74435336D01*
X141127218Y-74435336D01*
X141064301Y-74409211D01*
X141008624Y-74372009D01*
X140781676Y-74220368D01*
X140725485Y-74209191D01*
X140443001Y-74153000D01*
X140442996Y-74153001D01*
X123238006Y-74153001D01*
X123238001Y-74153000D01*
X122955517Y-74209191D01*
X122899326Y-74220368D01*
X122688746Y-74361072D01*
X122460068Y-73807629D01*
X122058818Y-73405677D01*
X122458551Y-73006643D01*
X122692733Y-72442670D01*
X122693265Y-71832009D01*
X122460068Y-71267629D01*
X122058818Y-70865677D01*
X122458551Y-70466643D01*
X122692733Y-69902670D01*
X122693265Y-69292009D01*
X122460068Y-68727629D01*
X122058818Y-68325677D01*
X122458551Y-67926643D01*
X122576757Y-67641971D01*
X126726821Y-67641971D01*
X126884058Y-68022515D01*
X127002000Y-68140663D01*
X127002000Y-70543227D01*
X126885081Y-70659942D01*
X126727180Y-71040211D01*
X126726821Y-71451959D01*
X126884058Y-71832503D01*
X127174954Y-72123907D01*
X127555223Y-72281808D01*
X127966971Y-72282167D01*
X128347515Y-72124930D01*
X128396823Y-72075708D01*
X128444954Y-72123923D01*
X128825223Y-72281824D01*
X128992164Y-72281970D01*
X129764599Y-73054405D01*
X130011160Y-73219152D01*
X130302000Y-73277004D01*
X132138239Y-73277004D01*
X132254954Y-73393923D01*
X132635223Y-73551824D01*
X133046971Y-73552183D01*
X133427515Y-73394946D01*
X133718919Y-73104050D01*
X133876820Y-72723781D01*
X133877179Y-72312033D01*
X133856304Y-72261511D01*
X133905213Y-72281820D01*
X134316961Y-72282179D01*
X134697505Y-72124942D01*
X134988909Y-71834046D01*
X135146810Y-71453777D01*
X135147169Y-71042029D01*
X134989932Y-70661485D01*
X134699036Y-70370081D01*
X134318767Y-70212180D01*
X133907019Y-70211821D01*
X133856509Y-70232691D01*
X133876820Y-70183777D01*
X133877179Y-69772029D01*
X133719942Y-69391485D01*
X133602000Y-69273337D01*
X133602000Y-66945998D01*
X133583200Y-66851485D01*
X133544148Y-66655158D01*
X133379401Y-66408597D01*
X132600401Y-65629597D01*
X132353839Y-65464850D01*
X132063000Y-65406998D01*
X129735761Y-65406998D01*
X129619046Y-65290079D01*
X129238777Y-65132178D01*
X128827029Y-65131819D01*
X128446485Y-65289056D01*
X128155081Y-65579952D01*
X127997180Y-65960221D01*
X127996821Y-66371969D01*
X128017697Y-66422493D01*
X127968777Y-66402180D01*
X127557029Y-66401821D01*
X127176485Y-66559058D01*
X126885081Y-66849954D01*
X126727180Y-67230223D01*
X126726821Y-67641971D01*
X122576757Y-67641971D01*
X122692733Y-67362670D01*
X122693265Y-66752009D01*
X122460068Y-66187629D01*
X122058818Y-65785677D01*
X122458551Y-65386643D01*
X122692733Y-64822670D01*
X122693265Y-64212009D01*
X122460068Y-63647629D01*
X122058818Y-63245677D01*
X122458551Y-62846643D01*
X122692733Y-62282670D01*
X122693265Y-61672009D01*
X122460068Y-61107629D01*
X122058818Y-60705677D01*
X122458551Y-60306643D01*
X122692733Y-59742670D01*
X122692735Y-59739991D01*
X142482735Y-59739991D01*
X142715932Y-60304371D01*
X143117182Y-60706323D01*
X142717449Y-61105357D01*
X142483267Y-61669330D01*
X142482735Y-62279991D01*
X142715932Y-62844371D01*
X143117182Y-63246323D01*
X142717449Y-63645357D01*
X142483267Y-64209330D01*
X142482735Y-64819991D01*
X142715932Y-65384371D01*
X143117182Y-65786323D01*
X142717449Y-66185357D01*
X142483267Y-66749330D01*
X142482735Y-67359991D01*
X142715932Y-67924371D01*
X143117182Y-68326323D01*
X142717449Y-68725357D01*
X142483267Y-69289330D01*
X142482735Y-69899991D01*
X142715932Y-70464371D01*
X143117182Y-70866323D01*
X142717449Y-71265357D01*
X142483267Y-71829330D01*
X142482735Y-72439991D01*
X142715932Y-73004371D01*
X143147357Y-73436551D01*
X143168194Y-73445203D01*
X143117446Y-73595841D01*
X144018000Y-74496395D01*
X144918554Y-73595841D01*
X144867965Y-73445673D01*
X144886371Y-73438068D01*
X145318551Y-73006643D01*
X145552733Y-72442670D01*
X145553265Y-71832009D01*
X145320068Y-71267629D01*
X144918818Y-70865677D01*
X145318551Y-70466643D01*
X145552733Y-69902670D01*
X145553265Y-69292009D01*
X145320068Y-68727629D01*
X144918818Y-68325677D01*
X145318551Y-67926643D01*
X145552733Y-67362670D01*
X145553265Y-66752009D01*
X145320068Y-66187629D01*
X144918818Y-65785677D01*
X145318551Y-65386643D01*
X145552733Y-64822670D01*
X145553265Y-64212009D01*
X145320068Y-63647629D01*
X144918818Y-63245677D01*
X145318551Y-62846643D01*
X145552733Y-62282670D01*
X145553265Y-61672009D01*
X145320068Y-61107629D01*
X144918818Y-60705677D01*
X145318551Y-60306643D01*
X145552733Y-59742670D01*
X145553265Y-59132009D01*
X145320068Y-58567629D01*
X144888643Y-58135449D01*
X144324670Y-57901267D01*
X143714009Y-57900735D01*
X143149629Y-58133932D01*
X142717449Y-58565357D01*
X142483267Y-59129330D01*
X142482735Y-59739991D01*
X122692735Y-59739991D01*
X122693265Y-59132009D01*
X122460068Y-58567629D01*
X122028643Y-58135449D01*
X121464670Y-57901267D01*
X120854009Y-57900735D01*
X120289629Y-58133932D01*
X119857449Y-58565357D01*
X119623267Y-59129330D01*
X119622735Y-59739991D01*
X119855932Y-60304371D01*
X120257182Y-60706323D01*
X119857449Y-61105357D01*
X119623267Y-61669330D01*
X119622735Y-62279991D01*
X119855932Y-62844371D01*
X120257182Y-63246323D01*
X119857449Y-63645357D01*
X119623267Y-64209330D01*
X119622735Y-64819991D01*
X119855932Y-65384371D01*
X120257182Y-65786323D01*
X119857449Y-66185357D01*
X119623267Y-66749330D01*
X119622735Y-67359991D01*
X119855932Y-67924371D01*
X120257182Y-68326323D01*
X119857449Y-68725357D01*
X119623267Y-69289330D01*
X119622735Y-69899991D01*
X119855932Y-70464371D01*
X120257182Y-70866323D01*
X119857449Y-71265357D01*
X119623267Y-71829330D01*
X119622735Y-72439991D01*
X119855932Y-73004371D01*
X120257182Y-73406323D01*
X119857449Y-73805357D01*
X119623267Y-74369330D01*
X119622735Y-74979991D01*
X119855932Y-75544371D01*
X120257182Y-75946323D01*
X119857449Y-76345357D01*
X119623267Y-76909330D01*
X119622779Y-77470000D01*
X117729000Y-77470000D01*
X117729000Y-52324000D01*
X147880000Y-52324000D01*
X147880000Y-77470000D01*
X147880000Y-77470000D01*
G37*
X147880000Y-77470000D02*
X145552779Y-77470000D01*
X145553265Y-76912009D01*
X145320068Y-76347629D01*
X144888643Y-75915449D01*
X144867806Y-75906797D01*
X144918554Y-75756159D01*
X144018000Y-74855605D01*
X143117446Y-75756159D01*
X143168035Y-75906327D01*
X143149629Y-75913932D01*
X142859817Y-76203238D01*
X141870131Y-75213551D01*
X141720942Y-74852485D01*
X141430046Y-74561081D01*
X141127218Y-74435336D01*
X142471542Y-74435336D01*
X142497161Y-75045460D01*
X142681357Y-75490148D01*
X142937841Y-75576554D01*
X143838395Y-74676000D01*
X144197605Y-74676000D01*
X145098159Y-75576554D01*
X145354643Y-75490148D01*
X145564458Y-74916664D01*
X145538839Y-74306540D01*
X145354643Y-73861852D01*
X145098159Y-73775446D01*
X144197605Y-74676000D01*
X143838395Y-74676000D01*
X142937841Y-73775446D01*
X142681357Y-73861852D01*
X142471542Y-74435336D01*
X141127218Y-74435336D01*
X141064301Y-74409211D01*
X141008624Y-74372009D01*
X140781676Y-74220368D01*
X140725485Y-74209191D01*
X140443001Y-74153000D01*
X140442996Y-74153001D01*
X123238006Y-74153001D01*
X123238001Y-74153000D01*
X122955517Y-74209191D01*
X122899326Y-74220368D01*
X122688746Y-74361072D01*
X122460068Y-73807629D01*
X122058818Y-73405677D01*
X122458551Y-73006643D01*
X122692733Y-72442670D01*
X122693265Y-71832009D01*
X122460068Y-71267629D01*
X122058818Y-70865677D01*
X122458551Y-70466643D01*
X122692733Y-69902670D01*
X122693265Y-69292009D01*
X122460068Y-68727629D01*
X122058818Y-68325677D01*
X122458551Y-67926643D01*
X122576757Y-67641971D01*
X126726821Y-67641971D01*
X126884058Y-68022515D01*
X127002000Y-68140663D01*
X127002000Y-70543227D01*
X126885081Y-70659942D01*
X126727180Y-71040211D01*
X126726821Y-71451959D01*
X126884058Y-71832503D01*
X127174954Y-72123907D01*
X127555223Y-72281808D01*
X127966971Y-72282167D01*
X128347515Y-72124930D01*
X128396823Y-72075708D01*
X128444954Y-72123923D01*
X128825223Y-72281824D01*
X128992164Y-72281970D01*
X129764599Y-73054405D01*
X130011160Y-73219152D01*
X130302000Y-73277004D01*
X132138239Y-73277004D01*
X132254954Y-73393923D01*
X132635223Y-73551824D01*
X133046971Y-73552183D01*
X133427515Y-73394946D01*
X133718919Y-73104050D01*
X133876820Y-72723781D01*
X133877179Y-72312033D01*
X133856304Y-72261511D01*
X133905213Y-72281820D01*
X134316961Y-72282179D01*
X134697505Y-72124942D01*
X134988909Y-71834046D01*
X135146810Y-71453777D01*
X135147169Y-71042029D01*
X134989932Y-70661485D01*
X134699036Y-70370081D01*
X134318767Y-70212180D01*
X133907019Y-70211821D01*
X133856509Y-70232691D01*
X133876820Y-70183777D01*
X133877179Y-69772029D01*
X133719942Y-69391485D01*
X133602000Y-69273337D01*
X133602000Y-66945998D01*
X133583200Y-66851485D01*
X133544148Y-66655158D01*
X133379401Y-66408597D01*
X132600401Y-65629597D01*
X132353839Y-65464850D01*
X132063000Y-65406998D01*
X129735761Y-65406998D01*
X129619046Y-65290079D01*
X129238777Y-65132178D01*
X128827029Y-65131819D01*
X128446485Y-65289056D01*
X128155081Y-65579952D01*
X127997180Y-65960221D01*
X127996821Y-66371969D01*
X128017697Y-66422493D01*
X127968777Y-66402180D01*
X127557029Y-66401821D01*
X127176485Y-66559058D01*
X126885081Y-66849954D01*
X126727180Y-67230223D01*
X126726821Y-67641971D01*
X122576757Y-67641971D01*
X122692733Y-67362670D01*
X122693265Y-66752009D01*
X122460068Y-66187629D01*
X122058818Y-65785677D01*
X122458551Y-65386643D01*
X122692733Y-64822670D01*
X122693265Y-64212009D01*
X122460068Y-63647629D01*
X122058818Y-63245677D01*
X122458551Y-62846643D01*
X122692733Y-62282670D01*
X122693265Y-61672009D01*
X122460068Y-61107629D01*
X122058818Y-60705677D01*
X122458551Y-60306643D01*
X122692733Y-59742670D01*
X122692735Y-59739991D01*
X142482735Y-59739991D01*
X142715932Y-60304371D01*
X143117182Y-60706323D01*
X142717449Y-61105357D01*
X142483267Y-61669330D01*
X142482735Y-62279991D01*
X142715932Y-62844371D01*
X143117182Y-63246323D01*
X142717449Y-63645357D01*
X142483267Y-64209330D01*
X142482735Y-64819991D01*
X142715932Y-65384371D01*
X143117182Y-65786323D01*
X142717449Y-66185357D01*
X142483267Y-66749330D01*
X142482735Y-67359991D01*
X142715932Y-67924371D01*
X143117182Y-68326323D01*
X142717449Y-68725357D01*
X142483267Y-69289330D01*
X142482735Y-69899991D01*
X142715932Y-70464371D01*
X143117182Y-70866323D01*
X142717449Y-71265357D01*
X142483267Y-71829330D01*
X142482735Y-72439991D01*
X142715932Y-73004371D01*
X143147357Y-73436551D01*
X143168194Y-73445203D01*
X143117446Y-73595841D01*
X144018000Y-74496395D01*
X144918554Y-73595841D01*
X144867965Y-73445673D01*
X144886371Y-73438068D01*
X145318551Y-73006643D01*
X145552733Y-72442670D01*
X145553265Y-71832009D01*
X145320068Y-71267629D01*
X144918818Y-70865677D01*
X145318551Y-70466643D01*
X145552733Y-69902670D01*
X145553265Y-69292009D01*
X145320068Y-68727629D01*
X144918818Y-68325677D01*
X145318551Y-67926643D01*
X145552733Y-67362670D01*
X145553265Y-66752009D01*
X145320068Y-66187629D01*
X144918818Y-65785677D01*
X145318551Y-65386643D01*
X145552733Y-64822670D01*
X145553265Y-64212009D01*
X145320068Y-63647629D01*
X144918818Y-63245677D01*
X145318551Y-62846643D01*
X145552733Y-62282670D01*
X145553265Y-61672009D01*
X145320068Y-61107629D01*
X144918818Y-60705677D01*
X145318551Y-60306643D01*
X145552733Y-59742670D01*
X145553265Y-59132009D01*
X145320068Y-58567629D01*
X144888643Y-58135449D01*
X144324670Y-57901267D01*
X143714009Y-57900735D01*
X143149629Y-58133932D01*
X142717449Y-58565357D01*
X142483267Y-59129330D01*
X142482735Y-59739991D01*
X122692735Y-59739991D01*
X122693265Y-59132009D01*
X122460068Y-58567629D01*
X122028643Y-58135449D01*
X121464670Y-57901267D01*
X120854009Y-57900735D01*
X120289629Y-58133932D01*
X119857449Y-58565357D01*
X119623267Y-59129330D01*
X119622735Y-59739991D01*
X119855932Y-60304371D01*
X120257182Y-60706323D01*
X119857449Y-61105357D01*
X119623267Y-61669330D01*
X119622735Y-62279991D01*
X119855932Y-62844371D01*
X120257182Y-63246323D01*
X119857449Y-63645357D01*
X119623267Y-64209330D01*
X119622735Y-64819991D01*
X119855932Y-65384371D01*
X120257182Y-65786323D01*
X119857449Y-66185357D01*
X119623267Y-66749330D01*
X119622735Y-67359991D01*
X119855932Y-67924371D01*
X120257182Y-68326323D01*
X119857449Y-68725357D01*
X119623267Y-69289330D01*
X119622735Y-69899991D01*
X119855932Y-70464371D01*
X120257182Y-70866323D01*
X119857449Y-71265357D01*
X119623267Y-71829330D01*
X119622735Y-72439991D01*
X119855932Y-73004371D01*
X120257182Y-73406323D01*
X119857449Y-73805357D01*
X119623267Y-74369330D01*
X119622735Y-74979991D01*
X119855932Y-75544371D01*
X120257182Y-75946323D01*
X119857449Y-76345357D01*
X119623267Y-76909330D01*
X119622779Y-77470000D01*
X117729000Y-77470000D01*
X117729000Y-52324000D01*
X147880000Y-52324000D01*
X147880000Y-77470000D01*
G36*
X139965058Y-76023515D02*
X140255954Y-76314919D01*
X140619152Y-76465731D01*
X141355000Y-77201579D01*
X141355000Y-77470000D01*
X139140000Y-77470000D01*
X139085954Y-77198295D01*
X138932046Y-76967954D01*
X138701705Y-76814046D01*
X138430000Y-76760000D01*
X127000000Y-76760000D01*
X126728295Y-76814046D01*
X126497954Y-76967954D01*
X126344046Y-77198295D01*
X126290000Y-77470000D01*
X122692779Y-77470000D01*
X122693265Y-76912009D01*
X122670549Y-76857032D01*
X123604580Y-75923001D01*
X139923527Y-75923001D01*
X139965058Y-76023515D01*
X139965058Y-76023515D01*
G37*
X139965058Y-76023515D02*
X140255954Y-76314919D01*
X140619152Y-76465731D01*
X141355000Y-77201579D01*
X141355000Y-77470000D01*
X139140000Y-77470000D01*
X139085954Y-77198295D01*
X138932046Y-76967954D01*
X138701705Y-76814046D01*
X138430000Y-76760000D01*
X127000000Y-76760000D01*
X126728295Y-76814046D01*
X126497954Y-76967954D01*
X126344046Y-77198295D01*
X126290000Y-77470000D01*
X122692779Y-77470000D01*
X122693265Y-76912009D01*
X122670549Y-76857032D01*
X123604580Y-75923001D01*
X139923527Y-75923001D01*
X139965058Y-76023515D01*
M02*
