G04 #@! TF.GenerationSoftware,KiCad,Pcbnew,(2017-09-19 revision dddaa7e69)-makepkg*
G04 #@! TF.CreationDate,2017-12-24T07:49:48+10:30*
G04 #@! TF.ProjectId,din_isolated_SPI,64696E5F69736F6C617465645F535049,rev?*
G04 #@! TF.SameCoordinates,Original*
G04 #@! TF.FileFunction,Legend,Bot*
G04 #@! TF.FilePolarity,Positive*
%FSLAX46Y46*%
G04 Gerber Fmt 4.6, Leading zero omitted, Abs format (unit mm)*
G04 Created by KiCad (PCBNEW (2017-09-19 revision dddaa7e69)-makepkg) date 12/24/17 07:49:48*
%MOMM*%
%LPD*%
G01*
G04 APERTURE LIST*
%ADD10C,0.200000*%
%ADD11C,0.120000*%
%ADD12C,0.250000*%
%ADD13C,0.010000*%
%ADD14C,0.100000*%
G04 APERTURE END LIST*
D10*
X134429285Y-69302380D02*
X133857857Y-69302380D01*
X134143571Y-70302380D02*
X134143571Y-69302380D01*
X133572142Y-70016666D02*
X133095952Y-70016666D01*
X133667380Y-70302380D02*
X133334047Y-69302380D01*
X133000714Y-70302380D01*
X132667380Y-70302380D02*
X132667380Y-69302380D01*
X132286428Y-69302380D01*
X132191190Y-69350000D01*
X132143571Y-69397619D01*
X132095952Y-69492857D01*
X132095952Y-69635714D01*
X132143571Y-69730952D01*
X132191190Y-69778571D01*
X132286428Y-69826190D01*
X132667380Y-69826190D01*
X131095952Y-70302380D02*
X131429285Y-69826190D01*
X131667380Y-70302380D02*
X131667380Y-69302380D01*
X131286428Y-69302380D01*
X131191190Y-69350000D01*
X131143571Y-69397619D01*
X131095952Y-69492857D01*
X131095952Y-69635714D01*
X131143571Y-69730952D01*
X131191190Y-69778571D01*
X131286428Y-69826190D01*
X131667380Y-69826190D01*
X147294523Y-59251904D02*
X146837380Y-59251904D01*
X147065952Y-60051904D02*
X147065952Y-59251904D01*
X146646904Y-59251904D02*
X146113571Y-60051904D01*
X146113571Y-59251904D02*
X146646904Y-60051904D01*
X147275476Y-65131904D02*
X147275476Y-64331904D01*
X147085000Y-64331904D01*
X146970714Y-64370000D01*
X146894523Y-64446190D01*
X146856428Y-64522380D01*
X146818333Y-64674761D01*
X146818333Y-64789047D01*
X146856428Y-64941428D01*
X146894523Y-65017619D01*
X146970714Y-65093809D01*
X147085000Y-65131904D01*
X147275476Y-65131904D01*
X146056428Y-65131904D02*
X146513571Y-65131904D01*
X146285000Y-65131904D02*
X146285000Y-64331904D01*
X146361190Y-64446190D01*
X146437380Y-64522380D01*
X146513571Y-64560476D01*
X147275476Y-72751904D02*
X147275476Y-71951904D01*
X147085000Y-71951904D01*
X146970714Y-71990000D01*
X146894523Y-72066190D01*
X146856428Y-72142380D01*
X146818333Y-72294761D01*
X146818333Y-72409047D01*
X146856428Y-72561428D01*
X146894523Y-72637619D01*
X146970714Y-72713809D01*
X147085000Y-72751904D01*
X147275476Y-72751904D01*
X146132619Y-72218571D02*
X146132619Y-72751904D01*
X146323095Y-71913809D02*
X146513571Y-72485238D01*
X146018333Y-72485238D01*
X146818333Y-62591904D02*
X147085000Y-62210952D01*
X147275476Y-62591904D02*
X147275476Y-61791904D01*
X146970714Y-61791904D01*
X146894523Y-61830000D01*
X146856428Y-61868095D01*
X146818333Y-61944285D01*
X146818333Y-62058571D01*
X146856428Y-62134761D01*
X146894523Y-62172857D01*
X146970714Y-62210952D01*
X147275476Y-62210952D01*
X146551666Y-61791904D02*
X146018333Y-62591904D01*
X146018333Y-61791904D02*
X146551666Y-62591904D01*
X147275476Y-70211904D02*
X147275476Y-69411904D01*
X147085000Y-69411904D01*
X146970714Y-69450000D01*
X146894523Y-69526190D01*
X146856428Y-69602380D01*
X146818333Y-69754761D01*
X146818333Y-69869047D01*
X146856428Y-70021428D01*
X146894523Y-70097619D01*
X146970714Y-70173809D01*
X147085000Y-70211904D01*
X147275476Y-70211904D01*
X146551666Y-69411904D02*
X146056428Y-69411904D01*
X146323095Y-69716666D01*
X146208809Y-69716666D01*
X146132619Y-69754761D01*
X146094523Y-69792857D01*
X146056428Y-69869047D01*
X146056428Y-70059523D01*
X146094523Y-70135714D01*
X146132619Y-70173809D01*
X146208809Y-70211904D01*
X146437380Y-70211904D01*
X146513571Y-70173809D01*
X146551666Y-70135714D01*
X147275476Y-67671904D02*
X147275476Y-66871904D01*
X147085000Y-66871904D01*
X146970714Y-66910000D01*
X146894523Y-66986190D01*
X146856428Y-67062380D01*
X146818333Y-67214761D01*
X146818333Y-67329047D01*
X146856428Y-67481428D01*
X146894523Y-67557619D01*
X146970714Y-67633809D01*
X147085000Y-67671904D01*
X147275476Y-67671904D01*
X146513571Y-66948095D02*
X146475476Y-66910000D01*
X146399285Y-66871904D01*
X146208809Y-66871904D01*
X146132619Y-66910000D01*
X146094523Y-66948095D01*
X146056428Y-67024285D01*
X146056428Y-67100476D01*
X146094523Y-67214761D01*
X146551666Y-67671904D01*
X146056428Y-67671904D01*
X146837380Y-77031904D02*
X147218333Y-77031904D01*
X147256428Y-77412857D01*
X147218333Y-77374761D01*
X147142142Y-77336666D01*
X146951666Y-77336666D01*
X146875476Y-77374761D01*
X146837380Y-77412857D01*
X146799285Y-77489047D01*
X146799285Y-77679523D01*
X146837380Y-77755714D01*
X146875476Y-77793809D01*
X146951666Y-77831904D01*
X147142142Y-77831904D01*
X147218333Y-77793809D01*
X147256428Y-77755714D01*
X146570714Y-77031904D02*
X146304047Y-77831904D01*
X146037380Y-77031904D01*
X147294523Y-74530000D02*
X147370714Y-74491904D01*
X147485000Y-74491904D01*
X147599285Y-74530000D01*
X147675476Y-74606190D01*
X147713571Y-74682380D01*
X147751666Y-74834761D01*
X147751666Y-74949047D01*
X147713571Y-75101428D01*
X147675476Y-75177619D01*
X147599285Y-75253809D01*
X147485000Y-75291904D01*
X147408809Y-75291904D01*
X147294523Y-75253809D01*
X147256428Y-75215714D01*
X147256428Y-74949047D01*
X147408809Y-74949047D01*
X146913571Y-75291904D02*
X146913571Y-74491904D01*
X146456428Y-75291904D01*
X146456428Y-74491904D01*
X146075476Y-75291904D02*
X146075476Y-74491904D01*
X145885000Y-74491904D01*
X145770714Y-74530000D01*
X145694523Y-74606190D01*
X145656428Y-74682380D01*
X145618333Y-74834761D01*
X145618333Y-74949047D01*
X145656428Y-75101428D01*
X145694523Y-75177619D01*
X145770714Y-75253809D01*
X145885000Y-75291904D01*
X146075476Y-75291904D01*
X119481476Y-76904904D02*
X118986238Y-76904904D01*
X119252904Y-77209666D01*
X119138619Y-77209666D01*
X119062428Y-77247761D01*
X119024333Y-77285857D01*
X118986238Y-77362047D01*
X118986238Y-77552523D01*
X119024333Y-77628714D01*
X119062428Y-77666809D01*
X119138619Y-77704904D01*
X119367190Y-77704904D01*
X119443380Y-77666809D01*
X119481476Y-77628714D01*
X118757666Y-76904904D02*
X118491000Y-77704904D01*
X118224333Y-76904904D01*
X118033857Y-76904904D02*
X117538619Y-76904904D01*
X117805285Y-77209666D01*
X117691000Y-77209666D01*
X117614809Y-77247761D01*
X117576714Y-77285857D01*
X117538619Y-77362047D01*
X117538619Y-77552523D01*
X117576714Y-77628714D01*
X117614809Y-77666809D01*
X117691000Y-77704904D01*
X117919571Y-77704904D01*
X117995761Y-77666809D01*
X118033857Y-77628714D01*
X119081476Y-75164904D02*
X119081476Y-74364904D01*
X118891000Y-74364904D01*
X118776714Y-74403000D01*
X118700523Y-74479190D01*
X118662428Y-74555380D01*
X118624333Y-74707761D01*
X118624333Y-74822047D01*
X118662428Y-74974428D01*
X118700523Y-75050619D01*
X118776714Y-75126809D01*
X118891000Y-75164904D01*
X119081476Y-75164904D01*
X118167190Y-74707761D02*
X118243380Y-74669666D01*
X118281476Y-74631571D01*
X118319571Y-74555380D01*
X118319571Y-74517285D01*
X118281476Y-74441095D01*
X118243380Y-74403000D01*
X118167190Y-74364904D01*
X118014809Y-74364904D01*
X117938619Y-74403000D01*
X117900523Y-74441095D01*
X117862428Y-74517285D01*
X117862428Y-74555380D01*
X117900523Y-74631571D01*
X117938619Y-74669666D01*
X118014809Y-74707761D01*
X118167190Y-74707761D01*
X118243380Y-74745857D01*
X118281476Y-74783952D01*
X118319571Y-74860142D01*
X118319571Y-75012523D01*
X118281476Y-75088714D01*
X118243380Y-75126809D01*
X118167190Y-75164904D01*
X118014809Y-75164904D01*
X117938619Y-75126809D01*
X117900523Y-75088714D01*
X117862428Y-75012523D01*
X117862428Y-74860142D01*
X117900523Y-74783952D01*
X117938619Y-74745857D01*
X118014809Y-74707761D01*
X119081476Y-72624904D02*
X119081476Y-71824904D01*
X118891000Y-71824904D01*
X118776714Y-71863000D01*
X118700523Y-71939190D01*
X118662428Y-72015380D01*
X118624333Y-72167761D01*
X118624333Y-72282047D01*
X118662428Y-72434428D01*
X118700523Y-72510619D01*
X118776714Y-72586809D01*
X118891000Y-72624904D01*
X119081476Y-72624904D01*
X118357666Y-71824904D02*
X117824333Y-71824904D01*
X118167190Y-72624904D01*
X119081476Y-70084904D02*
X119081476Y-69284904D01*
X118891000Y-69284904D01*
X118776714Y-69323000D01*
X118700523Y-69399190D01*
X118662428Y-69475380D01*
X118624333Y-69627761D01*
X118624333Y-69742047D01*
X118662428Y-69894428D01*
X118700523Y-69970619D01*
X118776714Y-70046809D01*
X118891000Y-70084904D01*
X119081476Y-70084904D01*
X117938619Y-69284904D02*
X118091000Y-69284904D01*
X118167190Y-69323000D01*
X118205285Y-69361095D01*
X118281476Y-69475380D01*
X118319571Y-69627761D01*
X118319571Y-69932523D01*
X118281476Y-70008714D01*
X118243380Y-70046809D01*
X118167190Y-70084904D01*
X118014809Y-70084904D01*
X117938619Y-70046809D01*
X117900523Y-70008714D01*
X117862428Y-69932523D01*
X117862428Y-69742047D01*
X117900523Y-69665857D01*
X117938619Y-69627761D01*
X118014809Y-69589666D01*
X118167190Y-69589666D01*
X118243380Y-69627761D01*
X118281476Y-69665857D01*
X118319571Y-69742047D01*
X119081476Y-67544904D02*
X119081476Y-66744904D01*
X118891000Y-66744904D01*
X118776714Y-66783000D01*
X118700523Y-66859190D01*
X118662428Y-66935380D01*
X118624333Y-67087761D01*
X118624333Y-67202047D01*
X118662428Y-67354428D01*
X118700523Y-67430619D01*
X118776714Y-67506809D01*
X118891000Y-67544904D01*
X119081476Y-67544904D01*
X117900523Y-66744904D02*
X118281476Y-66744904D01*
X118319571Y-67125857D01*
X118281476Y-67087761D01*
X118205285Y-67049666D01*
X118014809Y-67049666D01*
X117938619Y-67087761D01*
X117900523Y-67125857D01*
X117862428Y-67202047D01*
X117862428Y-67392523D01*
X117900523Y-67468714D01*
X117938619Y-67506809D01*
X118014809Y-67544904D01*
X118205285Y-67544904D01*
X118281476Y-67506809D01*
X118319571Y-67468714D01*
X119081476Y-65004904D02*
X119081476Y-64204904D01*
X118891000Y-64204904D01*
X118776714Y-64243000D01*
X118700523Y-64319190D01*
X118662428Y-64395380D01*
X118624333Y-64547761D01*
X118624333Y-64662047D01*
X118662428Y-64814428D01*
X118700523Y-64890619D01*
X118776714Y-64966809D01*
X118891000Y-65004904D01*
X119081476Y-65004904D01*
X118129095Y-64204904D02*
X118052904Y-64204904D01*
X117976714Y-64243000D01*
X117938619Y-64281095D01*
X117900523Y-64357285D01*
X117862428Y-64509666D01*
X117862428Y-64700142D01*
X117900523Y-64852523D01*
X117938619Y-64928714D01*
X117976714Y-64966809D01*
X118052904Y-65004904D01*
X118129095Y-65004904D01*
X118205285Y-64966809D01*
X118243380Y-64928714D01*
X118281476Y-64852523D01*
X118319571Y-64700142D01*
X118319571Y-64509666D01*
X118281476Y-64357285D01*
X118243380Y-64281095D01*
X118205285Y-64243000D01*
X118129095Y-64204904D01*
X119062428Y-62236333D02*
X118681476Y-62236333D01*
X119138619Y-62464904D02*
X118871952Y-61664904D01*
X118605285Y-62464904D01*
X118186238Y-61664904D02*
X118110047Y-61664904D01*
X118033857Y-61703000D01*
X117995761Y-61741095D01*
X117957666Y-61817285D01*
X117919571Y-61969666D01*
X117919571Y-62160142D01*
X117957666Y-62312523D01*
X117995761Y-62388714D01*
X118033857Y-62426809D01*
X118110047Y-62464904D01*
X118186238Y-62464904D01*
X118262428Y-62426809D01*
X118300523Y-62388714D01*
X118338619Y-62312523D01*
X118376714Y-62160142D01*
X118376714Y-61969666D01*
X118338619Y-61817285D01*
X118300523Y-61741095D01*
X118262428Y-61703000D01*
X118186238Y-61664904D01*
X119422214Y-58727000D02*
X118776714Y-58727000D01*
X118929095Y-59924904D02*
X119195761Y-59543952D01*
X119386238Y-59924904D02*
X119386238Y-59124904D01*
X119081476Y-59124904D01*
X119005285Y-59163000D01*
X118967190Y-59201095D01*
X118929095Y-59277285D01*
X118929095Y-59391571D01*
X118967190Y-59467761D01*
X119005285Y-59505857D01*
X119081476Y-59543952D01*
X119386238Y-59543952D01*
X118776714Y-58727000D02*
X118014809Y-58727000D01*
X118624333Y-59886809D02*
X118510047Y-59924904D01*
X118319571Y-59924904D01*
X118243380Y-59886809D01*
X118205285Y-59848714D01*
X118167190Y-59772523D01*
X118167190Y-59696333D01*
X118205285Y-59620142D01*
X118243380Y-59582047D01*
X118319571Y-59543952D01*
X118471952Y-59505857D01*
X118548142Y-59467761D01*
X118586238Y-59429666D01*
X118624333Y-59353476D01*
X118624333Y-59277285D01*
X118586238Y-59201095D01*
X118548142Y-59163000D01*
X118471952Y-59124904D01*
X118281476Y-59124904D01*
X118167190Y-59163000D01*
X118014809Y-58727000D02*
X117405285Y-58727000D01*
X117938619Y-59124904D02*
X117481476Y-59124904D01*
X117710047Y-59924904D02*
X117710047Y-59124904D01*
D11*
X123331190Y-86447428D02*
X123331190Y-86756952D01*
X123521666Y-86590285D01*
X123521666Y-86661714D01*
X123545476Y-86709333D01*
X123569285Y-86733142D01*
X123616904Y-86756952D01*
X123735952Y-86756952D01*
X123783571Y-86733142D01*
X123807380Y-86709333D01*
X123831190Y-86661714D01*
X123831190Y-86518857D01*
X123807380Y-86471238D01*
X123783571Y-86447428D01*
X123331190Y-86899809D02*
X123831190Y-87066476D01*
X123331190Y-87233142D01*
X123331190Y-87352190D02*
X123331190Y-87661714D01*
X123521666Y-87495047D01*
X123521666Y-87566476D01*
X123545476Y-87614095D01*
X123569285Y-87637904D01*
X123616904Y-87661714D01*
X123735952Y-87661714D01*
X123783571Y-87637904D01*
X123807380Y-87614095D01*
X123831190Y-87566476D01*
X123831190Y-87423619D01*
X123807380Y-87376000D01*
X123783571Y-87352190D01*
X123878809Y-87756952D02*
X123878809Y-88137904D01*
X123831190Y-88256952D02*
X123331190Y-88256952D01*
X125355000Y-86685523D02*
X125331190Y-86637904D01*
X125331190Y-86566476D01*
X125355000Y-86495047D01*
X125402619Y-86447428D01*
X125450238Y-86423619D01*
X125545476Y-86399809D01*
X125616904Y-86399809D01*
X125712142Y-86423619D01*
X125759761Y-86447428D01*
X125807380Y-86495047D01*
X125831190Y-86566476D01*
X125831190Y-86614095D01*
X125807380Y-86685523D01*
X125783571Y-86709333D01*
X125616904Y-86709333D01*
X125616904Y-86614095D01*
X125831190Y-86923619D02*
X125331190Y-86923619D01*
X125831190Y-87209333D01*
X125331190Y-87209333D01*
X125831190Y-87447428D02*
X125331190Y-87447428D01*
X125331190Y-87566476D01*
X125355000Y-87637904D01*
X125402619Y-87685523D01*
X125450238Y-87709333D01*
X125545476Y-87733142D01*
X125616904Y-87733142D01*
X125712142Y-87709333D01*
X125759761Y-87685523D01*
X125807380Y-87637904D01*
X125831190Y-87566476D01*
X125831190Y-87447428D01*
X125878809Y-87828380D02*
X125878809Y-88209333D01*
X125831190Y-88328380D02*
X125331190Y-88328380D01*
X127783571Y-87054571D02*
X127807380Y-87030761D01*
X127831190Y-86959333D01*
X127831190Y-86911714D01*
X127807380Y-86840285D01*
X127759761Y-86792666D01*
X127712142Y-86768857D01*
X127616904Y-86745047D01*
X127545476Y-86745047D01*
X127450238Y-86768857D01*
X127402619Y-86792666D01*
X127355000Y-86840285D01*
X127331190Y-86911714D01*
X127331190Y-86959333D01*
X127355000Y-87030761D01*
X127378809Y-87054571D01*
X127807380Y-87245047D02*
X127831190Y-87316476D01*
X127831190Y-87435523D01*
X127807380Y-87483142D01*
X127783571Y-87506952D01*
X127735952Y-87530761D01*
X127688333Y-87530761D01*
X127640714Y-87506952D01*
X127616904Y-87483142D01*
X127593095Y-87435523D01*
X127569285Y-87340285D01*
X127545476Y-87292666D01*
X127521666Y-87268857D01*
X127474047Y-87245047D01*
X127426428Y-87245047D01*
X127378809Y-87268857D01*
X127355000Y-87292666D01*
X127331190Y-87340285D01*
X127331190Y-87459333D01*
X127355000Y-87530761D01*
X127831190Y-88006952D02*
X127831190Y-87721238D01*
X127831190Y-87864095D02*
X127331190Y-87864095D01*
X127402619Y-87816476D01*
X127450238Y-87768857D01*
X127474047Y-87721238D01*
X129831190Y-86590285D02*
X129331190Y-86590285D01*
X129688333Y-86756952D01*
X129331190Y-86923619D01*
X129831190Y-86923619D01*
X129331190Y-87256952D02*
X129331190Y-87352190D01*
X129355000Y-87399809D01*
X129402619Y-87447428D01*
X129497857Y-87471238D01*
X129664523Y-87471238D01*
X129759761Y-87447428D01*
X129807380Y-87399809D01*
X129831190Y-87352190D01*
X129831190Y-87256952D01*
X129807380Y-87209333D01*
X129759761Y-87161714D01*
X129664523Y-87137904D01*
X129497857Y-87137904D01*
X129402619Y-87161714D01*
X129355000Y-87209333D01*
X129331190Y-87256952D01*
X129807380Y-87661714D02*
X129831190Y-87733142D01*
X129831190Y-87852190D01*
X129807380Y-87899809D01*
X129783571Y-87923619D01*
X129735952Y-87947428D01*
X129688333Y-87947428D01*
X129640714Y-87923619D01*
X129616904Y-87899809D01*
X129593095Y-87852190D01*
X129569285Y-87756952D01*
X129545476Y-87709333D01*
X129521666Y-87685523D01*
X129474047Y-87661714D01*
X129426428Y-87661714D01*
X129378809Y-87685523D01*
X129355000Y-87709333D01*
X129331190Y-87756952D01*
X129331190Y-87876000D01*
X129355000Y-87947428D01*
X129831190Y-88161714D02*
X129331190Y-88161714D01*
X131831190Y-86590285D02*
X131331190Y-86590285D01*
X131688333Y-86756952D01*
X131331190Y-86923619D01*
X131831190Y-86923619D01*
X131831190Y-87161714D02*
X131331190Y-87161714D01*
X131807380Y-87376000D02*
X131831190Y-87447428D01*
X131831190Y-87566476D01*
X131807380Y-87614095D01*
X131783571Y-87637904D01*
X131735952Y-87661714D01*
X131688333Y-87661714D01*
X131640714Y-87637904D01*
X131616904Y-87614095D01*
X131593095Y-87566476D01*
X131569285Y-87471238D01*
X131545476Y-87423619D01*
X131521666Y-87399809D01*
X131474047Y-87376000D01*
X131426428Y-87376000D01*
X131378809Y-87399809D01*
X131355000Y-87423619D01*
X131331190Y-87471238D01*
X131331190Y-87590285D01*
X131355000Y-87661714D01*
X131331190Y-87971238D02*
X131331190Y-88066476D01*
X131355000Y-88114095D01*
X131402619Y-88161714D01*
X131497857Y-88185523D01*
X131664523Y-88185523D01*
X131759761Y-88161714D01*
X131807380Y-88114095D01*
X131831190Y-88066476D01*
X131831190Y-87971238D01*
X131807380Y-87923619D01*
X131759761Y-87876000D01*
X131664523Y-87852190D01*
X131497857Y-87852190D01*
X131402619Y-87876000D01*
X131355000Y-87923619D01*
X131331190Y-87971238D01*
X133783571Y-87078380D02*
X133807380Y-87054571D01*
X133831190Y-86983142D01*
X133831190Y-86935523D01*
X133807380Y-86864095D01*
X133759761Y-86816476D01*
X133712142Y-86792666D01*
X133616904Y-86768857D01*
X133545476Y-86768857D01*
X133450238Y-86792666D01*
X133402619Y-86816476D01*
X133355000Y-86864095D01*
X133331190Y-86935523D01*
X133331190Y-86983142D01*
X133355000Y-87054571D01*
X133378809Y-87078380D01*
X133831190Y-87530761D02*
X133831190Y-87292666D01*
X133331190Y-87292666D01*
X133831190Y-87697428D02*
X133331190Y-87697428D01*
X133831190Y-87983142D02*
X133545476Y-87768857D01*
X133331190Y-87983142D02*
X133616904Y-87697428D01*
X135783571Y-87054571D02*
X135807380Y-87030761D01*
X135831190Y-86959333D01*
X135831190Y-86911714D01*
X135807380Y-86840285D01*
X135759761Y-86792666D01*
X135712142Y-86768857D01*
X135616904Y-86745047D01*
X135545476Y-86745047D01*
X135450238Y-86768857D01*
X135402619Y-86792666D01*
X135355000Y-86840285D01*
X135331190Y-86911714D01*
X135331190Y-86959333D01*
X135355000Y-87030761D01*
X135378809Y-87054571D01*
X135807380Y-87245047D02*
X135831190Y-87316476D01*
X135831190Y-87435523D01*
X135807380Y-87483142D01*
X135783571Y-87506952D01*
X135735952Y-87530761D01*
X135688333Y-87530761D01*
X135640714Y-87506952D01*
X135616904Y-87483142D01*
X135593095Y-87435523D01*
X135569285Y-87340285D01*
X135545476Y-87292666D01*
X135521666Y-87268857D01*
X135474047Y-87245047D01*
X135426428Y-87245047D01*
X135378809Y-87268857D01*
X135355000Y-87292666D01*
X135331190Y-87340285D01*
X135331190Y-87459333D01*
X135355000Y-87530761D01*
X135331190Y-87840285D02*
X135331190Y-87887904D01*
X135355000Y-87935523D01*
X135378809Y-87959333D01*
X135426428Y-87983142D01*
X135521666Y-88006952D01*
X135640714Y-88006952D01*
X135735952Y-87983142D01*
X135783571Y-87959333D01*
X135807380Y-87935523D01*
X135831190Y-87887904D01*
X135831190Y-87840285D01*
X135807380Y-87792666D01*
X135783571Y-87768857D01*
X135735952Y-87745047D01*
X135640714Y-87721238D01*
X135521666Y-87721238D01*
X135426428Y-87745047D01*
X135378809Y-87768857D01*
X135355000Y-87792666D01*
X135331190Y-87840285D01*
X137783571Y-87054571D02*
X137807380Y-87030761D01*
X137831190Y-86959333D01*
X137831190Y-86911714D01*
X137807380Y-86840285D01*
X137759761Y-86792666D01*
X137712142Y-86768857D01*
X137616904Y-86745047D01*
X137545476Y-86745047D01*
X137450238Y-86768857D01*
X137402619Y-86792666D01*
X137355000Y-86840285D01*
X137331190Y-86911714D01*
X137331190Y-86959333D01*
X137355000Y-87030761D01*
X137378809Y-87054571D01*
X137807380Y-87245047D02*
X137831190Y-87316476D01*
X137831190Y-87435523D01*
X137807380Y-87483142D01*
X137783571Y-87506952D01*
X137735952Y-87530761D01*
X137688333Y-87530761D01*
X137640714Y-87506952D01*
X137616904Y-87483142D01*
X137593095Y-87435523D01*
X137569285Y-87340285D01*
X137545476Y-87292666D01*
X137521666Y-87268857D01*
X137474047Y-87245047D01*
X137426428Y-87245047D01*
X137378809Y-87268857D01*
X137355000Y-87292666D01*
X137331190Y-87340285D01*
X137331190Y-87459333D01*
X137355000Y-87530761D01*
X137378809Y-87721238D02*
X137355000Y-87745047D01*
X137331190Y-87792666D01*
X137331190Y-87911714D01*
X137355000Y-87959333D01*
X137378809Y-87983142D01*
X137426428Y-88006952D01*
X137474047Y-88006952D01*
X137545476Y-87983142D01*
X137831190Y-87697428D01*
X137831190Y-88006952D01*
X139355000Y-86554571D02*
X139331190Y-86506952D01*
X139331190Y-86435523D01*
X139355000Y-86364095D01*
X139402619Y-86316476D01*
X139450238Y-86292666D01*
X139545476Y-86268857D01*
X139616904Y-86268857D01*
X139712142Y-86292666D01*
X139759761Y-86316476D01*
X139807380Y-86364095D01*
X139831190Y-86435523D01*
X139831190Y-86483142D01*
X139807380Y-86554571D01*
X139783571Y-86578380D01*
X139616904Y-86578380D01*
X139616904Y-86483142D01*
X139831190Y-86792666D02*
X139331190Y-86792666D01*
X139831190Y-87078380D01*
X139331190Y-87078380D01*
X139831190Y-87316476D02*
X139331190Y-87316476D01*
X139331190Y-87435523D01*
X139355000Y-87506952D01*
X139402619Y-87554571D01*
X139450238Y-87578380D01*
X139545476Y-87602190D01*
X139616904Y-87602190D01*
X139712142Y-87578380D01*
X139759761Y-87554571D01*
X139807380Y-87506952D01*
X139831190Y-87435523D01*
X139831190Y-87316476D01*
X139878809Y-87697428D02*
X139878809Y-88078380D01*
X139783571Y-88483142D02*
X139807380Y-88459333D01*
X139831190Y-88387904D01*
X139831190Y-88340285D01*
X139807380Y-88268857D01*
X139759761Y-88221238D01*
X139712142Y-88197428D01*
X139616904Y-88173619D01*
X139545476Y-88173619D01*
X139450238Y-88197428D01*
X139402619Y-88221238D01*
X139355000Y-88268857D01*
X139331190Y-88340285D01*
X139331190Y-88387904D01*
X139355000Y-88459333D01*
X139378809Y-88483142D01*
X141331190Y-86316476D02*
X141331190Y-86626000D01*
X141521666Y-86459333D01*
X141521666Y-86530761D01*
X141545476Y-86578380D01*
X141569285Y-86602190D01*
X141616904Y-86626000D01*
X141735952Y-86626000D01*
X141783571Y-86602190D01*
X141807380Y-86578380D01*
X141831190Y-86530761D01*
X141831190Y-86387904D01*
X141807380Y-86340285D01*
X141783571Y-86316476D01*
X141331190Y-86768857D02*
X141831190Y-86935523D01*
X141331190Y-87102190D01*
X141331190Y-87221238D02*
X141331190Y-87530761D01*
X141521666Y-87364095D01*
X141521666Y-87435523D01*
X141545476Y-87483142D01*
X141569285Y-87506952D01*
X141616904Y-87530761D01*
X141735952Y-87530761D01*
X141783571Y-87506952D01*
X141807380Y-87483142D01*
X141831190Y-87435523D01*
X141831190Y-87292666D01*
X141807380Y-87245047D01*
X141783571Y-87221238D01*
X141878809Y-87626000D02*
X141878809Y-88006952D01*
X141783571Y-88411714D02*
X141807380Y-88387904D01*
X141831190Y-88316476D01*
X141831190Y-88268857D01*
X141807380Y-88197428D01*
X141759761Y-88149809D01*
X141712142Y-88126000D01*
X141616904Y-88102190D01*
X141545476Y-88102190D01*
X141450238Y-88126000D01*
X141402619Y-88149809D01*
X141355000Y-88197428D01*
X141331190Y-88268857D01*
X141331190Y-88316476D01*
X141355000Y-88387904D01*
X141378809Y-88411714D01*
D12*
X140175333Y-71348380D02*
X139937238Y-72348380D01*
X139746761Y-71634095D01*
X139556285Y-72348380D01*
X139318190Y-71348380D01*
X138556285Y-72300761D02*
X138651523Y-72348380D01*
X138842000Y-72348380D01*
X138937238Y-72300761D01*
X138984857Y-72205523D01*
X138984857Y-71824571D01*
X138937238Y-71729333D01*
X138842000Y-71681714D01*
X138651523Y-71681714D01*
X138556285Y-71729333D01*
X138508666Y-71824571D01*
X138508666Y-71919809D01*
X138984857Y-72015047D01*
X138080095Y-72348380D02*
X138080095Y-71681714D01*
X138080095Y-71776952D02*
X138032476Y-71729333D01*
X137937238Y-71681714D01*
X137794380Y-71681714D01*
X137699142Y-71729333D01*
X137651523Y-71824571D01*
X137651523Y-72348380D01*
X137651523Y-71824571D02*
X137603904Y-71729333D01*
X137508666Y-71681714D01*
X137365809Y-71681714D01*
X137270571Y-71729333D01*
X137222952Y-71824571D01*
X137222952Y-72348380D01*
X136603904Y-72348380D02*
X136699142Y-72300761D01*
X136746761Y-72253142D01*
X136794380Y-72157904D01*
X136794380Y-71872190D01*
X136746761Y-71776952D01*
X136699142Y-71729333D01*
X136603904Y-71681714D01*
X136461047Y-71681714D01*
X136365809Y-71729333D01*
X136318190Y-71776952D01*
X136270571Y-71872190D01*
X136270571Y-72157904D01*
X136318190Y-72253142D01*
X136365809Y-72300761D01*
X136461047Y-72348380D01*
X136603904Y-72348380D01*
X135889619Y-72300761D02*
X135794380Y-72348380D01*
X135603904Y-72348380D01*
X135508666Y-72300761D01*
X135461047Y-72205523D01*
X135461047Y-72157904D01*
X135508666Y-72062666D01*
X135603904Y-72015047D01*
X135746761Y-72015047D01*
X135842000Y-71967428D01*
X135889619Y-71872190D01*
X135889619Y-71824571D01*
X135842000Y-71729333D01*
X135746761Y-71681714D01*
X135603904Y-71681714D01*
X135508666Y-71729333D01*
X134270571Y-72348380D02*
X134270571Y-71348380D01*
X133842000Y-72300761D02*
X133746761Y-72348380D01*
X133556285Y-72348380D01*
X133461047Y-72300761D01*
X133413428Y-72205523D01*
X133413428Y-72157904D01*
X133461047Y-72062666D01*
X133556285Y-72015047D01*
X133699142Y-72015047D01*
X133794380Y-71967428D01*
X133842000Y-71872190D01*
X133842000Y-71824571D01*
X133794380Y-71729333D01*
X133699142Y-71681714D01*
X133556285Y-71681714D01*
X133461047Y-71729333D01*
X132842000Y-72348380D02*
X132937238Y-72300761D01*
X132984857Y-72253142D01*
X133032476Y-72157904D01*
X133032476Y-71872190D01*
X132984857Y-71776952D01*
X132937238Y-71729333D01*
X132842000Y-71681714D01*
X132699142Y-71681714D01*
X132603904Y-71729333D01*
X132556285Y-71776952D01*
X132508666Y-71872190D01*
X132508666Y-72157904D01*
X132556285Y-72253142D01*
X132603904Y-72300761D01*
X132699142Y-72348380D01*
X132842000Y-72348380D01*
X131937238Y-72348380D02*
X132032476Y-72300761D01*
X132080095Y-72205523D01*
X132080095Y-71348380D01*
X131127714Y-72348380D02*
X131127714Y-71824571D01*
X131175333Y-71729333D01*
X131270571Y-71681714D01*
X131461047Y-71681714D01*
X131556285Y-71729333D01*
X131127714Y-72300761D02*
X131222952Y-72348380D01*
X131461047Y-72348380D01*
X131556285Y-72300761D01*
X131603904Y-72205523D01*
X131603904Y-72110285D01*
X131556285Y-72015047D01*
X131461047Y-71967428D01*
X131222952Y-71967428D01*
X131127714Y-71919809D01*
X130794380Y-71681714D02*
X130413428Y-71681714D01*
X130651523Y-71348380D02*
X130651523Y-72205523D01*
X130603904Y-72300761D01*
X130508666Y-72348380D01*
X130413428Y-72348380D01*
X129699142Y-72300761D02*
X129794380Y-72348380D01*
X129984857Y-72348380D01*
X130080095Y-72300761D01*
X130127714Y-72205523D01*
X130127714Y-71824571D01*
X130080095Y-71729333D01*
X129984857Y-71681714D01*
X129794380Y-71681714D01*
X129699142Y-71729333D01*
X129651523Y-71824571D01*
X129651523Y-71919809D01*
X130127714Y-72015047D01*
X128794380Y-72348380D02*
X128794380Y-71348380D01*
X128794380Y-72300761D02*
X128889619Y-72348380D01*
X129080095Y-72348380D01*
X129175333Y-72300761D01*
X129222952Y-72253142D01*
X129270571Y-72157904D01*
X129270571Y-71872190D01*
X129222952Y-71776952D01*
X129175333Y-71729333D01*
X129080095Y-71681714D01*
X128889619Y-71681714D01*
X128794380Y-71729333D01*
X127603904Y-72300761D02*
X127461047Y-72348380D01*
X127222952Y-72348380D01*
X127127714Y-72300761D01*
X127080095Y-72253142D01*
X127032476Y-72157904D01*
X127032476Y-72062666D01*
X127080095Y-71967428D01*
X127127714Y-71919809D01*
X127222952Y-71872190D01*
X127413428Y-71824571D01*
X127508666Y-71776952D01*
X127556285Y-71729333D01*
X127603904Y-71634095D01*
X127603904Y-71538857D01*
X127556285Y-71443619D01*
X127508666Y-71396000D01*
X127413428Y-71348380D01*
X127175333Y-71348380D01*
X127032476Y-71396000D01*
X126603904Y-72348380D02*
X126603904Y-71348380D01*
X126222952Y-71348380D01*
X126127714Y-71396000D01*
X126080095Y-71443619D01*
X126032476Y-71538857D01*
X126032476Y-71681714D01*
X126080095Y-71776952D01*
X126127714Y-71824571D01*
X126222952Y-71872190D01*
X126603904Y-71872190D01*
X125603904Y-72348380D02*
X125603904Y-71348380D01*
X141484857Y-73574571D02*
X141342000Y-73622190D01*
X141294380Y-73669809D01*
X141246761Y-73765047D01*
X141246761Y-73907904D01*
X141294380Y-74003142D01*
X141342000Y-74050761D01*
X141437238Y-74098380D01*
X141818190Y-74098380D01*
X141818190Y-73098380D01*
X141484857Y-73098380D01*
X141389619Y-73146000D01*
X141342000Y-73193619D01*
X141294380Y-73288857D01*
X141294380Y-73384095D01*
X141342000Y-73479333D01*
X141389619Y-73526952D01*
X141484857Y-73574571D01*
X141818190Y-73574571D01*
X140389619Y-74098380D02*
X140389619Y-73574571D01*
X140437238Y-73479333D01*
X140532476Y-73431714D01*
X140722952Y-73431714D01*
X140818190Y-73479333D01*
X140389619Y-74050761D02*
X140484857Y-74098380D01*
X140722952Y-74098380D01*
X140818190Y-74050761D01*
X140865809Y-73955523D01*
X140865809Y-73860285D01*
X140818190Y-73765047D01*
X140722952Y-73717428D01*
X140484857Y-73717428D01*
X140389619Y-73669809D01*
X139961047Y-74050761D02*
X139865809Y-74098380D01*
X139675333Y-74098380D01*
X139580095Y-74050761D01*
X139532476Y-73955523D01*
X139532476Y-73907904D01*
X139580095Y-73812666D01*
X139675333Y-73765047D01*
X139818190Y-73765047D01*
X139913428Y-73717428D01*
X139961047Y-73622190D01*
X139961047Y-73574571D01*
X139913428Y-73479333D01*
X139818190Y-73431714D01*
X139675333Y-73431714D01*
X139580095Y-73479333D01*
X139103904Y-74098380D02*
X139103904Y-73431714D01*
X139103904Y-73098380D02*
X139151523Y-73146000D01*
X139103904Y-73193619D01*
X139056285Y-73146000D01*
X139103904Y-73098380D01*
X139103904Y-73193619D01*
X138199142Y-74050761D02*
X138294380Y-74098380D01*
X138484857Y-74098380D01*
X138580095Y-74050761D01*
X138627714Y-74003142D01*
X138675333Y-73907904D01*
X138675333Y-73622190D01*
X138627714Y-73526952D01*
X138580095Y-73479333D01*
X138484857Y-73431714D01*
X138294380Y-73431714D01*
X138199142Y-73479333D01*
X137103904Y-73431714D02*
X136865809Y-74098380D01*
X136627714Y-73431714D01*
X135722952Y-74098380D02*
X136294380Y-74098380D01*
X136008666Y-74098380D02*
X136008666Y-73098380D01*
X136103904Y-73241238D01*
X136199142Y-73336476D01*
X136294380Y-73384095D01*
X135294380Y-74003142D02*
X135246761Y-74050761D01*
X135294380Y-74098380D01*
X135342000Y-74050761D01*
X135294380Y-74003142D01*
X135294380Y-74098380D01*
X134865809Y-73193619D02*
X134818190Y-73146000D01*
X134722952Y-73098380D01*
X134484857Y-73098380D01*
X134389619Y-73146000D01*
X134342000Y-73193619D01*
X134294380Y-73288857D01*
X134294380Y-73384095D01*
X134342000Y-73526952D01*
X134913428Y-74098380D01*
X134294380Y-74098380D01*
X133151523Y-73193619D02*
X133103904Y-73146000D01*
X133008666Y-73098380D01*
X132770571Y-73098380D01*
X132675333Y-73146000D01*
X132627714Y-73193619D01*
X132580095Y-73288857D01*
X132580095Y-73384095D01*
X132627714Y-73526952D01*
X133199142Y-74098380D01*
X132580095Y-74098380D01*
X132246761Y-73098380D02*
X131627714Y-73098380D01*
X131961047Y-73479333D01*
X131818190Y-73479333D01*
X131722952Y-73526952D01*
X131675333Y-73574571D01*
X131627714Y-73669809D01*
X131627714Y-73907904D01*
X131675333Y-74003142D01*
X131722952Y-74050761D01*
X131818190Y-74098380D01*
X132103904Y-74098380D01*
X132199142Y-74050761D01*
X132246761Y-74003142D01*
X130484857Y-73050761D02*
X131342000Y-74336476D01*
X129627714Y-74098380D02*
X130199142Y-74098380D01*
X129913428Y-74098380D02*
X129913428Y-73098380D01*
X130008666Y-73241238D01*
X130103904Y-73336476D01*
X130199142Y-73384095D01*
X129246761Y-73193619D02*
X129199142Y-73146000D01*
X129103904Y-73098380D01*
X128865809Y-73098380D01*
X128770571Y-73146000D01*
X128722952Y-73193619D01*
X128675333Y-73288857D01*
X128675333Y-73384095D01*
X128722952Y-73526952D01*
X129294380Y-74098380D01*
X128675333Y-74098380D01*
X127532476Y-73050761D02*
X128389619Y-74336476D01*
X127246761Y-73193619D02*
X127199142Y-73146000D01*
X127103904Y-73098380D01*
X126865809Y-73098380D01*
X126770571Y-73146000D01*
X126722952Y-73193619D01*
X126675333Y-73288857D01*
X126675333Y-73384095D01*
X126722952Y-73526952D01*
X127294380Y-74098380D01*
X126675333Y-74098380D01*
X126056285Y-73098380D02*
X125961047Y-73098380D01*
X125865809Y-73146000D01*
X125818190Y-73193619D01*
X125770571Y-73288857D01*
X125722952Y-73479333D01*
X125722952Y-73717428D01*
X125770571Y-73907904D01*
X125818190Y-74003142D01*
X125865809Y-74050761D01*
X125961047Y-74098380D01*
X126056285Y-74098380D01*
X126151523Y-74050761D01*
X126199142Y-74003142D01*
X126246761Y-73907904D01*
X126294380Y-73717428D01*
X126294380Y-73479333D01*
X126246761Y-73288857D01*
X126199142Y-73193619D01*
X126151523Y-73146000D01*
X126056285Y-73098380D01*
X124770571Y-74098380D02*
X125342000Y-74098380D01*
X125056285Y-74098380D02*
X125056285Y-73098380D01*
X125151523Y-73241238D01*
X125246761Y-73336476D01*
X125342000Y-73384095D01*
X124437238Y-73098380D02*
X123770571Y-73098380D01*
X124199142Y-74098380D01*
D13*
G36*
X132286186Y-63508931D02*
X132202365Y-63953555D01*
X131893080Y-64081053D01*
X131583794Y-64208551D01*
X131212754Y-63956246D01*
X131108843Y-63885996D01*
X131014913Y-63823272D01*
X130935348Y-63770938D01*
X130874530Y-63731857D01*
X130836843Y-63708893D01*
X130826579Y-63703942D01*
X130808090Y-63716676D01*
X130768580Y-63751882D01*
X130712478Y-63805062D01*
X130644213Y-63871718D01*
X130568214Y-63947354D01*
X130488908Y-64027472D01*
X130410725Y-64107574D01*
X130338093Y-64183164D01*
X130275441Y-64249745D01*
X130227197Y-64302818D01*
X130197790Y-64337887D01*
X130190759Y-64349623D01*
X130200877Y-64371260D01*
X130229241Y-64418662D01*
X130272871Y-64487193D01*
X130328782Y-64572215D01*
X130393994Y-64669093D01*
X130431781Y-64724350D01*
X130500657Y-64825248D01*
X130561860Y-64916299D01*
X130612422Y-64992970D01*
X130649372Y-65050728D01*
X130669742Y-65085043D01*
X130672803Y-65092254D01*
X130665864Y-65112748D01*
X130646949Y-65160513D01*
X130618913Y-65228832D01*
X130584609Y-65310989D01*
X130546891Y-65400270D01*
X130508613Y-65489958D01*
X130472630Y-65573338D01*
X130441794Y-65643694D01*
X130418961Y-65694310D01*
X130406983Y-65718471D01*
X130406276Y-65719422D01*
X130387469Y-65724036D01*
X130337382Y-65734328D01*
X130261207Y-65749287D01*
X130164135Y-65767901D01*
X130051357Y-65789159D01*
X129985558Y-65801418D01*
X129865050Y-65824362D01*
X129756203Y-65846195D01*
X129664524Y-65865722D01*
X129595519Y-65881748D01*
X129554696Y-65893079D01*
X129546489Y-65896674D01*
X129538452Y-65921006D01*
X129531967Y-65975959D01*
X129527030Y-66055108D01*
X129523636Y-66152026D01*
X129521782Y-66260287D01*
X129521462Y-66373465D01*
X129522673Y-66485135D01*
X129525410Y-66588868D01*
X129529669Y-66678241D01*
X129535445Y-66746826D01*
X129542733Y-66788197D01*
X129547105Y-66796810D01*
X129573236Y-66807133D01*
X129628607Y-66821892D01*
X129705893Y-66839352D01*
X129797770Y-66857780D01*
X129829842Y-66863741D01*
X129984476Y-66892066D01*
X130106625Y-66914876D01*
X130200327Y-66933080D01*
X130269616Y-66947583D01*
X130318529Y-66959292D01*
X130351103Y-66969115D01*
X130371372Y-66977956D01*
X130383374Y-66986724D01*
X130385053Y-66988457D01*
X130401816Y-67016371D01*
X130427386Y-67070695D01*
X130459212Y-67144777D01*
X130494740Y-67231965D01*
X130531417Y-67325608D01*
X130566689Y-67419052D01*
X130598004Y-67505647D01*
X130622807Y-67578740D01*
X130638546Y-67631678D01*
X130642668Y-67657811D01*
X130642324Y-67658726D01*
X130628359Y-67680086D01*
X130596678Y-67727084D01*
X130550609Y-67794827D01*
X130493482Y-67878423D01*
X130428627Y-67972982D01*
X130410157Y-67999854D01*
X130344301Y-68097275D01*
X130286350Y-68186163D01*
X130239462Y-68261412D01*
X130206793Y-68317920D01*
X130191500Y-68350581D01*
X130190759Y-68354593D01*
X130203608Y-68375684D01*
X130239112Y-68417464D01*
X130292707Y-68475445D01*
X130359829Y-68545135D01*
X130435913Y-68622045D01*
X130516396Y-68701683D01*
X130596713Y-68779561D01*
X130672301Y-68851186D01*
X130738595Y-68912070D01*
X130791031Y-68957721D01*
X130825045Y-68983650D01*
X130834455Y-68987883D01*
X130856357Y-68977912D01*
X130901200Y-68951020D01*
X130961679Y-68911736D01*
X131008211Y-68880117D01*
X131092525Y-68822098D01*
X131192374Y-68753784D01*
X131292527Y-68685579D01*
X131346373Y-68649075D01*
X131528629Y-68525800D01*
X131681619Y-68608520D01*
X131751318Y-68644759D01*
X131810586Y-68672926D01*
X131850689Y-68688991D01*
X131860897Y-68691226D01*
X131873171Y-68674722D01*
X131897387Y-68628082D01*
X131931737Y-68555609D01*
X131974412Y-68461606D01*
X132023606Y-68350374D01*
X132077510Y-68226215D01*
X132134316Y-68093432D01*
X132192218Y-67956327D01*
X132249407Y-67819202D01*
X132304076Y-67686358D01*
X132354416Y-67562098D01*
X132398620Y-67450725D01*
X132434881Y-67356539D01*
X132461391Y-67283844D01*
X132476342Y-67236941D01*
X132478746Y-67220833D01*
X132459689Y-67200286D01*
X132417964Y-67166933D01*
X132362294Y-67127702D01*
X132357622Y-67124599D01*
X132213736Y-67009423D01*
X132097717Y-66875053D01*
X132010570Y-66725784D01*
X131953301Y-66565913D01*
X131926914Y-66399737D01*
X131932415Y-66231552D01*
X131970810Y-66065655D01*
X132043105Y-65906342D01*
X132064374Y-65871487D01*
X132175004Y-65730737D01*
X132305698Y-65617714D01*
X132451936Y-65533003D01*
X132609192Y-65477194D01*
X132772943Y-65450874D01*
X132938667Y-65454630D01*
X133101838Y-65489050D01*
X133257935Y-65554723D01*
X133402433Y-65652235D01*
X133447131Y-65691813D01*
X133560888Y-65815703D01*
X133643782Y-65946124D01*
X133700644Y-66092315D01*
X133732313Y-66237088D01*
X133740131Y-66399860D01*
X133714062Y-66563440D01*
X133656755Y-66722298D01*
X133570856Y-66870906D01*
X133459014Y-67003735D01*
X133323877Y-67115256D01*
X133306117Y-67127011D01*
X133249850Y-67165508D01*
X133207077Y-67198863D01*
X133186628Y-67220160D01*
X133186331Y-67220833D01*
X133190721Y-67243871D01*
X133208124Y-67296157D01*
X133236732Y-67373390D01*
X133274735Y-67471268D01*
X133320326Y-67585491D01*
X133371697Y-67711758D01*
X133427038Y-67845767D01*
X133484542Y-67983218D01*
X133542399Y-68119808D01*
X133598802Y-68251237D01*
X133651942Y-68373205D01*
X133700010Y-68481409D01*
X133741199Y-68571549D01*
X133773699Y-68639323D01*
X133795703Y-68680430D01*
X133804564Y-68691226D01*
X133831640Y-68682819D01*
X133882303Y-68660272D01*
X133947817Y-68627613D01*
X133983841Y-68608520D01*
X134136832Y-68525800D01*
X134319088Y-68649075D01*
X134412125Y-68712228D01*
X134513985Y-68781727D01*
X134609438Y-68847165D01*
X134657250Y-68880117D01*
X134724495Y-68925273D01*
X134781436Y-68961057D01*
X134820646Y-68982938D01*
X134833381Y-68987563D01*
X134851917Y-68975085D01*
X134892941Y-68940252D01*
X134952475Y-68886678D01*
X135026542Y-68817983D01*
X135111165Y-68737781D01*
X135164685Y-68686286D01*
X135258319Y-68594286D01*
X135339241Y-68511999D01*
X135404177Y-68442945D01*
X135449858Y-68390644D01*
X135473011Y-68358616D01*
X135475232Y-68352116D01*
X135464924Y-68327394D01*
X135436439Y-68277405D01*
X135392937Y-68207212D01*
X135337577Y-68121875D01*
X135273520Y-68026456D01*
X135255303Y-67999854D01*
X135188927Y-67903167D01*
X135129378Y-67816117D01*
X135079984Y-67743595D01*
X135044075Y-67690493D01*
X135024981Y-67661703D01*
X135023136Y-67658726D01*
X135025895Y-67635782D01*
X135040538Y-67585336D01*
X135064513Y-67514041D01*
X135095266Y-67428547D01*
X135130244Y-67335507D01*
X135166893Y-67241574D01*
X135202661Y-67153399D01*
X135234994Y-67077634D01*
X135261338Y-67020931D01*
X135279142Y-66989943D01*
X135280407Y-66988457D01*
X135291294Y-66979601D01*
X135309682Y-66970843D01*
X135339606Y-66961277D01*
X135385103Y-66949996D01*
X135450209Y-66936093D01*
X135538961Y-66918663D01*
X135655393Y-66896798D01*
X135803542Y-66869591D01*
X135835618Y-66863741D01*
X135930686Y-66845374D01*
X136013565Y-66827405D01*
X136076930Y-66811569D01*
X136113458Y-66799600D01*
X136118356Y-66796810D01*
X136126427Y-66772072D01*
X136132987Y-66716790D01*
X136138033Y-66637389D01*
X136141559Y-66540296D01*
X136143561Y-66431938D01*
X136144036Y-66318740D01*
X136142977Y-66207128D01*
X136140382Y-66103529D01*
X136136246Y-66014368D01*
X136130563Y-65946072D01*
X136123331Y-65905066D01*
X136118971Y-65896674D01*
X136094698Y-65888208D01*
X136039426Y-65874435D01*
X135958662Y-65856550D01*
X135857912Y-65835748D01*
X135742683Y-65813223D01*
X135679902Y-65801418D01*
X135560787Y-65779151D01*
X135454565Y-65758979D01*
X135366427Y-65741915D01*
X135301566Y-65728969D01*
X135265174Y-65721155D01*
X135259184Y-65719422D01*
X135249061Y-65699890D01*
X135227662Y-65652843D01*
X135197839Y-65585003D01*
X135162445Y-65503091D01*
X135124332Y-65413828D01*
X135086353Y-65323935D01*
X135051360Y-65240135D01*
X135022206Y-65169147D01*
X135001743Y-65117694D01*
X134992823Y-65092497D01*
X134992657Y-65091396D01*
X135002769Y-65071519D01*
X135031117Y-65025777D01*
X135074723Y-64958717D01*
X135130606Y-64874884D01*
X135195787Y-64778826D01*
X135233679Y-64723650D01*
X135302725Y-64622481D01*
X135364050Y-64530630D01*
X135414663Y-64452744D01*
X135451571Y-64393469D01*
X135471782Y-64357451D01*
X135474701Y-64349377D01*
X135462153Y-64330584D01*
X135427463Y-64290457D01*
X135375063Y-64233493D01*
X135309384Y-64164185D01*
X135234856Y-64087031D01*
X135155913Y-64006525D01*
X135076983Y-63927163D01*
X135002500Y-63853440D01*
X134936894Y-63789852D01*
X134884596Y-63740894D01*
X134850039Y-63711061D01*
X134838478Y-63703942D01*
X134819654Y-63713953D01*
X134774631Y-63742078D01*
X134707787Y-63785454D01*
X134623499Y-63841218D01*
X134526144Y-63906506D01*
X134452707Y-63956246D01*
X134081667Y-64208551D01*
X133463095Y-63953555D01*
X133379275Y-63508931D01*
X133295454Y-63064307D01*
X132370006Y-63064307D01*
X132286186Y-63508931D01*
X132286186Y-63508931D01*
G37*
X132286186Y-63508931D02*
X132202365Y-63953555D01*
X131893080Y-64081053D01*
X131583794Y-64208551D01*
X131212754Y-63956246D01*
X131108843Y-63885996D01*
X131014913Y-63823272D01*
X130935348Y-63770938D01*
X130874530Y-63731857D01*
X130836843Y-63708893D01*
X130826579Y-63703942D01*
X130808090Y-63716676D01*
X130768580Y-63751882D01*
X130712478Y-63805062D01*
X130644213Y-63871718D01*
X130568214Y-63947354D01*
X130488908Y-64027472D01*
X130410725Y-64107574D01*
X130338093Y-64183164D01*
X130275441Y-64249745D01*
X130227197Y-64302818D01*
X130197790Y-64337887D01*
X130190759Y-64349623D01*
X130200877Y-64371260D01*
X130229241Y-64418662D01*
X130272871Y-64487193D01*
X130328782Y-64572215D01*
X130393994Y-64669093D01*
X130431781Y-64724350D01*
X130500657Y-64825248D01*
X130561860Y-64916299D01*
X130612422Y-64992970D01*
X130649372Y-65050728D01*
X130669742Y-65085043D01*
X130672803Y-65092254D01*
X130665864Y-65112748D01*
X130646949Y-65160513D01*
X130618913Y-65228832D01*
X130584609Y-65310989D01*
X130546891Y-65400270D01*
X130508613Y-65489958D01*
X130472630Y-65573338D01*
X130441794Y-65643694D01*
X130418961Y-65694310D01*
X130406983Y-65718471D01*
X130406276Y-65719422D01*
X130387469Y-65724036D01*
X130337382Y-65734328D01*
X130261207Y-65749287D01*
X130164135Y-65767901D01*
X130051357Y-65789159D01*
X129985558Y-65801418D01*
X129865050Y-65824362D01*
X129756203Y-65846195D01*
X129664524Y-65865722D01*
X129595519Y-65881748D01*
X129554696Y-65893079D01*
X129546489Y-65896674D01*
X129538452Y-65921006D01*
X129531967Y-65975959D01*
X129527030Y-66055108D01*
X129523636Y-66152026D01*
X129521782Y-66260287D01*
X129521462Y-66373465D01*
X129522673Y-66485135D01*
X129525410Y-66588868D01*
X129529669Y-66678241D01*
X129535445Y-66746826D01*
X129542733Y-66788197D01*
X129547105Y-66796810D01*
X129573236Y-66807133D01*
X129628607Y-66821892D01*
X129705893Y-66839352D01*
X129797770Y-66857780D01*
X129829842Y-66863741D01*
X129984476Y-66892066D01*
X130106625Y-66914876D01*
X130200327Y-66933080D01*
X130269616Y-66947583D01*
X130318529Y-66959292D01*
X130351103Y-66969115D01*
X130371372Y-66977956D01*
X130383374Y-66986724D01*
X130385053Y-66988457D01*
X130401816Y-67016371D01*
X130427386Y-67070695D01*
X130459212Y-67144777D01*
X130494740Y-67231965D01*
X130531417Y-67325608D01*
X130566689Y-67419052D01*
X130598004Y-67505647D01*
X130622807Y-67578740D01*
X130638546Y-67631678D01*
X130642668Y-67657811D01*
X130642324Y-67658726D01*
X130628359Y-67680086D01*
X130596678Y-67727084D01*
X130550609Y-67794827D01*
X130493482Y-67878423D01*
X130428627Y-67972982D01*
X130410157Y-67999854D01*
X130344301Y-68097275D01*
X130286350Y-68186163D01*
X130239462Y-68261412D01*
X130206793Y-68317920D01*
X130191500Y-68350581D01*
X130190759Y-68354593D01*
X130203608Y-68375684D01*
X130239112Y-68417464D01*
X130292707Y-68475445D01*
X130359829Y-68545135D01*
X130435913Y-68622045D01*
X130516396Y-68701683D01*
X130596713Y-68779561D01*
X130672301Y-68851186D01*
X130738595Y-68912070D01*
X130791031Y-68957721D01*
X130825045Y-68983650D01*
X130834455Y-68987883D01*
X130856357Y-68977912D01*
X130901200Y-68951020D01*
X130961679Y-68911736D01*
X131008211Y-68880117D01*
X131092525Y-68822098D01*
X131192374Y-68753784D01*
X131292527Y-68685579D01*
X131346373Y-68649075D01*
X131528629Y-68525800D01*
X131681619Y-68608520D01*
X131751318Y-68644759D01*
X131810586Y-68672926D01*
X131850689Y-68688991D01*
X131860897Y-68691226D01*
X131873171Y-68674722D01*
X131897387Y-68628082D01*
X131931737Y-68555609D01*
X131974412Y-68461606D01*
X132023606Y-68350374D01*
X132077510Y-68226215D01*
X132134316Y-68093432D01*
X132192218Y-67956327D01*
X132249407Y-67819202D01*
X132304076Y-67686358D01*
X132354416Y-67562098D01*
X132398620Y-67450725D01*
X132434881Y-67356539D01*
X132461391Y-67283844D01*
X132476342Y-67236941D01*
X132478746Y-67220833D01*
X132459689Y-67200286D01*
X132417964Y-67166933D01*
X132362294Y-67127702D01*
X132357622Y-67124599D01*
X132213736Y-67009423D01*
X132097717Y-66875053D01*
X132010570Y-66725784D01*
X131953301Y-66565913D01*
X131926914Y-66399737D01*
X131932415Y-66231552D01*
X131970810Y-66065655D01*
X132043105Y-65906342D01*
X132064374Y-65871487D01*
X132175004Y-65730737D01*
X132305698Y-65617714D01*
X132451936Y-65533003D01*
X132609192Y-65477194D01*
X132772943Y-65450874D01*
X132938667Y-65454630D01*
X133101838Y-65489050D01*
X133257935Y-65554723D01*
X133402433Y-65652235D01*
X133447131Y-65691813D01*
X133560888Y-65815703D01*
X133643782Y-65946124D01*
X133700644Y-66092315D01*
X133732313Y-66237088D01*
X133740131Y-66399860D01*
X133714062Y-66563440D01*
X133656755Y-66722298D01*
X133570856Y-66870906D01*
X133459014Y-67003735D01*
X133323877Y-67115256D01*
X133306117Y-67127011D01*
X133249850Y-67165508D01*
X133207077Y-67198863D01*
X133186628Y-67220160D01*
X133186331Y-67220833D01*
X133190721Y-67243871D01*
X133208124Y-67296157D01*
X133236732Y-67373390D01*
X133274735Y-67471268D01*
X133320326Y-67585491D01*
X133371697Y-67711758D01*
X133427038Y-67845767D01*
X133484542Y-67983218D01*
X133542399Y-68119808D01*
X133598802Y-68251237D01*
X133651942Y-68373205D01*
X133700010Y-68481409D01*
X133741199Y-68571549D01*
X133773699Y-68639323D01*
X133795703Y-68680430D01*
X133804564Y-68691226D01*
X133831640Y-68682819D01*
X133882303Y-68660272D01*
X133947817Y-68627613D01*
X133983841Y-68608520D01*
X134136832Y-68525800D01*
X134319088Y-68649075D01*
X134412125Y-68712228D01*
X134513985Y-68781727D01*
X134609438Y-68847165D01*
X134657250Y-68880117D01*
X134724495Y-68925273D01*
X134781436Y-68961057D01*
X134820646Y-68982938D01*
X134833381Y-68987563D01*
X134851917Y-68975085D01*
X134892941Y-68940252D01*
X134952475Y-68886678D01*
X135026542Y-68817983D01*
X135111165Y-68737781D01*
X135164685Y-68686286D01*
X135258319Y-68594286D01*
X135339241Y-68511999D01*
X135404177Y-68442945D01*
X135449858Y-68390644D01*
X135473011Y-68358616D01*
X135475232Y-68352116D01*
X135464924Y-68327394D01*
X135436439Y-68277405D01*
X135392937Y-68207212D01*
X135337577Y-68121875D01*
X135273520Y-68026456D01*
X135255303Y-67999854D01*
X135188927Y-67903167D01*
X135129378Y-67816117D01*
X135079984Y-67743595D01*
X135044075Y-67690493D01*
X135024981Y-67661703D01*
X135023136Y-67658726D01*
X135025895Y-67635782D01*
X135040538Y-67585336D01*
X135064513Y-67514041D01*
X135095266Y-67428547D01*
X135130244Y-67335507D01*
X135166893Y-67241574D01*
X135202661Y-67153399D01*
X135234994Y-67077634D01*
X135261338Y-67020931D01*
X135279142Y-66989943D01*
X135280407Y-66988457D01*
X135291294Y-66979601D01*
X135309682Y-66970843D01*
X135339606Y-66961277D01*
X135385103Y-66949996D01*
X135450209Y-66936093D01*
X135538961Y-66918663D01*
X135655393Y-66896798D01*
X135803542Y-66869591D01*
X135835618Y-66863741D01*
X135930686Y-66845374D01*
X136013565Y-66827405D01*
X136076930Y-66811569D01*
X136113458Y-66799600D01*
X136118356Y-66796810D01*
X136126427Y-66772072D01*
X136132987Y-66716790D01*
X136138033Y-66637389D01*
X136141559Y-66540296D01*
X136143561Y-66431938D01*
X136144036Y-66318740D01*
X136142977Y-66207128D01*
X136140382Y-66103529D01*
X136136246Y-66014368D01*
X136130563Y-65946072D01*
X136123331Y-65905066D01*
X136118971Y-65896674D01*
X136094698Y-65888208D01*
X136039426Y-65874435D01*
X135958662Y-65856550D01*
X135857912Y-65835748D01*
X135742683Y-65813223D01*
X135679902Y-65801418D01*
X135560787Y-65779151D01*
X135454565Y-65758979D01*
X135366427Y-65741915D01*
X135301566Y-65728969D01*
X135265174Y-65721155D01*
X135259184Y-65719422D01*
X135249061Y-65699890D01*
X135227662Y-65652843D01*
X135197839Y-65585003D01*
X135162445Y-65503091D01*
X135124332Y-65413828D01*
X135086353Y-65323935D01*
X135051360Y-65240135D01*
X135022206Y-65169147D01*
X135001743Y-65117694D01*
X134992823Y-65092497D01*
X134992657Y-65091396D01*
X135002769Y-65071519D01*
X135031117Y-65025777D01*
X135074723Y-64958717D01*
X135130606Y-64874884D01*
X135195787Y-64778826D01*
X135233679Y-64723650D01*
X135302725Y-64622481D01*
X135364050Y-64530630D01*
X135414663Y-64452744D01*
X135451571Y-64393469D01*
X135471782Y-64357451D01*
X135474701Y-64349377D01*
X135462153Y-64330584D01*
X135427463Y-64290457D01*
X135375063Y-64233493D01*
X135309384Y-64164185D01*
X135234856Y-64087031D01*
X135155913Y-64006525D01*
X135076983Y-63927163D01*
X135002500Y-63853440D01*
X134936894Y-63789852D01*
X134884596Y-63740894D01*
X134850039Y-63711061D01*
X134838478Y-63703942D01*
X134819654Y-63713953D01*
X134774631Y-63742078D01*
X134707787Y-63785454D01*
X134623499Y-63841218D01*
X134526144Y-63906506D01*
X134452707Y-63956246D01*
X134081667Y-64208551D01*
X133463095Y-63953555D01*
X133379275Y-63508931D01*
X133295454Y-63064307D01*
X132370006Y-63064307D01*
X132286186Y-63508931D01*
G36*
X135727967Y-61359986D02*
X135715412Y-61441220D01*
X135726411Y-61483875D01*
X135761829Y-61610354D01*
X135819098Y-61820273D01*
X135887515Y-62074312D01*
X135907914Y-62150625D01*
X136000672Y-62452069D01*
X136086898Y-62628439D01*
X136170272Y-62681245D01*
X136254477Y-62612001D01*
X136343194Y-62422220D01*
X136371532Y-62341125D01*
X136482270Y-62007750D01*
X136588455Y-62325250D01*
X136684008Y-62554617D01*
X136775310Y-62657071D01*
X136863109Y-62632590D01*
X136948155Y-62481154D01*
X137002639Y-62313460D01*
X137077523Y-62052171D01*
X137156487Y-61789099D01*
X137196100Y-61663063D01*
X137249910Y-61492617D01*
X137282518Y-61381631D01*
X137287000Y-61361438D01*
X137232426Y-61346124D01*
X137126258Y-61341000D01*
X137027541Y-61349694D01*
X136964950Y-61393640D01*
X136923896Y-61499629D01*
X136889792Y-61694454D01*
X136874916Y-61802604D01*
X136841461Y-61970535D01*
X136800961Y-62064060D01*
X136779090Y-62071305D01*
X136732699Y-61995966D01*
X136669852Y-61836402D01*
X136620180Y-61680611D01*
X136558187Y-61500931D01*
X136501690Y-61393832D01*
X136468487Y-61380159D01*
X136424589Y-61466822D01*
X136358979Y-61635456D01*
X136298097Y-61812701D01*
X136175750Y-62189152D01*
X136082280Y-61765076D01*
X136027798Y-61538966D01*
X135979181Y-61410957D01*
X135920760Y-61353989D01*
X135836868Y-61341000D01*
X135836749Y-61341000D01*
X135727967Y-61359986D01*
X135727967Y-61359986D01*
G37*
X135727967Y-61359986D02*
X135715412Y-61441220D01*
X135726411Y-61483875D01*
X135761829Y-61610354D01*
X135819098Y-61820273D01*
X135887515Y-62074312D01*
X135907914Y-62150625D01*
X136000672Y-62452069D01*
X136086898Y-62628439D01*
X136170272Y-62681245D01*
X136254477Y-62612001D01*
X136343194Y-62422220D01*
X136371532Y-62341125D01*
X136482270Y-62007750D01*
X136588455Y-62325250D01*
X136684008Y-62554617D01*
X136775310Y-62657071D01*
X136863109Y-62632590D01*
X136948155Y-62481154D01*
X137002639Y-62313460D01*
X137077523Y-62052171D01*
X137156487Y-61789099D01*
X137196100Y-61663063D01*
X137249910Y-61492617D01*
X137282518Y-61381631D01*
X137287000Y-61361438D01*
X137232426Y-61346124D01*
X137126258Y-61341000D01*
X137027541Y-61349694D01*
X136964950Y-61393640D01*
X136923896Y-61499629D01*
X136889792Y-61694454D01*
X136874916Y-61802604D01*
X136841461Y-61970535D01*
X136800961Y-62064060D01*
X136779090Y-62071305D01*
X136732699Y-61995966D01*
X136669852Y-61836402D01*
X136620180Y-61680611D01*
X136558187Y-61500931D01*
X136501690Y-61393832D01*
X136468487Y-61380159D01*
X136424589Y-61466822D01*
X136358979Y-61635456D01*
X136298097Y-61812701D01*
X136175750Y-62189152D01*
X136082280Y-61765076D01*
X136027798Y-61538966D01*
X135979181Y-61410957D01*
X135920760Y-61353989D01*
X135836868Y-61341000D01*
X135836749Y-61341000D01*
X135727967Y-61359986D01*
G36*
X134640282Y-61345458D02*
X134596744Y-61373917D01*
X134571715Y-61449000D01*
X134560071Y-61593331D01*
X134556692Y-61829534D01*
X134556500Y-62007750D01*
X134557510Y-62304433D01*
X134563953Y-62496741D01*
X134580951Y-62607298D01*
X134613627Y-62658727D01*
X134667103Y-62673653D01*
X134707450Y-62674500D01*
X134798942Y-62664299D01*
X134837081Y-62611216D01*
X134835881Y-62481524D01*
X134826192Y-62388750D01*
X134793984Y-62103000D01*
X135335017Y-62103000D01*
X135302809Y-62388750D01*
X135288430Y-62564121D01*
X135307058Y-62647645D01*
X135372705Y-62673046D01*
X135421551Y-62674500D01*
X135488719Y-62670041D01*
X135532257Y-62641582D01*
X135557286Y-62566499D01*
X135568930Y-62422168D01*
X135572309Y-62185965D01*
X135572500Y-62007750D01*
X135571491Y-61711066D01*
X135565048Y-61518758D01*
X135548050Y-61408201D01*
X135515374Y-61356772D01*
X135461898Y-61341846D01*
X135421551Y-61341000D01*
X135330059Y-61351200D01*
X135291920Y-61404283D01*
X135293120Y-61533975D01*
X135302809Y-61626750D01*
X135335017Y-61912500D01*
X134793984Y-61912500D01*
X134826192Y-61626750D01*
X134840571Y-61451378D01*
X134821943Y-61367854D01*
X134756296Y-61342453D01*
X134707450Y-61341000D01*
X134640282Y-61345458D01*
X134640282Y-61345458D01*
G37*
X134640282Y-61345458D02*
X134596744Y-61373917D01*
X134571715Y-61449000D01*
X134560071Y-61593331D01*
X134556692Y-61829534D01*
X134556500Y-62007750D01*
X134557510Y-62304433D01*
X134563953Y-62496741D01*
X134580951Y-62607298D01*
X134613627Y-62658727D01*
X134667103Y-62673653D01*
X134707450Y-62674500D01*
X134798942Y-62664299D01*
X134837081Y-62611216D01*
X134835881Y-62481524D01*
X134826192Y-62388750D01*
X134793984Y-62103000D01*
X135335017Y-62103000D01*
X135302809Y-62388750D01*
X135288430Y-62564121D01*
X135307058Y-62647645D01*
X135372705Y-62673046D01*
X135421551Y-62674500D01*
X135488719Y-62670041D01*
X135532257Y-62641582D01*
X135557286Y-62566499D01*
X135568930Y-62422168D01*
X135572309Y-62185965D01*
X135572500Y-62007750D01*
X135571491Y-61711066D01*
X135565048Y-61518758D01*
X135548050Y-61408201D01*
X135515374Y-61356772D01*
X135461898Y-61341846D01*
X135421551Y-61341000D01*
X135330059Y-61351200D01*
X135291920Y-61404283D01*
X135293120Y-61533975D01*
X135302809Y-61626750D01*
X135335017Y-61912500D01*
X134793984Y-61912500D01*
X134826192Y-61626750D01*
X134840571Y-61451378D01*
X134821943Y-61367854D01*
X134756296Y-61342453D01*
X134707450Y-61341000D01*
X134640282Y-61345458D01*
G36*
X133709452Y-61433131D02*
X133627022Y-61592140D01*
X133515622Y-61816192D01*
X133408307Y-62037692D01*
X133103165Y-62674500D01*
X133282145Y-62674500D01*
X133414971Y-62652007D01*
X133480367Y-62558950D01*
X133500002Y-62480118D01*
X133537458Y-62353022D01*
X133609008Y-62303643D01*
X133758564Y-62304127D01*
X133775306Y-62305493D01*
X133941572Y-62336228D01*
X134023150Y-62409291D01*
X134048504Y-62484000D01*
X134121056Y-62614275D01*
X134264307Y-62663510D01*
X134383182Y-62662725D01*
X134417212Y-62631760D01*
X134380393Y-62556108D01*
X134300901Y-62391866D01*
X134191214Y-62164841D01*
X134103815Y-61983749D01*
X133853854Y-61983749D01*
X133802931Y-62036735D01*
X133768695Y-62039500D01*
X133706527Y-61992959D01*
X133714005Y-61907132D01*
X133751634Y-61822053D01*
X133799111Y-61854513D01*
X133802338Y-61859507D01*
X133853854Y-61983749D01*
X134103815Y-61983749D01*
X134089091Y-61953242D01*
X133964648Y-61704871D01*
X133858130Y-61510069D01*
X133781958Y-61390437D01*
X133750273Y-61364060D01*
X133709452Y-61433131D01*
X133709452Y-61433131D01*
G37*
X133709452Y-61433131D02*
X133627022Y-61592140D01*
X133515622Y-61816192D01*
X133408307Y-62037692D01*
X133103165Y-62674500D01*
X133282145Y-62674500D01*
X133414971Y-62652007D01*
X133480367Y-62558950D01*
X133500002Y-62480118D01*
X133537458Y-62353022D01*
X133609008Y-62303643D01*
X133758564Y-62304127D01*
X133775306Y-62305493D01*
X133941572Y-62336228D01*
X134023150Y-62409291D01*
X134048504Y-62484000D01*
X134121056Y-62614275D01*
X134264307Y-62663510D01*
X134383182Y-62662725D01*
X134417212Y-62631760D01*
X134380393Y-62556108D01*
X134300901Y-62391866D01*
X134191214Y-62164841D01*
X134103815Y-61983749D01*
X133853854Y-61983749D01*
X133802931Y-62036735D01*
X133768695Y-62039500D01*
X133706527Y-61992959D01*
X133714005Y-61907132D01*
X133751634Y-61822053D01*
X133799111Y-61854513D01*
X133802338Y-61859507D01*
X133853854Y-61983749D01*
X134103815Y-61983749D01*
X134089091Y-61953242D01*
X133964648Y-61704871D01*
X133858130Y-61510069D01*
X133781958Y-61390437D01*
X133750273Y-61364060D01*
X133709452Y-61433131D01*
G36*
X131385929Y-61785500D02*
X131233785Y-61984835D01*
X131109482Y-62137921D01*
X131032356Y-62221356D01*
X131018738Y-62230000D01*
X131005560Y-62172142D01*
X131005246Y-62019826D01*
X131017752Y-61804933D01*
X131019346Y-61785500D01*
X131036485Y-61553562D01*
X131034989Y-61420584D01*
X131008567Y-61359128D01*
X130950926Y-61341753D01*
X130917431Y-61341000D01*
X130855459Y-61347103D01*
X130815283Y-61380469D01*
X130792189Y-61463678D01*
X130781464Y-61619314D01*
X130778392Y-61869957D01*
X130778250Y-62007750D01*
X130779709Y-62304908D01*
X130787053Y-62497594D01*
X130804738Y-62608328D01*
X130837216Y-62659628D01*
X130888942Y-62674014D01*
X130910118Y-62674500D01*
X131033545Y-62617495D01*
X131200807Y-62445297D01*
X131322868Y-62286115D01*
X131603750Y-61897731D01*
X131622656Y-62286115D01*
X131638403Y-62502639D01*
X131665787Y-62620483D01*
X131715224Y-62667959D01*
X131765531Y-62674500D01*
X131824643Y-62664179D01*
X131861310Y-62617102D01*
X131880810Y-62509094D01*
X131888420Y-62315983D01*
X131889500Y-62106747D01*
X131900417Y-61787493D01*
X131931849Y-61574206D01*
X131981822Y-61472820D01*
X132048361Y-61489272D01*
X132080600Y-61532470D01*
X132175412Y-61583591D01*
X132264001Y-61578300D01*
X132327453Y-61568458D01*
X132366767Y-61594699D01*
X132387706Y-61679926D01*
X132396029Y-61847039D01*
X132397500Y-62108944D01*
X132398986Y-62377854D01*
X132407806Y-62544315D01*
X132430506Y-62632877D01*
X132473629Y-62668087D01*
X132543721Y-62674495D01*
X132548278Y-62674500D01*
X132619129Y-62670138D01*
X132661732Y-62640867D01*
X132681056Y-62562406D01*
X132682074Y-62410472D01*
X132669754Y-62160786D01*
X132666209Y-62098421D01*
X132633363Y-61522342D01*
X132860373Y-61564930D01*
X133008014Y-61585924D01*
X133062543Y-61562714D01*
X133054278Y-61480994D01*
X133052536Y-61474258D01*
X133028113Y-61414101D01*
X132976676Y-61375379D01*
X132874151Y-61353413D01*
X132696462Y-61343522D01*
X132419535Y-61341026D01*
X132367075Y-61341000D01*
X131716463Y-61341000D01*
X131385929Y-61785500D01*
X131385929Y-61785500D01*
G37*
X131385929Y-61785500D02*
X131233785Y-61984835D01*
X131109482Y-62137921D01*
X131032356Y-62221356D01*
X131018738Y-62230000D01*
X131005560Y-62172142D01*
X131005246Y-62019826D01*
X131017752Y-61804933D01*
X131019346Y-61785500D01*
X131036485Y-61553562D01*
X131034989Y-61420584D01*
X131008567Y-61359128D01*
X130950926Y-61341753D01*
X130917431Y-61341000D01*
X130855459Y-61347103D01*
X130815283Y-61380469D01*
X130792189Y-61463678D01*
X130781464Y-61619314D01*
X130778392Y-61869957D01*
X130778250Y-62007750D01*
X130779709Y-62304908D01*
X130787053Y-62497594D01*
X130804738Y-62608328D01*
X130837216Y-62659628D01*
X130888942Y-62674014D01*
X130910118Y-62674500D01*
X131033545Y-62617495D01*
X131200807Y-62445297D01*
X131322868Y-62286115D01*
X131603750Y-61897731D01*
X131622656Y-62286115D01*
X131638403Y-62502639D01*
X131665787Y-62620483D01*
X131715224Y-62667959D01*
X131765531Y-62674500D01*
X131824643Y-62664179D01*
X131861310Y-62617102D01*
X131880810Y-62509094D01*
X131888420Y-62315983D01*
X131889500Y-62106747D01*
X131900417Y-61787493D01*
X131931849Y-61574206D01*
X131981822Y-61472820D01*
X132048361Y-61489272D01*
X132080600Y-61532470D01*
X132175412Y-61583591D01*
X132264001Y-61578300D01*
X132327453Y-61568458D01*
X132366767Y-61594699D01*
X132387706Y-61679926D01*
X132396029Y-61847039D01*
X132397500Y-62108944D01*
X132398986Y-62377854D01*
X132407806Y-62544315D01*
X132430506Y-62632877D01*
X132473629Y-62668087D01*
X132543721Y-62674495D01*
X132548278Y-62674500D01*
X132619129Y-62670138D01*
X132661732Y-62640867D01*
X132681056Y-62562406D01*
X132682074Y-62410472D01*
X132669754Y-62160786D01*
X132666209Y-62098421D01*
X132633363Y-61522342D01*
X132860373Y-61564930D01*
X133008014Y-61585924D01*
X133062543Y-61562714D01*
X133054278Y-61480994D01*
X133052536Y-61474258D01*
X133028113Y-61414101D01*
X132976676Y-61375379D01*
X132874151Y-61353413D01*
X132696462Y-61343522D01*
X132419535Y-61341026D01*
X132367075Y-61341000D01*
X131716463Y-61341000D01*
X131385929Y-61785500D01*
G36*
X130349528Y-61346540D02*
X130308301Y-61378230D01*
X130284601Y-61458670D01*
X130273586Y-61610462D01*
X130270411Y-61856207D01*
X130270250Y-62007750D01*
X130271438Y-62304539D01*
X130278228Y-62496932D01*
X130295466Y-62607531D01*
X130327992Y-62658936D01*
X130380652Y-62673749D01*
X130413125Y-62674500D01*
X130476723Y-62668959D01*
X130517950Y-62637269D01*
X130541650Y-62556829D01*
X130552665Y-62405037D01*
X130555840Y-62159292D01*
X130556000Y-62007750D01*
X130554813Y-61710960D01*
X130548023Y-61518567D01*
X130530785Y-61407968D01*
X130498259Y-61356563D01*
X130445599Y-61341750D01*
X130413125Y-61341000D01*
X130349528Y-61346540D01*
X130349528Y-61346540D01*
G37*
X130349528Y-61346540D02*
X130308301Y-61378230D01*
X130284601Y-61458670D01*
X130273586Y-61610462D01*
X130270411Y-61856207D01*
X130270250Y-62007750D01*
X130271438Y-62304539D01*
X130278228Y-62496932D01*
X130295466Y-62607531D01*
X130327992Y-62658936D01*
X130380652Y-62673749D01*
X130413125Y-62674500D01*
X130476723Y-62668959D01*
X130517950Y-62637269D01*
X130541650Y-62556829D01*
X130552665Y-62405037D01*
X130555840Y-62159292D01*
X130556000Y-62007750D01*
X130554813Y-61710960D01*
X130548023Y-61518567D01*
X130530785Y-61407968D01*
X130498259Y-61356563D01*
X130445599Y-61341750D01*
X130413125Y-61341000D01*
X130349528Y-61346540D01*
G36*
X129197311Y-61364656D02*
X129071655Y-61435785D01*
X129032000Y-61539503D01*
X129055267Y-61633778D01*
X129141526Y-61626046D01*
X129143125Y-61625377D01*
X129405580Y-61561206D01*
X129615894Y-61601299D01*
X129758671Y-61737211D01*
X129818514Y-61960495D01*
X129819400Y-61996410D01*
X129769820Y-62240644D01*
X129637018Y-62407107D01*
X129444906Y-62480833D01*
X129217394Y-62446857D01*
X129149761Y-62415555D01*
X129056578Y-62380041D01*
X129036316Y-62436873D01*
X129042811Y-62494930D01*
X129070353Y-62583046D01*
X129143121Y-62631134D01*
X129294516Y-62654955D01*
X129396708Y-62661928D01*
X129609998Y-62664098D01*
X129748824Y-62630319D01*
X129863850Y-62546372D01*
X129886250Y-62524522D01*
X130056088Y-62279243D01*
X130102489Y-62013765D01*
X130025058Y-61739361D01*
X129919629Y-61575928D01*
X129771180Y-61451413D01*
X129579616Y-61373805D01*
X129377479Y-61344441D01*
X129197311Y-61364656D01*
X129197311Y-61364656D01*
G37*
X129197311Y-61364656D02*
X129071655Y-61435785D01*
X129032000Y-61539503D01*
X129055267Y-61633778D01*
X129141526Y-61626046D01*
X129143125Y-61625377D01*
X129405580Y-61561206D01*
X129615894Y-61601299D01*
X129758671Y-61737211D01*
X129818514Y-61960495D01*
X129819400Y-61996410D01*
X129769820Y-62240644D01*
X129637018Y-62407107D01*
X129444906Y-62480833D01*
X129217394Y-62446857D01*
X129149761Y-62415555D01*
X129056578Y-62380041D01*
X129036316Y-62436873D01*
X129042811Y-62494930D01*
X129070353Y-62583046D01*
X129143121Y-62631134D01*
X129294516Y-62654955D01*
X129396708Y-62661928D01*
X129609998Y-62664098D01*
X129748824Y-62630319D01*
X129863850Y-62546372D01*
X129886250Y-62524522D01*
X130056088Y-62279243D01*
X130102489Y-62013765D01*
X130025058Y-61739361D01*
X129919629Y-61575928D01*
X129771180Y-61451413D01*
X129579616Y-61373805D01*
X129377479Y-61344441D01*
X129197311Y-61364656D01*
G36*
X128639406Y-61349658D02*
X128599274Y-61398720D01*
X128604411Y-61522813D01*
X128617040Y-61610875D01*
X128657743Y-61880750D01*
X128465580Y-61658500D01*
X128350560Y-61516390D01*
X128280974Y-61412938D01*
X128271709Y-61388625D01*
X128215063Y-61355504D01*
X128080463Y-61341024D01*
X128074104Y-61341000D01*
X127878207Y-61341000D01*
X128137787Y-61635898D01*
X128282342Y-61820371D01*
X128348837Y-61952231D01*
X128345044Y-62001023D01*
X128279092Y-62086057D01*
X128161944Y-62234263D01*
X128051461Y-62372875D01*
X127810202Y-62674500D01*
X128003172Y-62674500D01*
X128156489Y-62645585D01*
X128275912Y-62538291D01*
X128329089Y-62459388D01*
X128442857Y-62296088D01*
X128551378Y-62171645D01*
X128567017Y-62157763D01*
X128628091Y-62117698D01*
X128651684Y-62147415D01*
X128644375Y-62269039D01*
X128630965Y-62372875D01*
X128610573Y-62554072D01*
X128622755Y-62642769D01*
X128680230Y-62671902D01*
X128747465Y-62674500D01*
X128905000Y-62674500D01*
X128905000Y-61341000D01*
X128740669Y-61341000D01*
X128639406Y-61349658D01*
X128639406Y-61349658D01*
G37*
X128639406Y-61349658D02*
X128599274Y-61398720D01*
X128604411Y-61522813D01*
X128617040Y-61610875D01*
X128657743Y-61880750D01*
X128465580Y-61658500D01*
X128350560Y-61516390D01*
X128280974Y-61412938D01*
X128271709Y-61388625D01*
X128215063Y-61355504D01*
X128080463Y-61341024D01*
X128074104Y-61341000D01*
X127878207Y-61341000D01*
X128137787Y-61635898D01*
X128282342Y-61820371D01*
X128348837Y-61952231D01*
X128345044Y-62001023D01*
X128279092Y-62086057D01*
X128161944Y-62234263D01*
X128051461Y-62372875D01*
X127810202Y-62674500D01*
X128003172Y-62674500D01*
X128156489Y-62645585D01*
X128275912Y-62538291D01*
X128329089Y-62459388D01*
X128442857Y-62296088D01*
X128551378Y-62171645D01*
X128567017Y-62157763D01*
X128628091Y-62117698D01*
X128651684Y-62147415D01*
X128644375Y-62269039D01*
X128630965Y-62372875D01*
X128610573Y-62554072D01*
X128622755Y-62642769D01*
X128680230Y-62671902D01*
X128747465Y-62674500D01*
X128905000Y-62674500D01*
X128905000Y-61341000D01*
X128740669Y-61341000D01*
X128639406Y-61349658D01*
G36*
X132970034Y-56915447D02*
X132922221Y-57029933D01*
X132906210Y-57252977D01*
X132905500Y-57344779D01*
X132907576Y-57577501D01*
X132919622Y-57708031D01*
X132950369Y-57761172D01*
X133008545Y-57761724D01*
X133048375Y-57750714D01*
X133203577Y-57679279D01*
X133281099Y-57622568D01*
X133360474Y-57576097D01*
X133457612Y-57604319D01*
X133550690Y-57665255D01*
X133730433Y-57793243D01*
X133347327Y-58296511D01*
X133093609Y-58602070D01*
X132874868Y-58791834D01*
X132674733Y-58865754D01*
X132476838Y-58823776D01*
X132264812Y-58665850D01*
X132022288Y-58391926D01*
X131944928Y-58292118D01*
X131777956Y-58069562D01*
X131678799Y-57923640D01*
X131637629Y-57830480D01*
X131644621Y-57766214D01*
X131689949Y-57706971D01*
X131699808Y-57696667D01*
X131780546Y-57625522D01*
X131862163Y-57609898D01*
X131992003Y-57647831D01*
X132076745Y-57681038D01*
X132241704Y-57741011D01*
X132327143Y-57748334D01*
X132368624Y-57704077D01*
X132374443Y-57689995D01*
X132461124Y-57609474D01*
X132531294Y-57594500D01*
X132630459Y-57552921D01*
X132651500Y-57499250D01*
X132598561Y-57421678D01*
X132524500Y-57404000D01*
X132421315Y-57377407D01*
X132397500Y-57340500D01*
X132450685Y-57288907D01*
X132524500Y-57277000D01*
X132627929Y-57237295D01*
X132651500Y-57181750D01*
X132598561Y-57104178D01*
X132524500Y-57086500D01*
X132418846Y-57043894D01*
X132397500Y-56984366D01*
X132352989Y-56916752D01*
X132237972Y-56920888D01*
X132080223Y-56988088D01*
X131907516Y-57109666D01*
X131860086Y-57152435D01*
X131696143Y-57303822D01*
X131495138Y-57483094D01*
X131392777Y-57572121D01*
X131087772Y-57909580D01*
X130888857Y-58291713D01*
X130791847Y-58700202D01*
X130792555Y-59116728D01*
X130886795Y-59522975D01*
X131070379Y-59900624D01*
X131339122Y-60231357D01*
X131688837Y-60496858D01*
X132101917Y-60674875D01*
X132580818Y-60758995D01*
X133045288Y-60719635D01*
X133208917Y-60676172D01*
X133619295Y-60483308D01*
X133982305Y-60182384D01*
X134279924Y-59788904D01*
X134318424Y-59721750D01*
X134393062Y-59558573D01*
X134436605Y-59377742D01*
X134456338Y-59138374D01*
X134459858Y-58928000D01*
X134442427Y-58688923D01*
X134166965Y-58688923D01*
X134162046Y-59081634D01*
X134069271Y-59467645D01*
X133897082Y-59813094D01*
X133653920Y-60084116D01*
X133632424Y-60100981D01*
X133251842Y-60317873D01*
X132836775Y-60426196D01*
X132413185Y-60424019D01*
X132007036Y-60309410D01*
X131857601Y-60233019D01*
X131532056Y-59975477D01*
X131290953Y-59647254D01*
X131142047Y-59272923D01*
X131093091Y-58877056D01*
X131151841Y-58484226D01*
X131237706Y-58268680D01*
X131329995Y-58085611D01*
X131488924Y-58363930D01*
X131700455Y-58749147D01*
X131853764Y-59068877D01*
X131964522Y-59360923D01*
X132048395Y-59663093D01*
X132073443Y-59774258D01*
X132130516Y-60027257D01*
X132178425Y-60183462D01*
X132232698Y-60270654D01*
X132308863Y-60316617D01*
X132390122Y-60340855D01*
X132590864Y-60363139D01*
X132819725Y-60349215D01*
X132858586Y-60342463D01*
X133120761Y-60290615D01*
X133201561Y-59852820D01*
X133297249Y-59489485D01*
X133453359Y-59071791D01*
X133651271Y-58644781D01*
X133843586Y-58299747D01*
X133975669Y-58084244D01*
X134075585Y-58323377D01*
X134166965Y-58688923D01*
X134442427Y-58688923D01*
X134426663Y-58472722D01*
X134317544Y-58101198D01*
X134122109Y-57788394D01*
X133891840Y-57559568D01*
X133698661Y-57396405D01*
X133509627Y-57235581D01*
X133445250Y-57180413D01*
X133217452Y-56994979D01*
X133063745Y-56905226D01*
X132970034Y-56915447D01*
X132970034Y-56915447D01*
G37*
X132970034Y-56915447D02*
X132922221Y-57029933D01*
X132906210Y-57252977D01*
X132905500Y-57344779D01*
X132907576Y-57577501D01*
X132919622Y-57708031D01*
X132950369Y-57761172D01*
X133008545Y-57761724D01*
X133048375Y-57750714D01*
X133203577Y-57679279D01*
X133281099Y-57622568D01*
X133360474Y-57576097D01*
X133457612Y-57604319D01*
X133550690Y-57665255D01*
X133730433Y-57793243D01*
X133347327Y-58296511D01*
X133093609Y-58602070D01*
X132874868Y-58791834D01*
X132674733Y-58865754D01*
X132476838Y-58823776D01*
X132264812Y-58665850D01*
X132022288Y-58391926D01*
X131944928Y-58292118D01*
X131777956Y-58069562D01*
X131678799Y-57923640D01*
X131637629Y-57830480D01*
X131644621Y-57766214D01*
X131689949Y-57706971D01*
X131699808Y-57696667D01*
X131780546Y-57625522D01*
X131862163Y-57609898D01*
X131992003Y-57647831D01*
X132076745Y-57681038D01*
X132241704Y-57741011D01*
X132327143Y-57748334D01*
X132368624Y-57704077D01*
X132374443Y-57689995D01*
X132461124Y-57609474D01*
X132531294Y-57594500D01*
X132630459Y-57552921D01*
X132651500Y-57499250D01*
X132598561Y-57421678D01*
X132524500Y-57404000D01*
X132421315Y-57377407D01*
X132397500Y-57340500D01*
X132450685Y-57288907D01*
X132524500Y-57277000D01*
X132627929Y-57237295D01*
X132651500Y-57181750D01*
X132598561Y-57104178D01*
X132524500Y-57086500D01*
X132418846Y-57043894D01*
X132397500Y-56984366D01*
X132352989Y-56916752D01*
X132237972Y-56920888D01*
X132080223Y-56988088D01*
X131907516Y-57109666D01*
X131860086Y-57152435D01*
X131696143Y-57303822D01*
X131495138Y-57483094D01*
X131392777Y-57572121D01*
X131087772Y-57909580D01*
X130888857Y-58291713D01*
X130791847Y-58700202D01*
X130792555Y-59116728D01*
X130886795Y-59522975D01*
X131070379Y-59900624D01*
X131339122Y-60231357D01*
X131688837Y-60496858D01*
X132101917Y-60674875D01*
X132580818Y-60758995D01*
X133045288Y-60719635D01*
X133208917Y-60676172D01*
X133619295Y-60483308D01*
X133982305Y-60182384D01*
X134279924Y-59788904D01*
X134318424Y-59721750D01*
X134393062Y-59558573D01*
X134436605Y-59377742D01*
X134456338Y-59138374D01*
X134459858Y-58928000D01*
X134442427Y-58688923D01*
X134166965Y-58688923D01*
X134162046Y-59081634D01*
X134069271Y-59467645D01*
X133897082Y-59813094D01*
X133653920Y-60084116D01*
X133632424Y-60100981D01*
X133251842Y-60317873D01*
X132836775Y-60426196D01*
X132413185Y-60424019D01*
X132007036Y-60309410D01*
X131857601Y-60233019D01*
X131532056Y-59975477D01*
X131290953Y-59647254D01*
X131142047Y-59272923D01*
X131093091Y-58877056D01*
X131151841Y-58484226D01*
X131237706Y-58268680D01*
X131329995Y-58085611D01*
X131488924Y-58363930D01*
X131700455Y-58749147D01*
X131853764Y-59068877D01*
X131964522Y-59360923D01*
X132048395Y-59663093D01*
X132073443Y-59774258D01*
X132130516Y-60027257D01*
X132178425Y-60183462D01*
X132232698Y-60270654D01*
X132308863Y-60316617D01*
X132390122Y-60340855D01*
X132590864Y-60363139D01*
X132819725Y-60349215D01*
X132858586Y-60342463D01*
X133120761Y-60290615D01*
X133201561Y-59852820D01*
X133297249Y-59489485D01*
X133453359Y-59071791D01*
X133651271Y-58644781D01*
X133843586Y-58299747D01*
X133975669Y-58084244D01*
X134075585Y-58323377D01*
X134166965Y-58688923D01*
X134442427Y-58688923D01*
X134426663Y-58472722D01*
X134317544Y-58101198D01*
X134122109Y-57788394D01*
X133891840Y-57559568D01*
X133698661Y-57396405D01*
X133509627Y-57235581D01*
X133445250Y-57180413D01*
X133217452Y-56994979D01*
X133063745Y-56905226D01*
X132970034Y-56915447D01*
G36*
X132459753Y-58008818D02*
X132331372Y-58123325D01*
X132279998Y-58209467D01*
X132238996Y-58393860D01*
X132296163Y-58556096D01*
X132422723Y-58677867D01*
X132589903Y-58740867D01*
X132768929Y-58726789D01*
X132927409Y-58621374D01*
X133021383Y-58439547D01*
X133013282Y-58249893D01*
X132918703Y-58088214D01*
X132753238Y-57990311D01*
X132646500Y-57976472D01*
X132459753Y-58008818D01*
X132459753Y-58008818D01*
G37*
X132459753Y-58008818D02*
X132331372Y-58123325D01*
X132279998Y-58209467D01*
X132238996Y-58393860D01*
X132296163Y-58556096D01*
X132422723Y-58677867D01*
X132589903Y-58740867D01*
X132768929Y-58726789D01*
X132927409Y-58621374D01*
X133021383Y-58439547D01*
X133013282Y-58249893D01*
X132918703Y-58088214D01*
X132753238Y-57990311D01*
X132646500Y-57976472D01*
X132459753Y-58008818D01*
G36*
X133485461Y-56107002D02*
X133298143Y-56219484D01*
X133160906Y-56324778D01*
X133111028Y-56386252D01*
X133047054Y-56495957D01*
X132934364Y-56637681D01*
X132916062Y-56657875D01*
X132819627Y-56776216D01*
X132817645Y-56822115D01*
X132912906Y-56795393D01*
X133108202Y-56695867D01*
X133209309Y-56638872D01*
X133380145Y-56527534D01*
X133485398Y-56432253D01*
X133503997Y-56380308D01*
X133517863Y-56297434D01*
X133601620Y-56168987D01*
X133644689Y-56119465D01*
X133826250Y-55924752D01*
X133485461Y-56107002D01*
X133485461Y-56107002D01*
G37*
X133485461Y-56107002D02*
X133298143Y-56219484D01*
X133160906Y-56324778D01*
X133111028Y-56386252D01*
X133047054Y-56495957D01*
X132934364Y-56637681D01*
X132916062Y-56657875D01*
X132819627Y-56776216D01*
X132817645Y-56822115D01*
X132912906Y-56795393D01*
X133108202Y-56695867D01*
X133209309Y-56638872D01*
X133380145Y-56527534D01*
X133485398Y-56432253D01*
X133503997Y-56380308D01*
X133517863Y-56297434D01*
X133601620Y-56168987D01*
X133644689Y-56119465D01*
X133826250Y-55924752D01*
X133485461Y-56107002D01*
G36*
X131483979Y-55983812D02*
X131560410Y-56084546D01*
X131628582Y-56158612D01*
X131752692Y-56307105D01*
X131773109Y-56388676D01*
X131755653Y-56400865D01*
X131769757Y-56439684D01*
X131864472Y-56518359D01*
X132008400Y-56616882D01*
X132170147Y-56715245D01*
X132318317Y-56793442D01*
X132421512Y-56831466D01*
X132432985Y-56832500D01*
X132426556Y-56792820D01*
X132349255Y-56693002D01*
X132302885Y-56642662D01*
X132200135Y-56515809D01*
X132160255Y-56425026D01*
X132165627Y-56408206D01*
X132138012Y-56358427D01*
X132032280Y-56268342D01*
X131880980Y-56159950D01*
X131716662Y-56055250D01*
X131571876Y-55976240D01*
X131480169Y-55944934D01*
X131483979Y-55983812D01*
X131483979Y-55983812D01*
G37*
X131483979Y-55983812D02*
X131560410Y-56084546D01*
X131628582Y-56158612D01*
X131752692Y-56307105D01*
X131773109Y-56388676D01*
X131755653Y-56400865D01*
X131769757Y-56439684D01*
X131864472Y-56518359D01*
X132008400Y-56616882D01*
X132170147Y-56715245D01*
X132318317Y-56793442D01*
X132421512Y-56831466D01*
X132432985Y-56832500D01*
X132426556Y-56792820D01*
X132349255Y-56693002D01*
X132302885Y-56642662D01*
X132200135Y-56515809D01*
X132160255Y-56425026D01*
X132165627Y-56408206D01*
X132138012Y-56358427D01*
X132032280Y-56268342D01*
X131880980Y-56159950D01*
X131716662Y-56055250D01*
X131571876Y-55976240D01*
X131480169Y-55944934D01*
X131483979Y-55983812D01*
D14*
X121770528Y-85873228D02*
X127581820Y-85873228D01*
X127581820Y-85873228D02*
X127608151Y-84589795D01*
X127608151Y-84589795D02*
X136439373Y-84596483D01*
X136439373Y-84596483D02*
X136437397Y-85798736D01*
X136437397Y-85798736D02*
X145518193Y-85772658D01*
X145518193Y-85772658D02*
X145504195Y-54602507D01*
X145504195Y-54602507D02*
X145271384Y-53999714D01*
X145271384Y-53999714D02*
X144987901Y-53454833D01*
X144987901Y-53454833D02*
X144653253Y-52968423D01*
X144653253Y-52968423D02*
X144266953Y-52541048D01*
X144266953Y-52541048D02*
X143828512Y-52173259D01*
X143828512Y-52173259D02*
X143337440Y-51865623D01*
X143337440Y-51865623D02*
X142793250Y-51618690D01*
X142793250Y-51618690D02*
X142195453Y-51433024D01*
X142195453Y-51433024D02*
X123157540Y-51404266D01*
X123157540Y-51404266D02*
X122538176Y-51638259D01*
X122538176Y-51638259D02*
X121949982Y-51922742D01*
X121949982Y-51922742D02*
X121406555Y-52272257D01*
X121406555Y-52272257D02*
X120921497Y-52701342D01*
X120921497Y-52701342D02*
X120508405Y-53224540D01*
X120508405Y-53224540D02*
X120180878Y-53856387D01*
X120180878Y-53856387D02*
X119952518Y-54611425D01*
X119952518Y-54611425D02*
X119836922Y-55504193D01*
X119836922Y-55504193D02*
X119811974Y-78059285D01*
X119811974Y-78059285D02*
X121755520Y-79020181D01*
X121755520Y-79020181D02*
X121785314Y-85828524D01*
X135767650Y-79647451D02*
X128628069Y-79647451D01*
X128628069Y-79647451D02*
X128628069Y-85461188D01*
X128628069Y-85461188D02*
X135767650Y-85461188D01*
X135767650Y-85461188D02*
X135767650Y-79647451D01*
X121844400Y-78998349D02*
X123396622Y-78998349D01*
X123396622Y-78998349D02*
X123925789Y-79527515D01*
X123925789Y-79527515D02*
X125178150Y-79527515D01*
X125178150Y-79527515D02*
X125178150Y-84589876D01*
X125178150Y-84589876D02*
X123890511Y-84589876D01*
X123890511Y-84589876D02*
X123361344Y-85083765D01*
X123361344Y-85083765D02*
X121791483Y-85083765D01*
X121791483Y-85083765D02*
X121844400Y-78998349D01*
X121809122Y-81079738D02*
X121156483Y-81079738D01*
X121156483Y-81079738D02*
X121156483Y-83072932D01*
X121156483Y-83072932D02*
X121773844Y-83072932D01*
M02*
