G04 #@! TF.GenerationSoftware,KiCad,Pcbnew,(2017-09-19 revision dddaa7e69)-makepkg*
G04 #@! TF.CreationDate,2017-12-24T07:49:48+10:30*
G04 #@! TF.ProjectId,din_isolated_SPI,64696E5F69736F6C617465645F535049,rev?*
G04 #@! TF.SameCoordinates,Original*
G04 #@! TF.FileFunction,Copper,L1,Top,Signal*
G04 #@! TF.FilePolarity,Positive*
%FSLAX46Y46*%
G04 Gerber Fmt 4.6, Leading zero omitted, Abs format (unit mm)*
G04 Created by KiCad (PCBNEW (2017-09-19 revision dddaa7e69)-makepkg) date 12/24/17 07:49:48*
%MOMM*%
%LPD*%
G01*
G04 APERTURE LIST*
%ADD10R,0.900000X0.500000*%
%ADD11R,0.800000X0.750000*%
%ADD12R,0.500000X0.900000*%
%ADD13R,0.600000X1.500000*%
%ADD14C,1.500000*%
%ADD15R,1.500000X1.500000*%
%ADD16C,1.800000*%
%ADD17C,0.800000*%
%ADD18C,0.250000*%
%ADD19C,0.500000*%
%ADD20C,0.254000*%
G04 APERTURE END LIST*
D10*
X128651000Y-83768500D03*
X128651000Y-85268500D03*
D11*
X138482000Y-73787000D03*
X136982000Y-73787000D03*
X137934000Y-83439000D03*
X139434000Y-83439000D03*
D12*
X124536000Y-67013700D03*
X126036000Y-67013700D03*
X126036000Y-65468500D03*
X124536000Y-65468500D03*
X124536000Y-68558800D03*
X126036000Y-68558800D03*
X126036000Y-70104000D03*
X124536000Y-70104000D03*
X140704000Y-66675000D03*
X139204000Y-66675000D03*
D10*
X136271000Y-85268500D03*
X136271000Y-83768500D03*
X133223000Y-83768500D03*
X133223000Y-85268500D03*
X131699000Y-85268500D03*
X131699000Y-83768500D03*
X130175000Y-83768500D03*
X130175000Y-85268500D03*
D12*
X139204000Y-68453000D03*
X140704000Y-68453000D03*
D10*
X134747000Y-83768500D03*
X134747000Y-85268500D03*
D13*
X137160000Y-81186000D03*
X135890000Y-81186000D03*
X134620000Y-81186000D03*
X133350000Y-81186000D03*
X132080000Y-81186000D03*
X130810000Y-81186000D03*
X129540000Y-81186000D03*
X128270000Y-81186000D03*
X128270000Y-75786000D03*
X129540000Y-75786000D03*
X130810000Y-75786000D03*
X132080000Y-75786000D03*
X133350000Y-75786000D03*
X134620000Y-75786000D03*
X135890000Y-75786000D03*
X137160000Y-75786000D03*
D14*
X123732000Y-89789000D03*
X125732000Y-89789000D03*
X127732000Y-89789000D03*
X129732000Y-89789000D03*
X131732000Y-89789000D03*
X133732000Y-89789000D03*
X135732000Y-89789000D03*
X137732000Y-89789000D03*
X139732000Y-89789000D03*
D15*
X141732000Y-89789000D03*
D16*
X144018000Y-59436000D03*
X144018000Y-61976000D03*
X144018000Y-64516000D03*
X144018000Y-67056000D03*
X144018000Y-69596000D03*
X144018000Y-72136000D03*
X144018000Y-74676000D03*
X144018000Y-77216000D03*
X121158000Y-77216000D03*
X121158000Y-74676000D03*
X121158000Y-72136000D03*
X121158000Y-69596000D03*
X121158000Y-67056000D03*
X121158000Y-64516000D03*
X121158000Y-61976000D03*
X121158000Y-59436000D03*
D17*
X127762000Y-67437000D03*
X127762000Y-71246988D03*
X130914712Y-87401978D03*
X132715000Y-87376000D03*
X136144000Y-87376000D03*
X130302008Y-67437000D03*
X131591054Y-68782715D03*
X129032000Y-71247004D03*
X132842000Y-72517004D03*
X129031996Y-68580000D03*
X134111990Y-71247000D03*
X129032000Y-66166998D03*
X132842000Y-69977000D03*
X137160000Y-81914966D03*
X134493000Y-87376000D03*
X123952000Y-76327000D03*
X118872000Y-61087000D03*
X118872000Y-58547000D03*
X118872000Y-56007000D03*
X118872000Y-63627000D03*
X118872000Y-66167000D03*
X118872000Y-68707000D03*
X118872000Y-71247000D03*
X118872000Y-73787000D03*
X118872000Y-76327000D03*
X146812000Y-76327000D03*
X146812000Y-73787000D03*
X146812000Y-71247000D03*
X146812000Y-68707000D03*
X146812000Y-66167000D03*
X146812000Y-63627000D03*
X146812000Y-61087000D03*
X146812000Y-58547000D03*
X146812000Y-56007000D03*
X146812000Y-53467000D03*
X144272000Y-53467000D03*
X141732000Y-53467000D03*
X139192000Y-53467000D03*
X136652000Y-53467000D03*
X134112000Y-53467000D03*
X131445000Y-53467000D03*
X129032000Y-53467000D03*
X126492000Y-53467000D03*
X123952000Y-53467000D03*
X121412000Y-53467000D03*
X118872000Y-53467000D03*
X125147774Y-85686206D03*
X137621004Y-85288635D03*
X125222000Y-83947000D03*
X125222000Y-81534000D03*
X140843000Y-75438000D03*
D18*
X140704000Y-68453000D02*
X140704000Y-68653000D01*
X140704000Y-68653000D02*
X144018000Y-71967000D01*
X144018000Y-71967000D02*
X144018000Y-72136000D01*
X140704000Y-66675000D02*
X140704000Y-66875000D01*
X140704000Y-66875000D02*
X143425000Y-69596000D01*
X143425000Y-69596000D02*
X144018000Y-69596000D01*
X121158000Y-71436800D02*
X121158000Y-72136000D01*
X124036000Y-68558800D02*
X121158000Y-71436800D01*
X124536000Y-68558800D02*
X124036000Y-68558800D01*
X122057999Y-68061001D02*
X123105300Y-67013700D01*
X123105300Y-67013700D02*
X124536000Y-67013700D01*
X121158000Y-69596000D02*
X122057999Y-68696001D01*
X122057999Y-68696001D02*
X122057999Y-68061001D01*
X121158000Y-67056000D02*
X122745500Y-65468500D01*
X122745500Y-65468500D02*
X124536000Y-65468500D01*
X127362001Y-67037001D02*
X127762000Y-67437000D01*
X126036000Y-67013700D02*
X127338700Y-67013700D01*
X127338700Y-67013700D02*
X127362001Y-67037001D01*
X128161999Y-71646987D02*
X127762000Y-71246988D01*
X129540000Y-73024988D02*
X128161999Y-71646987D01*
X129540000Y-75786000D02*
X129540000Y-73024988D01*
X131729892Y-89789000D02*
X131732000Y-89789000D01*
X128651000Y-85268500D02*
X128651000Y-86710108D01*
X128651000Y-86710108D02*
X131729892Y-89789000D01*
X129540000Y-81186000D02*
X129540000Y-83079500D01*
X129540000Y-83079500D02*
X128851000Y-83768500D01*
X128851000Y-83768500D02*
X128651000Y-83768500D01*
X130810000Y-81186000D02*
X130810000Y-83133500D01*
X130810000Y-83133500D02*
X130875000Y-83198500D01*
X130875000Y-83198500D02*
X130875000Y-83268500D01*
X130375000Y-83768500D02*
X130175000Y-83768500D01*
X130875000Y-83268500D02*
X130375000Y-83768500D01*
X137732000Y-89789000D02*
X136462000Y-88519000D01*
X136462000Y-88519000D02*
X131025592Y-88519000D01*
X131025592Y-88519000D02*
X130175000Y-87668408D01*
X130175000Y-87668408D02*
X130175000Y-85268500D01*
X132080000Y-81186000D02*
X132080000Y-83387500D01*
X132080000Y-83387500D02*
X131699000Y-83768500D01*
X133350000Y-81186000D02*
X133350000Y-83641500D01*
X133350000Y-83641500D02*
X133223000Y-83768500D01*
X131699000Y-86617690D02*
X131314711Y-87001979D01*
X131699000Y-85268500D02*
X131699000Y-86617690D01*
X131314711Y-87001979D02*
X130914712Y-87401978D01*
X134547000Y-85268500D02*
X132715000Y-87100500D01*
X134747000Y-85268500D02*
X134547000Y-85268500D01*
X132715000Y-87100500D02*
X132715000Y-87376000D01*
X134620000Y-81186000D02*
X134620000Y-83641500D01*
X134620000Y-83641500D02*
X134747000Y-83768500D01*
X135890000Y-81186000D02*
X135890000Y-83387500D01*
X135890000Y-83387500D02*
X136271000Y-83768500D01*
X136271000Y-87249000D02*
X136144000Y-87376000D01*
X136271000Y-85268500D02*
X136271000Y-87249000D01*
X138004000Y-67753000D02*
X131874004Y-67753000D01*
X131874004Y-67753000D02*
X131515002Y-68112002D01*
X130810000Y-68469996D02*
X130810000Y-74786000D01*
X131515002Y-68112002D02*
X131167994Y-68112002D01*
X131167994Y-68112002D02*
X130810000Y-68469996D01*
X130810000Y-74786000D02*
X130810000Y-75786000D01*
X138704000Y-68453000D02*
X138004000Y-67753000D01*
X139204000Y-68453000D02*
X138704000Y-68453000D01*
X130702007Y-67037001D02*
X130302008Y-67437000D01*
X139204000Y-66675000D02*
X131064008Y-66675000D01*
X132080000Y-69271661D02*
X131991053Y-69182714D01*
X131064008Y-66675000D02*
X130702007Y-67037001D01*
X132080000Y-75786000D02*
X132080000Y-69271661D01*
X131991053Y-69182714D02*
X131591054Y-68782715D01*
X127889000Y-70104000D02*
X128454681Y-70104000D01*
X128454681Y-70104000D02*
X129032000Y-70681319D01*
X129032000Y-70681319D02*
X129032000Y-71247004D01*
X133241999Y-72917003D02*
X132842000Y-72517004D01*
X133350000Y-73025004D02*
X133241999Y-72917003D01*
X133350000Y-75786000D02*
X133350000Y-73025004D01*
X126036000Y-70104000D02*
X127889000Y-70104000D01*
X127762000Y-70104000D02*
X127889000Y-70104000D01*
X127635000Y-68580000D02*
X129031996Y-68580000D01*
X134130989Y-71228001D02*
X134111990Y-71247000D01*
X134220001Y-71228001D02*
X134130989Y-71228001D01*
X134620000Y-75786000D02*
X134620000Y-71628000D01*
X134620000Y-71628000D02*
X134220001Y-71228001D01*
X126557200Y-68580000D02*
X127635000Y-68580000D01*
X127635000Y-68580000D02*
X127762000Y-68580000D01*
X126036000Y-68558800D02*
X126536000Y-68558800D01*
X126536000Y-68558800D02*
X126557200Y-68580000D01*
X128632001Y-65766999D02*
X129032000Y-66166998D01*
X128333502Y-65468500D02*
X128632001Y-65766999D01*
X126036000Y-65468500D02*
X128333502Y-65468500D01*
X135890000Y-75786000D02*
X135890000Y-71517998D01*
X134349002Y-69977000D02*
X133407685Y-69977000D01*
X135890000Y-71517998D02*
X134349002Y-69977000D01*
X133407685Y-69977000D02*
X132842000Y-69977000D01*
D19*
X137284966Y-81914966D02*
X137160000Y-81914966D01*
X137160000Y-81186000D02*
X137160000Y-82665000D01*
X137160000Y-82665000D02*
X137934000Y-83439000D01*
D18*
X124536000Y-70104000D02*
X123444000Y-70104000D01*
X123444000Y-70104000D02*
X123444000Y-72390000D01*
X123444000Y-72390000D02*
X121158000Y-74676000D01*
X134093001Y-87775999D02*
X134493000Y-87376000D01*
X131912998Y-88081007D02*
X131950980Y-88118989D01*
X131912998Y-87178998D02*
X131912998Y-88081007D01*
X133750011Y-88118989D02*
X134093001Y-87775999D01*
X133223000Y-85868996D02*
X131912998Y-87178998D01*
X131950980Y-88118989D02*
X133750011Y-88118989D01*
X133223000Y-85268500D02*
X133223000Y-85868996D01*
D19*
X139732000Y-89789000D02*
X139732000Y-88728340D01*
X139732000Y-88728340D02*
X142367999Y-86092341D01*
X142367999Y-86092341D02*
X142367999Y-76326001D01*
X142367999Y-76326001D02*
X143118001Y-75575999D01*
X143118001Y-75575999D02*
X144018000Y-74676000D01*
X125732000Y-86270432D02*
X125547773Y-86086205D01*
X125732000Y-89789000D02*
X125732000Y-86270432D01*
X125547773Y-86086205D02*
X125147774Y-85686206D01*
X139434000Y-84314000D02*
X138459365Y-85288635D01*
X139434000Y-83439000D02*
X139434000Y-84314000D01*
X138186689Y-85288635D02*
X137621004Y-85288635D01*
X138459365Y-85288635D02*
X138186689Y-85288635D01*
X137508000Y-75438000D02*
X136982000Y-74912000D01*
X136982000Y-74912000D02*
X136982000Y-73787000D01*
X140843000Y-75438000D02*
X137508000Y-75438000D01*
X137508000Y-75438000D02*
X137160000Y-75786000D01*
D20*
G36*
X147880000Y-77470000D02*
X145552779Y-77470000D01*
X145553265Y-76912009D01*
X145320068Y-76347629D01*
X144888643Y-75915449D01*
X144867806Y-75906797D01*
X144918554Y-75756159D01*
X144018000Y-74855605D01*
X143117446Y-75756159D01*
X143168035Y-75906327D01*
X143149629Y-75913932D01*
X142717449Y-76345357D01*
X142483267Y-76909330D01*
X142482779Y-77470000D01*
X139140000Y-77470000D01*
X139085954Y-77198295D01*
X138932046Y-76967954D01*
X138701705Y-76814046D01*
X138430000Y-76760000D01*
X138062884Y-76760000D01*
X138107440Y-76536000D01*
X138107440Y-76323000D01*
X140275415Y-76323000D01*
X140636223Y-76472820D01*
X141047971Y-76473179D01*
X141428515Y-76315942D01*
X141719919Y-76025046D01*
X141877820Y-75644777D01*
X141878179Y-75233029D01*
X141720942Y-74852485D01*
X141430046Y-74561081D01*
X141127218Y-74435336D01*
X142471542Y-74435336D01*
X142497161Y-75045460D01*
X142681357Y-75490148D01*
X142937841Y-75576554D01*
X143838395Y-74676000D01*
X144197605Y-74676000D01*
X145098159Y-75576554D01*
X145354643Y-75490148D01*
X145564458Y-74916664D01*
X145538839Y-74306540D01*
X145354643Y-73861852D01*
X145098159Y-73775446D01*
X144197605Y-74676000D01*
X143838395Y-74676000D01*
X142937841Y-73775446D01*
X142681357Y-73861852D01*
X142471542Y-74435336D01*
X141127218Y-74435336D01*
X141049777Y-74403180D01*
X140638029Y-74402821D01*
X140274567Y-74553000D01*
X139389026Y-74553000D01*
X139420327Y-74521699D01*
X139517000Y-74288310D01*
X139517000Y-74072750D01*
X139358250Y-73914000D01*
X138609000Y-73914000D01*
X138609000Y-73934000D01*
X138355000Y-73934000D01*
X138355000Y-73914000D01*
X138335000Y-73914000D01*
X138335000Y-73660000D01*
X138355000Y-73660000D01*
X138355000Y-72935750D01*
X138609000Y-72935750D01*
X138609000Y-73660000D01*
X139358250Y-73660000D01*
X139517000Y-73501250D01*
X139517000Y-73285690D01*
X139420327Y-73052301D01*
X139241698Y-72873673D01*
X139008309Y-72777000D01*
X138767750Y-72777000D01*
X138609000Y-72935750D01*
X138355000Y-72935750D01*
X138196250Y-72777000D01*
X137955691Y-72777000D01*
X137722302Y-72873673D01*
X137721102Y-72874873D01*
X137629765Y-72813843D01*
X137382000Y-72764560D01*
X136650000Y-72764560D01*
X136650000Y-71517998D01*
X136636864Y-71451959D01*
X136592148Y-71227158D01*
X136427401Y-70980597D01*
X134886403Y-69439599D01*
X134639841Y-69274852D01*
X134349002Y-69217000D01*
X133545761Y-69217000D01*
X133429046Y-69100081D01*
X133048777Y-68942180D01*
X132756158Y-68941925D01*
X132626085Y-68747257D01*
X132626233Y-68577744D01*
X132599481Y-68513000D01*
X137689198Y-68513000D01*
X138166598Y-68990401D01*
X138324940Y-69096201D01*
X138348063Y-69111651D01*
X138355843Y-69150765D01*
X138496191Y-69360809D01*
X138706235Y-69501157D01*
X138954000Y-69550440D01*
X139454000Y-69550440D01*
X139701765Y-69501157D01*
X139911809Y-69360809D01*
X139954000Y-69297666D01*
X139996191Y-69360809D01*
X140206235Y-69501157D01*
X140454000Y-69550440D01*
X140526638Y-69550440D01*
X142577820Y-71601622D01*
X142483267Y-71829330D01*
X142482735Y-72439991D01*
X142715932Y-73004371D01*
X143147357Y-73436551D01*
X143168194Y-73445203D01*
X143117446Y-73595841D01*
X144018000Y-74496395D01*
X144918554Y-73595841D01*
X144867965Y-73445673D01*
X144886371Y-73438068D01*
X145318551Y-73006643D01*
X145552733Y-72442670D01*
X145553265Y-71832009D01*
X145320068Y-71267629D01*
X144918818Y-70865677D01*
X145318551Y-70466643D01*
X145552733Y-69902670D01*
X145553265Y-69292009D01*
X145320068Y-68727629D01*
X144918818Y-68325677D01*
X145318551Y-67926643D01*
X145552733Y-67362670D01*
X145553265Y-66752009D01*
X145320068Y-66187629D01*
X144918818Y-65785677D01*
X145318551Y-65386643D01*
X145552733Y-64822670D01*
X145553265Y-64212009D01*
X145320068Y-63647629D01*
X144918818Y-63245677D01*
X145318551Y-62846643D01*
X145552733Y-62282670D01*
X145553265Y-61672009D01*
X145320068Y-61107629D01*
X144918818Y-60705677D01*
X145318551Y-60306643D01*
X145552733Y-59742670D01*
X145553265Y-59132009D01*
X145320068Y-58567629D01*
X144888643Y-58135449D01*
X144324670Y-57901267D01*
X143714009Y-57900735D01*
X143149629Y-58133932D01*
X142717449Y-58565357D01*
X142483267Y-59129330D01*
X142482735Y-59739991D01*
X142715932Y-60304371D01*
X143117182Y-60706323D01*
X142717449Y-61105357D01*
X142483267Y-61669330D01*
X142482735Y-62279991D01*
X142715932Y-62844371D01*
X143117182Y-63246323D01*
X142717449Y-63645357D01*
X142483267Y-64209330D01*
X142482735Y-64819991D01*
X142715932Y-65384371D01*
X143117182Y-65786323D01*
X142717449Y-66185357D01*
X142483267Y-66749330D01*
X142482735Y-67359991D01*
X142636899Y-67733097D01*
X141601440Y-66697638D01*
X141601440Y-66225000D01*
X141552157Y-65977235D01*
X141411809Y-65767191D01*
X141201765Y-65626843D01*
X140954000Y-65577560D01*
X140454000Y-65577560D01*
X140206235Y-65626843D01*
X139996191Y-65767191D01*
X139954000Y-65830334D01*
X139911809Y-65767191D01*
X139701765Y-65626843D01*
X139454000Y-65577560D01*
X138954000Y-65577560D01*
X138706235Y-65626843D01*
X138496191Y-65767191D01*
X138397427Y-65915000D01*
X131064008Y-65915000D01*
X130773169Y-65972852D01*
X130526607Y-66137599D01*
X130262241Y-66401965D01*
X130097037Y-66401821D01*
X130046504Y-66422701D01*
X130066820Y-66373775D01*
X130067179Y-65962027D01*
X129909942Y-65581483D01*
X129619046Y-65290079D01*
X129238777Y-65132178D01*
X129071836Y-65132032D01*
X128870903Y-64931099D01*
X128624341Y-64766352D01*
X128333502Y-64708500D01*
X126842573Y-64708500D01*
X126743809Y-64560691D01*
X126533765Y-64420343D01*
X126286000Y-64371060D01*
X125786000Y-64371060D01*
X125538235Y-64420343D01*
X125328191Y-64560691D01*
X125286000Y-64623834D01*
X125243809Y-64560691D01*
X125033765Y-64420343D01*
X124786000Y-64371060D01*
X124286000Y-64371060D01*
X124038235Y-64420343D01*
X123828191Y-64560691D01*
X123729427Y-64708500D01*
X122745500Y-64708500D01*
X122692823Y-64718978D01*
X122693265Y-64212009D01*
X122460068Y-63647629D01*
X122058818Y-63245677D01*
X122458551Y-62846643D01*
X122692733Y-62282670D01*
X122693265Y-61672009D01*
X122460068Y-61107629D01*
X122058818Y-60705677D01*
X122458551Y-60306643D01*
X122692733Y-59742670D01*
X122693265Y-59132009D01*
X122460068Y-58567629D01*
X122028643Y-58135449D01*
X121464670Y-57901267D01*
X120854009Y-57900735D01*
X120289629Y-58133932D01*
X119857449Y-58565357D01*
X119623267Y-59129330D01*
X119622735Y-59739991D01*
X119855932Y-60304371D01*
X120257182Y-60706323D01*
X119857449Y-61105357D01*
X119623267Y-61669330D01*
X119622735Y-62279991D01*
X119855932Y-62844371D01*
X120257182Y-63246323D01*
X119857449Y-63645357D01*
X119623267Y-64209330D01*
X119622735Y-64819991D01*
X119855932Y-65384371D01*
X120257182Y-65786323D01*
X119857449Y-66185357D01*
X119623267Y-66749330D01*
X119622735Y-67359991D01*
X119855932Y-67924371D01*
X120257182Y-68326323D01*
X119857449Y-68725357D01*
X119623267Y-69289330D01*
X119622735Y-69899991D01*
X119855932Y-70464371D01*
X120257182Y-70866323D01*
X119857449Y-71265357D01*
X119623267Y-71829330D01*
X119622735Y-72439991D01*
X119855932Y-73004371D01*
X120257182Y-73406323D01*
X119857449Y-73805357D01*
X119623267Y-74369330D01*
X119622735Y-74979991D01*
X119855932Y-75544371D01*
X120257182Y-75946323D01*
X119857449Y-76345357D01*
X119623267Y-76909330D01*
X119622779Y-77470000D01*
X117729000Y-77470000D01*
X117729000Y-52324000D01*
X147880000Y-52324000D01*
X147880000Y-77470000D01*
X147880000Y-77470000D01*
G37*
X147880000Y-77470000D02*
X145552779Y-77470000D01*
X145553265Y-76912009D01*
X145320068Y-76347629D01*
X144888643Y-75915449D01*
X144867806Y-75906797D01*
X144918554Y-75756159D01*
X144018000Y-74855605D01*
X143117446Y-75756159D01*
X143168035Y-75906327D01*
X143149629Y-75913932D01*
X142717449Y-76345357D01*
X142483267Y-76909330D01*
X142482779Y-77470000D01*
X139140000Y-77470000D01*
X139085954Y-77198295D01*
X138932046Y-76967954D01*
X138701705Y-76814046D01*
X138430000Y-76760000D01*
X138062884Y-76760000D01*
X138107440Y-76536000D01*
X138107440Y-76323000D01*
X140275415Y-76323000D01*
X140636223Y-76472820D01*
X141047971Y-76473179D01*
X141428515Y-76315942D01*
X141719919Y-76025046D01*
X141877820Y-75644777D01*
X141878179Y-75233029D01*
X141720942Y-74852485D01*
X141430046Y-74561081D01*
X141127218Y-74435336D01*
X142471542Y-74435336D01*
X142497161Y-75045460D01*
X142681357Y-75490148D01*
X142937841Y-75576554D01*
X143838395Y-74676000D01*
X144197605Y-74676000D01*
X145098159Y-75576554D01*
X145354643Y-75490148D01*
X145564458Y-74916664D01*
X145538839Y-74306540D01*
X145354643Y-73861852D01*
X145098159Y-73775446D01*
X144197605Y-74676000D01*
X143838395Y-74676000D01*
X142937841Y-73775446D01*
X142681357Y-73861852D01*
X142471542Y-74435336D01*
X141127218Y-74435336D01*
X141049777Y-74403180D01*
X140638029Y-74402821D01*
X140274567Y-74553000D01*
X139389026Y-74553000D01*
X139420327Y-74521699D01*
X139517000Y-74288310D01*
X139517000Y-74072750D01*
X139358250Y-73914000D01*
X138609000Y-73914000D01*
X138609000Y-73934000D01*
X138355000Y-73934000D01*
X138355000Y-73914000D01*
X138335000Y-73914000D01*
X138335000Y-73660000D01*
X138355000Y-73660000D01*
X138355000Y-72935750D01*
X138609000Y-72935750D01*
X138609000Y-73660000D01*
X139358250Y-73660000D01*
X139517000Y-73501250D01*
X139517000Y-73285690D01*
X139420327Y-73052301D01*
X139241698Y-72873673D01*
X139008309Y-72777000D01*
X138767750Y-72777000D01*
X138609000Y-72935750D01*
X138355000Y-72935750D01*
X138196250Y-72777000D01*
X137955691Y-72777000D01*
X137722302Y-72873673D01*
X137721102Y-72874873D01*
X137629765Y-72813843D01*
X137382000Y-72764560D01*
X136650000Y-72764560D01*
X136650000Y-71517998D01*
X136636864Y-71451959D01*
X136592148Y-71227158D01*
X136427401Y-70980597D01*
X134886403Y-69439599D01*
X134639841Y-69274852D01*
X134349002Y-69217000D01*
X133545761Y-69217000D01*
X133429046Y-69100081D01*
X133048777Y-68942180D01*
X132756158Y-68941925D01*
X132626085Y-68747257D01*
X132626233Y-68577744D01*
X132599481Y-68513000D01*
X137689198Y-68513000D01*
X138166598Y-68990401D01*
X138324940Y-69096201D01*
X138348063Y-69111651D01*
X138355843Y-69150765D01*
X138496191Y-69360809D01*
X138706235Y-69501157D01*
X138954000Y-69550440D01*
X139454000Y-69550440D01*
X139701765Y-69501157D01*
X139911809Y-69360809D01*
X139954000Y-69297666D01*
X139996191Y-69360809D01*
X140206235Y-69501157D01*
X140454000Y-69550440D01*
X140526638Y-69550440D01*
X142577820Y-71601622D01*
X142483267Y-71829330D01*
X142482735Y-72439991D01*
X142715932Y-73004371D01*
X143147357Y-73436551D01*
X143168194Y-73445203D01*
X143117446Y-73595841D01*
X144018000Y-74496395D01*
X144918554Y-73595841D01*
X144867965Y-73445673D01*
X144886371Y-73438068D01*
X145318551Y-73006643D01*
X145552733Y-72442670D01*
X145553265Y-71832009D01*
X145320068Y-71267629D01*
X144918818Y-70865677D01*
X145318551Y-70466643D01*
X145552733Y-69902670D01*
X145553265Y-69292009D01*
X145320068Y-68727629D01*
X144918818Y-68325677D01*
X145318551Y-67926643D01*
X145552733Y-67362670D01*
X145553265Y-66752009D01*
X145320068Y-66187629D01*
X144918818Y-65785677D01*
X145318551Y-65386643D01*
X145552733Y-64822670D01*
X145553265Y-64212009D01*
X145320068Y-63647629D01*
X144918818Y-63245677D01*
X145318551Y-62846643D01*
X145552733Y-62282670D01*
X145553265Y-61672009D01*
X145320068Y-61107629D01*
X144918818Y-60705677D01*
X145318551Y-60306643D01*
X145552733Y-59742670D01*
X145553265Y-59132009D01*
X145320068Y-58567629D01*
X144888643Y-58135449D01*
X144324670Y-57901267D01*
X143714009Y-57900735D01*
X143149629Y-58133932D01*
X142717449Y-58565357D01*
X142483267Y-59129330D01*
X142482735Y-59739991D01*
X142715932Y-60304371D01*
X143117182Y-60706323D01*
X142717449Y-61105357D01*
X142483267Y-61669330D01*
X142482735Y-62279991D01*
X142715932Y-62844371D01*
X143117182Y-63246323D01*
X142717449Y-63645357D01*
X142483267Y-64209330D01*
X142482735Y-64819991D01*
X142715932Y-65384371D01*
X143117182Y-65786323D01*
X142717449Y-66185357D01*
X142483267Y-66749330D01*
X142482735Y-67359991D01*
X142636899Y-67733097D01*
X141601440Y-66697638D01*
X141601440Y-66225000D01*
X141552157Y-65977235D01*
X141411809Y-65767191D01*
X141201765Y-65626843D01*
X140954000Y-65577560D01*
X140454000Y-65577560D01*
X140206235Y-65626843D01*
X139996191Y-65767191D01*
X139954000Y-65830334D01*
X139911809Y-65767191D01*
X139701765Y-65626843D01*
X139454000Y-65577560D01*
X138954000Y-65577560D01*
X138706235Y-65626843D01*
X138496191Y-65767191D01*
X138397427Y-65915000D01*
X131064008Y-65915000D01*
X130773169Y-65972852D01*
X130526607Y-66137599D01*
X130262241Y-66401965D01*
X130097037Y-66401821D01*
X130046504Y-66422701D01*
X130066820Y-66373775D01*
X130067179Y-65962027D01*
X129909942Y-65581483D01*
X129619046Y-65290079D01*
X129238777Y-65132178D01*
X129071836Y-65132032D01*
X128870903Y-64931099D01*
X128624341Y-64766352D01*
X128333502Y-64708500D01*
X126842573Y-64708500D01*
X126743809Y-64560691D01*
X126533765Y-64420343D01*
X126286000Y-64371060D01*
X125786000Y-64371060D01*
X125538235Y-64420343D01*
X125328191Y-64560691D01*
X125286000Y-64623834D01*
X125243809Y-64560691D01*
X125033765Y-64420343D01*
X124786000Y-64371060D01*
X124286000Y-64371060D01*
X124038235Y-64420343D01*
X123828191Y-64560691D01*
X123729427Y-64708500D01*
X122745500Y-64708500D01*
X122692823Y-64718978D01*
X122693265Y-64212009D01*
X122460068Y-63647629D01*
X122058818Y-63245677D01*
X122458551Y-62846643D01*
X122692733Y-62282670D01*
X122693265Y-61672009D01*
X122460068Y-61107629D01*
X122058818Y-60705677D01*
X122458551Y-60306643D01*
X122692733Y-59742670D01*
X122693265Y-59132009D01*
X122460068Y-58567629D01*
X122028643Y-58135449D01*
X121464670Y-57901267D01*
X120854009Y-57900735D01*
X120289629Y-58133932D01*
X119857449Y-58565357D01*
X119623267Y-59129330D01*
X119622735Y-59739991D01*
X119855932Y-60304371D01*
X120257182Y-60706323D01*
X119857449Y-61105357D01*
X119623267Y-61669330D01*
X119622735Y-62279991D01*
X119855932Y-62844371D01*
X120257182Y-63246323D01*
X119857449Y-63645357D01*
X119623267Y-64209330D01*
X119622735Y-64819991D01*
X119855932Y-65384371D01*
X120257182Y-65786323D01*
X119857449Y-66185357D01*
X119623267Y-66749330D01*
X119622735Y-67359991D01*
X119855932Y-67924371D01*
X120257182Y-68326323D01*
X119857449Y-68725357D01*
X119623267Y-69289330D01*
X119622735Y-69899991D01*
X119855932Y-70464371D01*
X120257182Y-70866323D01*
X119857449Y-71265357D01*
X119623267Y-71829330D01*
X119622735Y-72439991D01*
X119855932Y-73004371D01*
X120257182Y-73406323D01*
X119857449Y-73805357D01*
X119623267Y-74369330D01*
X119622735Y-74979991D01*
X119855932Y-75544371D01*
X120257182Y-75946323D01*
X119857449Y-76345357D01*
X119623267Y-76909330D01*
X119622779Y-77470000D01*
X117729000Y-77470000D01*
X117729000Y-52324000D01*
X147880000Y-52324000D01*
X147880000Y-77470000D01*
G36*
X125328191Y-71011809D02*
X125538235Y-71152157D01*
X125786000Y-71201440D01*
X126286000Y-71201440D01*
X126533765Y-71152157D01*
X126737117Y-71016281D01*
X126727180Y-71040211D01*
X126726821Y-71451959D01*
X126884058Y-71832503D01*
X127174954Y-72123907D01*
X127555223Y-72281808D01*
X127722164Y-72281954D01*
X128780000Y-73339790D01*
X128780000Y-74435666D01*
X128696310Y-74401000D01*
X128555750Y-74401000D01*
X128397000Y-74559750D01*
X128397000Y-75659000D01*
X128417000Y-75659000D01*
X128417000Y-75913000D01*
X128397000Y-75913000D01*
X128397000Y-75933000D01*
X128143000Y-75933000D01*
X128143000Y-75913000D01*
X127493750Y-75913000D01*
X127335000Y-76071750D01*
X127335000Y-76662309D01*
X127375465Y-76760000D01*
X127000000Y-76760000D01*
X126728295Y-76814046D01*
X126497954Y-76967954D01*
X126344046Y-77198295D01*
X126290000Y-77470000D01*
X122692779Y-77470000D01*
X122693265Y-76912009D01*
X122460068Y-76347629D01*
X122058818Y-75945677D01*
X122458551Y-75546643D01*
X122692733Y-74982670D01*
X122692796Y-74909691D01*
X127335000Y-74909691D01*
X127335000Y-75500250D01*
X127493750Y-75659000D01*
X128143000Y-75659000D01*
X128143000Y-74559750D01*
X127984250Y-74401000D01*
X127843690Y-74401000D01*
X127610301Y-74497673D01*
X127431673Y-74676302D01*
X127335000Y-74909691D01*
X122692796Y-74909691D01*
X122693265Y-74372009D01*
X122647515Y-74261287D01*
X123981401Y-72927401D01*
X124146148Y-72680840D01*
X124204000Y-72390000D01*
X124204000Y-71185129D01*
X124286000Y-71201440D01*
X124786000Y-71201440D01*
X125033765Y-71152157D01*
X125243809Y-71011809D01*
X125286000Y-70948666D01*
X125328191Y-71011809D01*
X125328191Y-71011809D01*
G37*
X125328191Y-71011809D02*
X125538235Y-71152157D01*
X125786000Y-71201440D01*
X126286000Y-71201440D01*
X126533765Y-71152157D01*
X126737117Y-71016281D01*
X126727180Y-71040211D01*
X126726821Y-71451959D01*
X126884058Y-71832503D01*
X127174954Y-72123907D01*
X127555223Y-72281808D01*
X127722164Y-72281954D01*
X128780000Y-73339790D01*
X128780000Y-74435666D01*
X128696310Y-74401000D01*
X128555750Y-74401000D01*
X128397000Y-74559750D01*
X128397000Y-75659000D01*
X128417000Y-75659000D01*
X128417000Y-75913000D01*
X128397000Y-75913000D01*
X128397000Y-75933000D01*
X128143000Y-75933000D01*
X128143000Y-75913000D01*
X127493750Y-75913000D01*
X127335000Y-76071750D01*
X127335000Y-76662309D01*
X127375465Y-76760000D01*
X127000000Y-76760000D01*
X126728295Y-76814046D01*
X126497954Y-76967954D01*
X126344046Y-77198295D01*
X126290000Y-77470000D01*
X122692779Y-77470000D01*
X122693265Y-76912009D01*
X122460068Y-76347629D01*
X122058818Y-75945677D01*
X122458551Y-75546643D01*
X122692733Y-74982670D01*
X122692796Y-74909691D01*
X127335000Y-74909691D01*
X127335000Y-75500250D01*
X127493750Y-75659000D01*
X128143000Y-75659000D01*
X128143000Y-74559750D01*
X127984250Y-74401000D01*
X127843690Y-74401000D01*
X127610301Y-74497673D01*
X127431673Y-74676302D01*
X127335000Y-74909691D01*
X122692796Y-74909691D01*
X122693265Y-74372009D01*
X122647515Y-74261287D01*
X123981401Y-72927401D01*
X124146148Y-72680840D01*
X124204000Y-72390000D01*
X124204000Y-71185129D01*
X124286000Y-71201440D01*
X124786000Y-71201440D01*
X125033765Y-71152157D01*
X125243809Y-71011809D01*
X125286000Y-70948666D01*
X125328191Y-71011809D01*
G36*
X127335000Y-80309691D02*
X127335000Y-80900250D01*
X127493750Y-81059000D01*
X128143000Y-81059000D01*
X128143000Y-81039000D01*
X128397000Y-81039000D01*
X128397000Y-81059000D01*
X128417000Y-81059000D01*
X128417000Y-81313000D01*
X128397000Y-81313000D01*
X128397000Y-82412250D01*
X128555750Y-82571000D01*
X128696310Y-82571000D01*
X128780000Y-82536334D01*
X128780000Y-82764698D01*
X128673638Y-82871060D01*
X128201000Y-82871060D01*
X127953235Y-82920343D01*
X127743191Y-83060691D01*
X127602843Y-83270735D01*
X127553560Y-83518500D01*
X127553560Y-84018500D01*
X127602843Y-84266265D01*
X127743191Y-84476309D01*
X127806334Y-84518500D01*
X127743191Y-84560691D01*
X127602843Y-84770735D01*
X127553560Y-85018500D01*
X127553560Y-85518500D01*
X127602843Y-85766265D01*
X127743191Y-85976309D01*
X127891000Y-86075073D01*
X127891000Y-86710108D01*
X127922407Y-86868000D01*
X121539000Y-86868000D01*
X121539000Y-81471750D01*
X127335000Y-81471750D01*
X127335000Y-82062309D01*
X127431673Y-82295698D01*
X127610301Y-82474327D01*
X127843690Y-82571000D01*
X127984250Y-82571000D01*
X128143000Y-82412250D01*
X128143000Y-81313000D01*
X127493750Y-81313000D01*
X127335000Y-81471750D01*
X121539000Y-81471750D01*
X121539000Y-80264000D01*
X127353926Y-80264000D01*
X127335000Y-80309691D01*
X127335000Y-80309691D01*
G37*
X127335000Y-80309691D02*
X127335000Y-80900250D01*
X127493750Y-81059000D01*
X128143000Y-81059000D01*
X128143000Y-81039000D01*
X128397000Y-81039000D01*
X128397000Y-81059000D01*
X128417000Y-81059000D01*
X128417000Y-81313000D01*
X128397000Y-81313000D01*
X128397000Y-82412250D01*
X128555750Y-82571000D01*
X128696310Y-82571000D01*
X128780000Y-82536334D01*
X128780000Y-82764698D01*
X128673638Y-82871060D01*
X128201000Y-82871060D01*
X127953235Y-82920343D01*
X127743191Y-83060691D01*
X127602843Y-83270735D01*
X127553560Y-83518500D01*
X127553560Y-84018500D01*
X127602843Y-84266265D01*
X127743191Y-84476309D01*
X127806334Y-84518500D01*
X127743191Y-84560691D01*
X127602843Y-84770735D01*
X127553560Y-85018500D01*
X127553560Y-85518500D01*
X127602843Y-85766265D01*
X127743191Y-85976309D01*
X127891000Y-86075073D01*
X127891000Y-86710108D01*
X127922407Y-86868000D01*
X121539000Y-86868000D01*
X121539000Y-81471750D01*
X127335000Y-81471750D01*
X127335000Y-82062309D01*
X127431673Y-82295698D01*
X127610301Y-82474327D01*
X127843690Y-82571000D01*
X127984250Y-82571000D01*
X128143000Y-82412250D01*
X128143000Y-81313000D01*
X127493750Y-81313000D01*
X127335000Y-81471750D01*
X121539000Y-81471750D01*
X121539000Y-80264000D01*
X127353926Y-80264000D01*
X127335000Y-80309691D01*
G36*
X138674302Y-84352327D02*
X138907691Y-84449000D01*
X139065000Y-84449000D01*
X139065000Y-86868000D01*
X137053970Y-86868000D01*
X137031000Y-86812407D01*
X137031000Y-86075073D01*
X137178809Y-85976309D01*
X137319157Y-85766265D01*
X137368440Y-85518500D01*
X137368440Y-85018500D01*
X137319157Y-84770735D01*
X137178809Y-84560691D01*
X137115666Y-84518500D01*
X137178809Y-84476309D01*
X137241602Y-84382334D01*
X137286235Y-84412157D01*
X137534000Y-84461440D01*
X138334000Y-84461440D01*
X138581765Y-84412157D01*
X138673102Y-84351127D01*
X138674302Y-84352327D01*
X138674302Y-84352327D01*
G37*
X138674302Y-84352327D02*
X138907691Y-84449000D01*
X139065000Y-84449000D01*
X139065000Y-86868000D01*
X137053970Y-86868000D01*
X137031000Y-86812407D01*
X137031000Y-86075073D01*
X137178809Y-85976309D01*
X137319157Y-85766265D01*
X137368440Y-85518500D01*
X137368440Y-85018500D01*
X137319157Y-84770735D01*
X137178809Y-84560691D01*
X137115666Y-84518500D01*
X137178809Y-84476309D01*
X137241602Y-84382334D01*
X137286235Y-84412157D01*
X137534000Y-84461440D01*
X138334000Y-84461440D01*
X138581765Y-84412157D01*
X138673102Y-84351127D01*
X138674302Y-84352327D01*
M02*
