G04 #@! TF.GenerationSoftware,KiCad,Pcbnew,(2017-09-19 revision dddaa7e69)-makepkg*
G04 #@! TF.CreationDate,2017-10-30T22:08:35+10:30*
G04 #@! TF.ProjectId,din_isolated_SPI,64696E5F69736F6C617465645F535049,rev?*
G04 #@! TF.SameCoordinates,Original*
G04 #@! TF.FileFunction,Paste,Top*
G04 #@! TF.FilePolarity,Positive*
%FSLAX46Y46*%
G04 Gerber Fmt 4.6, Leading zero omitted, Abs format (unit mm)*
G04 Created by KiCad (PCBNEW (2017-09-19 revision dddaa7e69)-makepkg) date 10/30/17 22:08:35*
%MOMM*%
%LPD*%
G01*
G04 APERTURE LIST*
%ADD10R,0.600000X1.500000*%
%ADD11R,0.600000X0.500000*%
%ADD12R,0.400000X0.600000*%
%ADD13R,0.600000X0.400000*%
G04 APERTURE END LIST*
D10*
X137160000Y-81186000D03*
X135890000Y-81186000D03*
X134620000Y-81186000D03*
X133350000Y-81186000D03*
X132080000Y-81186000D03*
X130810000Y-81186000D03*
X129540000Y-81186000D03*
X128270000Y-81186000D03*
X128270000Y-75786000D03*
X129540000Y-75786000D03*
X130810000Y-75786000D03*
X132080000Y-75786000D03*
X133350000Y-75786000D03*
X134620000Y-75786000D03*
X135890000Y-75786000D03*
X137160000Y-75786000D03*
D11*
X137182000Y-73787000D03*
X138282000Y-73787000D03*
X138218000Y-83312000D03*
X137118000Y-83312000D03*
D12*
X125736000Y-65468500D03*
X124836000Y-65468500D03*
X124836000Y-68558800D03*
X125736000Y-68558800D03*
X125736000Y-70104000D03*
X124836000Y-70104000D03*
X140404000Y-66675000D03*
X139504000Y-66675000D03*
X139504000Y-68453000D03*
X140404000Y-68453000D03*
D13*
X135890000Y-84068500D03*
X135890000Y-84968500D03*
X134620000Y-84968500D03*
X134620000Y-84068500D03*
X133350000Y-84068500D03*
X133350000Y-84968500D03*
X132080000Y-84968500D03*
X132080000Y-84068500D03*
X130810000Y-84068500D03*
X130810000Y-84968500D03*
X129540000Y-84968500D03*
X129540000Y-84068500D03*
D12*
X124836000Y-67013700D03*
X125736000Y-67013700D03*
M02*
